<?xml version="1.0" encoding="UTF-8"?>
<svg width="1079px" height="585px" viewBox="0 0 1079 585" version="1.1" xmlns="http://www.w3.org/2000/svg" xmlns:xlink="http://www.w3.org/1999/xlink">
    <title>Placeholder Brand Logo</title>
    <g id="Page" stroke="none" stroke-width="1" fill="none" fill-rule="evenodd">
        <g id="Artboard" transform="translate(-100.000000, -74.000000)">
            <g id="Group" transform="translate(100.000000, 74.000000)">
                <rect id="Rectangle" stroke="#FFFFFF" stroke-width="15" x="7.5" y="7.5" width="1064" height="570"></rect>
                <path d="M105.9,254 L105.9,225.05 L127.05,225.05 C136.35,225.05 144.425,223.525 151.275,220.475 C158.125,217.425 163.4,213.025 167.1,207.275 C170.8,201.525 172.65,194.8 172.65,187.1 C172.65,179.3 170.8,172.55 167.1,166.85 C163.4,161.15 158.125,156.75 151.275,153.65 C144.425,150.55 136.35,149 127.05,149 L127.05,149 L81.6,149 L81.6,254 L105.9,254 Z M125.7,205.25 L105.9,205.25 L105.9,168.8 L125.7,168.8 C133,168.8 138.55,170.375 142.35,173.525 C146.15,176.675 148.05,181.2 148.05,187.1 C148.05,192.9 146.15,197.375 142.35,200.525 C138.55,203.675 133,205.25 125.7,205.25 L125.7,205.25 Z M213.15,254 L213.15,142.7 L189.75,142.7 L189.75,254 L213.15,254 Z M259.8,255.2 C271.8,255.2 280,251.45 284.4,243.95 L284.4,243.95 L284.4,254 L306.3,254 L306.3,207.95 C306.3,195.95 302.95,186.975 296.25,181.025 C289.55,175.075 279.95,172.1 267.45,172.1 C260.95,172.1 254.625,172.95 248.475,174.65 C242.325,176.35 237.05,178.75 232.65,181.85 L232.65,181.85 L241.05,198.2 C243.95,195.9 247.475,194.075 251.625,192.725 C255.775,191.375 260,190.7 264.3,190.7 C270.5,190.7 275.15,192.075 278.25,194.825 C281.35,197.575 282.9,201.5 282.9,206.6 L282.9,206.6 L264.3,206.6 C252.5,206.6 243.775,208.75 238.125,213.05 C232.475,217.35 229.65,223.25 229.65,230.75 C229.65,235.45 230.85,239.65 233.25,243.35 C235.65,247.05 239.125,249.95 243.675,252.05 C248.225,254.15 253.6,255.2 259.8,255.2 Z M265.65,239.45 C261.55,239.45 258.325,238.575 255.975,236.825 C253.625,235.075 252.45,232.7 252.45,229.7 C252.45,223.4 257.25,220.25 266.85,220.25 L266.85,220.25 L282.9,220.25 L282.9,228.5 C281.6,232.1 279.4,234.825 276.3,236.675 C273.2,238.525 269.65,239.45 265.65,239.45 Z M367.35,255.2 C375.85,255.2 383.275,253.4 389.625,249.8 C395.975,246.2 400.6,241.2 403.5,234.8 L403.5,234.8 L385.35,224.9 C381.25,232.3 375.2,236 367.2,236 C361.1,236 356.05,234 352.05,230 C348.05,226 346.05,220.55 346.05,213.65 C346.05,206.75 348.05,201.3 352.05,197.3 C356.05,193.3 361.1,191.3 367.2,191.3 C375.1,191.3 381.15,195 385.35,202.4 L385.35,202.4 L403.5,192.65 C400.6,186.05 395.975,180.975 389.625,177.425 C383.275,173.875 375.85,172.1 367.35,172.1 C358.75,172.1 351.025,173.875 344.175,177.425 C337.325,180.975 331.975,185.9 328.125,192.2 C324.275,198.5 322.35,205.65 322.35,213.65 C322.35,221.65 324.275,228.8 328.125,235.1 C331.975,241.4 337.325,246.325 344.175,249.875 C351.025,253.425 358.75,255.2 367.35,255.2 Z M456,255.2 C470.6,255.2 481.7,250.85 489.3,242.15 L489.3,242.15 L476.85,228.65 C474.05,231.35 471.025,233.325 467.775,234.575 C464.525,235.825 460.8,236.45 456.6,236.45 C450.5,236.45 445.4,235 441.3,232.1 C437.2,229.2 434.6,225.25 433.5,220.25 L433.5,220.25 L494.55,220.25 C494.85,216.35 495,214.25 495,213.95 C495,205.55 493.175,198.175 489.525,191.825 C485.875,185.475 480.85,180.6 474.45,177.2 C468.05,173.8 460.9,172.1 453,172.1 C444.9,172.1 437.575,173.875 431.025,177.425 C424.475,180.975 419.325,185.925 415.575,192.275 C411.825,198.625 409.95,205.75 409.95,213.65 C409.95,221.65 411.85,228.8 415.65,235.1 C419.45,241.4 424.85,246.325 431.85,249.875 C438.85,253.425 446.9,255.2 456,255.2 Z M472.95,206.6 L433.2,206.6 C434,201.4 436.2,197.3 439.8,194.3 C443.4,191.3 447.85,189.8 453.15,189.8 C458.35,189.8 462.75,191.325 466.35,194.375 C469.95,197.425 472.15,201.5 472.95,206.6 L472.95,206.6 Z M534,254 L534,214.1 C534,206.9 535.75,201.475 539.25,197.825 C542.75,194.175 547.45,192.35 553.35,192.35 C558.65,192.35 562.7,193.925 565.5,197.075 C568.3,200.225 569.7,205 569.7,211.4 L569.7,211.4 L569.7,254 L593.1,254 L593.1,207.8 C593.1,196 590.025,187.1 583.875,181.1 C577.725,175.1 569.65,172.1 559.65,172.1 C554.45,172.1 549.65,172.925 545.25,174.575 C540.85,176.225 537.1,178.6 534,181.7 L534,181.7 L534,142.7 L510.6,142.7 L510.6,254 L534,254 Z M653.55,255.2 C662.05,255.2 669.65,253.425 676.35,249.875 C683.05,246.325 688.3,241.4 692.1,235.1 C695.9,228.8 697.8,221.65 697.8,213.65 C697.8,205.65 695.9,198.5 692.1,192.2 C688.3,185.9 683.05,180.975 676.35,177.425 C669.65,173.875 662.05,172.1 653.55,172.1 C645.05,172.1 637.425,173.875 630.675,177.425 C623.925,180.975 618.65,185.9 614.85,192.2 C611.05,198.5 609.15,205.65 609.15,213.65 C609.15,221.65 611.05,228.8 614.85,235.1 C618.65,241.4 623.925,246.325 630.675,249.875 C637.425,253.425 645.05,255.2 653.55,255.2 Z M653.55,236 C647.55,236 642.6,233.975 638.7,229.925 C634.8,225.875 632.85,220.45 632.85,213.65 C632.85,206.85 634.8,201.425 638.7,197.375 C642.6,193.325 647.55,191.3 653.55,191.3 C659.55,191.3 664.475,193.325 668.325,197.375 C672.175,201.425 674.1,206.85 674.1,213.65 C674.1,220.45 672.175,225.875 668.325,229.925 C664.475,233.975 659.55,236 653.55,236 Z M736.8,254 L736.8,142.7 L713.4,142.7 L713.4,254 L736.8,254 Z M793.2,255.2 C804.2,255.2 812.6,251.7 818.4,244.7 L818.4,244.7 L818.4,254 L840.75,254 L840.75,142.7 L817.35,142.7 L817.35,181.85 C811.55,175.35 803.5,172.1 793.2,172.1 C785.6,172.1 778.725,173.8 772.575,177.2 C766.425,180.6 761.6,185.45 758.1,191.75 C754.6,198.05 752.85,205.35 752.85,213.65 C752.85,221.95 754.6,229.25 758.1,235.55 C761.6,241.85 766.425,246.7 772.575,250.1 C778.725,253.5 785.6,255.2 793.2,255.2 Z M797.25,236 C791.25,236 786.3,233.975 782.4,229.925 C778.5,225.875 776.55,220.45 776.55,213.65 C776.55,206.85 778.5,201.425 782.4,197.375 C786.3,193.325 791.25,191.3 797.25,191.3 C803.15,191.3 808.05,193.325 811.95,197.375 C815.85,201.425 817.8,206.85 817.8,213.65 C817.8,220.45 815.85,225.875 811.95,229.925 C808.05,233.975 803.15,236 797.25,236 Z M902.4,255.2 C917,255.2 928.1,250.85 935.7,242.15 L935.7,242.15 L923.25,228.65 C920.45,231.35 917.425,233.325 914.175,234.575 C910.925,235.825 907.2,236.45 903,236.45 C896.9,236.45 891.8,235 887.7,232.1 C883.6,229.2 881,225.25 879.9,220.25 L879.9,220.25 L940.95,220.25 C941.25,216.35 941.4,214.25 941.4,213.95 C941.4,205.55 939.575,198.175 935.925,191.825 C932.275,185.475 927.25,180.6 920.85,177.2 C914.45,173.8 907.3,172.1 899.4,172.1 C891.3,172.1 883.975,173.875 877.425,177.425 C870.875,180.975 865.725,185.925 861.975,192.275 C858.225,198.625 856.35,205.75 856.35,213.65 C856.35,221.65 858.25,228.8 862.05,235.1 C865.85,241.4 871.25,246.325 878.25,249.875 C885.25,253.425 893.3,255.2 902.4,255.2 Z M919.35,206.6 L879.6,206.6 C880.4,201.4 882.6,197.3 886.2,194.3 C889.8,191.3 894.25,189.8 899.55,189.8 C904.75,189.8 909.15,191.325 912.75,194.375 C916.35,197.425 918.55,201.5 919.35,206.6 L919.35,206.6 Z M980.4,254 L980.4,215.9 C980.4,208.4 982.3,202.775 986.1,199.025 C989.9,195.275 995.15,193.4 1001.85,193.4 C1002.75,193.4 1004.5,193.5 1007.1,193.7 L1007.1,193.7 L1007.1,172.1 C1000.9,172.1 995.425,173.1 990.675,175.1 C985.925,177.1 982.15,180.05 979.35,183.95 L979.35,183.95 L979.35,173.3 L957,173.3 L957,254 L980.4,254 Z M150.15,437 C163.85,437 174.275,434.525 181.425,429.575 C188.575,424.625 192.15,417.55 192.15,408.35 C192.15,401.85 190.45,396.375 187.05,391.925 C183.65,387.475 178.95,384.3 172.95,382.4 C177.35,380.1 180.775,376.95 183.225,372.95 C185.675,368.95 186.9,364.4 186.9,359.3 C186.9,350.9 183.475,344.25 176.625,339.35 C169.775,334.45 159.95,332 147.15,332 L147.15,332 L95.85,332 L95.85,437 L150.15,437 Z M144.15,375.05 L120,375.05 L120,350.3 L144.15,350.3 C150.15,350.3 154.7,351.325 157.8,353.375 C160.9,355.425 162.45,358.5 162.45,362.6 C162.45,366.7 160.9,369.8 157.8,371.9 C154.7,374 150.15,375.05 144.15,375.05 L144.15,375.05 Z M148.35,418.7 L120,418.7 L120,392.75 L148.35,392.75 C161.25,392.75 167.7,397.1 167.7,405.8 C167.7,410.2 166.075,413.45 162.825,415.55 C159.575,417.65 154.75,418.7 148.35,418.7 L148.35,418.7 Z M232.35,437 L232.35,398.9 C232.35,391.4 234.25,385.775 238.05,382.025 C241.85,378.275 247.1,376.4 253.8,376.4 C254.7,376.4 256.45,376.5 259.05,376.7 L259.05,376.7 L259.05,355.1 C252.85,355.1 247.375,356.1 242.625,358.1 C237.875,360.1 234.1,363.05 231.3,366.95 L231.3,366.95 L231.3,356.3 L208.95,356.3 L208.95,437 L232.35,437 Z M297.45,438.2 C309.45,438.2 317.65,434.45 322.05,426.95 L322.05,426.95 L322.05,437 L343.95,437 L343.95,390.95 C343.95,378.95 340.6,369.975 333.9,364.025 C327.2,358.075 317.6,355.1 305.1,355.1 C298.6,355.1 292.275,355.95 286.125,357.65 C279.975,359.35 274.7,361.75 270.3,364.85 L270.3,364.85 L278.7,381.2 C281.6,378.9 285.125,377.075 289.275,375.725 C293.425,374.375 297.65,373.7 301.95,373.7 C308.15,373.7 312.8,375.075 315.9,377.825 C319,380.575 320.55,384.5 320.55,389.6 L320.55,389.6 L301.95,389.6 C290.15,389.6 281.425,391.75 275.775,396.05 C270.125,400.35 267.3,406.25 267.3,413.75 C267.3,418.45 268.5,422.65 270.9,426.35 C273.3,430.05 276.775,432.95 281.325,435.05 C285.875,437.15 291.25,438.2 297.45,438.2 Z M303.3,422.45 C299.2,422.45 295.975,421.575 293.625,419.825 C291.275,418.075 290.1,415.7 290.1,412.7 C290.1,406.4 294.9,403.25 304.5,403.25 L304.5,403.25 L320.55,403.25 L320.55,411.5 C319.25,415.1 317.05,417.825 313.95,419.675 C310.85,421.525 307.3,422.45 303.3,422.45 Z M388.5,437 L388.5,397.1 C388.5,389.9 390.25,384.475 393.75,380.825 C397.25,377.175 401.95,375.35 407.85,375.35 C413.15,375.35 417.2,376.925 420,380.075 C422.8,383.225 424.2,388 424.2,394.4 L424.2,394.4 L424.2,437 L447.6,437 L447.6,390.8 C447.6,379 444.525,370.1 438.375,364.1 C432.225,358.1 424.15,355.1 414.15,355.1 C408.65,355.1 403.6,356.025 399,357.875 C394.4,359.725 390.55,362.35 387.45,365.75 L387.45,365.75 L387.45,356.3 L365.1,356.3 L365.1,437 L388.5,437 Z M504.3,438.2 C515.3,438.2 523.7,434.7 529.5,427.7 L529.5,427.7 L529.5,437 L551.85,437 L551.85,325.7 L528.45,325.7 L528.45,364.85 C522.65,358.35 514.6,355.1 504.3,355.1 C496.7,355.1 489.825,356.8 483.675,360.2 C477.525,363.6 472.7,368.45 469.2,374.75 C465.7,381.05 463.95,388.35 463.95,396.65 C463.95,404.95 465.7,412.25 469.2,418.55 C472.7,424.85 477.525,429.7 483.675,433.1 C489.825,436.5 496.7,438.2 504.3,438.2 Z M508.35,419 C502.35,419 497.4,416.975 493.5,412.925 C489.6,408.875 487.65,403.45 487.65,396.65 C487.65,389.85 489.6,384.425 493.5,380.375 C497.4,376.325 502.35,374.3 508.35,374.3 C514.25,374.3 519.15,376.325 523.05,380.375 C526.95,384.425 528.9,389.85 528.9,396.65 C528.9,403.45 526.95,408.875 523.05,412.925 C519.15,416.975 514.25,419 508.35,419 Z M694.5,437 L694.5,417.2 L641.85,417.2 L641.85,332 L617.55,332 L617.55,437 L694.5,437 Z M744.3,438.2 C752.8,438.2 760.4,436.425 767.1,432.875 C773.8,429.325 779.05,424.4 782.85,418.1 C786.65,411.8 788.55,404.65 788.55,396.65 C788.55,388.65 786.65,381.5 782.85,375.2 C779.05,368.9 773.8,363.975 767.1,360.425 C760.4,356.875 752.8,355.1 744.3,355.1 C735.8,355.1 728.175,356.875 721.425,360.425 C714.675,363.975 709.4,368.9 705.6,375.2 C701.8,381.5 699.9,388.65 699.9,396.65 C699.9,404.65 701.8,411.8 705.6,418.1 C709.4,424.4 714.675,429.325 721.425,432.875 C728.175,436.425 735.8,438.2 744.3,438.2 Z M744.3,419 C738.3,419 733.35,416.975 729.45,412.925 C725.55,408.875 723.6,403.45 723.6,396.65 C723.6,389.85 725.55,384.425 729.45,380.375 C733.35,376.325 738.3,374.3 744.3,374.3 C750.3,374.3 755.225,376.325 759.075,380.375 C762.925,384.425 764.85,389.85 764.85,396.65 C764.85,403.45 762.925,408.875 759.075,412.925 C755.225,416.975 750.3,419 744.3,419 Z M842.1,467.3 C856.9,467.3 868.15,463.7 875.85,456.5 C883.55,449.3 887.4,438.3 887.4,423.5 L887.4,423.5 L887.4,356.3 L865.2,356.3 L865.2,366.65 C859.1,358.95 850.2,355.1 838.5,355.1 C831.1,355.1 824.325,356.725 818.175,359.975 C812.025,363.225 807.15,367.8 803.55,373.7 C799.95,379.6 798.15,386.4 798.15,394.1 C798.15,401.8 799.95,408.6 803.55,414.5 C807.15,420.4 812.025,424.975 818.175,428.225 C824.325,431.475 831.1,433.1 838.5,433.1 C849.4,433.1 857.9,429.75 864,423.05 L864,423.05 L864,426.5 C864,433.9 862.075,439.425 858.225,443.075 C854.375,446.725 848.4,448.55 840.3,448.55 C835.1,448.55 829.9,447.725 824.7,446.075 C819.5,444.425 815.2,442.2 811.8,439.4 L811.8,439.4 L802.5,456.2 C807.1,459.8 812.9,462.55 819.9,464.45 C826.9,466.35 834.3,467.3 842.1,467.3 Z M843.15,413.9 C836.95,413.9 831.85,412.075 827.85,408.425 C823.85,404.775 821.85,400 821.85,394.1 C821.85,388.2 823.85,383.425 827.85,379.775 C831.85,376.125 836.95,374.3 843.15,374.3 C849.35,374.3 854.425,376.125 858.375,379.775 C862.325,383.425 864.3,388.2 864.3,394.1 C864.3,400 862.325,404.775 858.375,408.425 C854.425,412.075 849.35,413.9 843.15,413.9 Z M947.55,438.2 C956.05,438.2 963.65,436.425 970.35,432.875 C977.05,429.325 982.3,424.4 986.1,418.1 C989.9,411.8 991.8,404.65 991.8,396.65 C991.8,388.65 989.9,381.5 986.1,375.2 C982.3,368.9 977.05,363.975 970.35,360.425 C963.65,356.875 956.05,355.1 947.55,355.1 C939.05,355.1 931.425,356.875 924.675,360.425 C917.925,363.975 912.65,368.9 908.85,375.2 C905.05,381.5 903.15,388.65 903.15,396.65 C903.15,404.65 905.05,411.8 908.85,418.1 C912.65,424.4 917.925,429.325 924.675,432.875 C931.425,436.425 939.05,438.2 947.55,438.2 Z M947.55,419 C941.55,419 936.6,416.975 932.7,412.925 C928.8,408.875 926.85,403.45 926.85,396.65 C926.85,389.85 928.8,384.425 932.7,380.375 C936.6,376.325 941.55,374.3 947.55,374.3 C953.55,374.3 958.475,376.325 962.325,380.375 C966.175,384.425 968.1,389.85 968.1,396.65 C968.1,403.45 966.175,408.875 962.325,412.925 C958.475,416.975 953.55,419 947.55,419 Z" id="PlaceholderBrandLogo" fill="#FFFFFF" fill-rule="nonzero"></path>
            </g>
        </g>
    </g>
</svg>