<svg enable-background="new 0 0 7680 4320" version="1.1" viewBox="0 0 7680 4320" xml:space="preserve" xmlns="http://www.w3.org/2000/svg">
<style type="text/css">
	.st0{fill:#00B3F0;}
</style>
			<path class="st0" d="m2294.4 2255.6c12.4-21.7 7.4-36.7-11.4-54.5-33.2-31.4-45-74.5-52.3-118.8-0.6-5-1.3-10-1.9-15 0-9.1-0.2-18.3-0.3-27.5l2.3-15c5-33.7 14.4-65.9 35.8-93.3 18.1-23.3 43.2-40.1 71.6-48.1 5.7-1.7 13.7 0 16-8.4h47.1c26 7.8 52.6 13.7 76 28.4 120.8 75.7 124.5 218.4 7.8 301-19.6 13.9-19.6 13.9-3.9 30.7 3.9 4.3 7.6 9 11.8 13 20.3 18.8 37.5 37.9 69.4 43.4 53.1 9.2 104.4 28.3 156.6 43.2 13.3 3.7 24.7 12.5 31.7 24.4 49.4 76.9 83.6 161.1 119.4 244.6 5.4 12.5-1 18.5-9.7 23.9-6.4 3.9-9.6 6.8-5.5 15.1 15 30.1 22.4 62.8 27.7 95.7 1.2 7.8 2.6 11.6 12.5 12.7 33.2 3.6 54.6 31.8 50.5 64.8-4.5 35.8-20.1 64.7-53.4 81.8-10.9 6.4-24.3 7.2-35.9 2.2-3.6-1.7-7.1-3.9-6.6-8.7s4.8-5.3 8.7-6c45.6-7.3 77.3-56.4 64.3-99.5-1.9-6.4-27.7-20.2-33-17.3-6.3 3.5-3.7 9.1-1.6 13.7 5.6 11.9 8.2 25 7.4 38.1-0.3 6.5-2 12.3-9.7 12.1-7.6-0.2-9.7-6.2-9.3-12.6 3.3-55.4-19.6-105.4-31.9-157.7-3.1-13.7-7.8-19.6-21.7-7.8-16.6 14.8-36.5 25.4-58 30.8 57.6 86.9 71.3 207 28.5 255-5.1-14.1-3.1-27.5-1.6-40.8 4.5-41.9 5.3-83.6-6-124.6-3.2-12-7.4-23.7-12.6-35-16.7-35.5-26.4-41.6-65.7-37.1-209.3 23.9-419.2 15.3-629 12.8-49.2-0.5-98.4-2-146.5 10.9-13.3 3.4-26.2 8-38.6 13.8-44.6 21.2-57.7 46.9-52.5 96 4.5 41 14.7 81.1 30.4 119.2 2.4 5.9 8.6 14.4-1.3 18.6-8.5 3.6-12.7-4.7-16.4-10.7-16.6-27.2-24.1-57.7-31-88.3-3.7-33.6-11.8-67.2 0-100.7 27.5-48.3 73.5-65.5 124.1-74.5 17.8-3.2 36.1-3.5 54.3-5.2 2.6 0.3 4.8 0 4.7-3.4-0.6-10.4-1.3-20.8-2-31.4l-0.8-8.6-2.1-46.2 0.9-51c3-18.1 4-36.6 3-54.9l0.5-7.8c9.2-13.6 10.9-29.9 15.7-45 2.5-7.8-0.4-6 3.5-13.8 3.3-5.7 7.2-10.9 11.8-15.7 55.9-30.6 90.7-52.8 146.7-83.1 23.5-12.7 47.1-24.8 73.1-31.9 3.9 2.4 10-1.1 13.9 3.9-6 5.1-12.4 9.8-19 14-63.8 34.3-125.2 73.2-190.5 104.9-4.8 2.3-9.7 4.3-11.8 9.8-10.2 28.2-22.1 56-25.2 86.3-5.3 50.8-3.7 101.8-4.8 152.7-0.5 24.1 0.7 25 25 24.5 39.9-0.9 79.7-2.1 119.5-2.2 157.4-0.5 314.9 3.9 472.1-7.5 64.1-4.6 125.2-18 180.5-52.3 32-19.9 32.1-20.8 16.8-55.2-32-72.2-59.8-146.4-102.4-213.5-6-10.1-15.8-17.5-27.2-20.5-43.2-12.4-86.3-25.5-129.5-38.6-15.5-4.8-32.2-4-47.1 2.4-72.5 27.5-145.7 35.8-218.1-0.9-8.1-3.9-21-0.5-23.8-13.7 9.4-12 4.8-27.3 10-40.1zm169.5-37.8c-44.9 19.6-90.2 35.3-139.3 14.4-6.5-2.7-9.3 0.4-9.7 7.3-1.2 18.3-7.8 35.3-14.4 50.5 71.4 32.8 142.9 28.9 218.3 4.2-19.6-14.7-35.6-28.6-48.1-46.1-5.3-7.3-12.1-14.3-6.9-24.6 2.1-0.6 4.9-0.9 3.9-3.9 0.1-0.9-2.3-1.2-3.8-1.8zm-212.6-167.5c-0.5 29.3 4.9 58.3 15.7 85.5 23.9 62.2 73.5 95.7 128.5 86.3 37-6.1 71.5-22.4 99.7-47.1 76.1-66.2 72.7-176.6-7-238.3-29-3-47.7-27.5-74.8-35.3-64.1-18.4-123.7 9.9-148.3 71.9-9.8 24.4-14.6 50.7-13.8 77z"/>
			<path class="st0" d="m2005.1 2490.1-0.4 7.8"/>
			<path class="st0" d="m5923.4 3168.7c0.5 2.6 1.1 5.3 1.6 7.8-2.1 20.9-2 41.9 0.4 62.8-3.9 39.7-1.6 79.6-2.7 119.4-0.4 16.9 12.4 10.2 19.6 9.2 42.6-5.9 85.3-12.6 127.8-19.4 194.7-31.4 388.9-65.5 581.2-109.4 148.4-33.9 296.2-70.2 439.8-121.6 39.2-14.1 78.2-29.7 114.4-51 12-6.8 23.1-14.9 33.2-24.2 25.4-24.3 26.2-45.4 1.8-71-34.3-35.9-78.5-56.4-123.2-74.5-110.6-45-226.4-71.9-342.6-97.5-33.1-7.3-66.3-13.9-99.4-21.2-6-1.3-13.2-0.7-18.4-7.5 10.9-5.7 21 0 30.4 2 130.6 26.7 261.4 52.9 387.8 96.3 58.9 20.2 116.4 43.2 164.3 85.1 41.2 36.1 41.6 71.4-1.1 106.2-31.8 25.9-68.9 42.7-106.5 57.8-153 60.9-312.2 100.1-472.1 136.7-237.6 54.3-477.7 95.4-718.8 130.2-14.5 2.1-19.6 7.8-19.2 22.7 0.7 24.2-0.9 48.4-1.5 72.5 0.3 12.4-2.4 24.8-7.8 36-3.9 7.8-6.6 17.2-1.2 26.1 2.7 4.4 7.8 9.3 2 13.6-4.8 3.7-9.9-1.3-14.3-3.6-31.4-16.3-62.6-32.8-93.7-49.4-40.9-21.9-82.1-43.4-122.4-66.3-13.5-8-29.4-10.9-44.9-8.2-26.4 4.1-52.9 8.2-79.5 11-11 1.1-14.6 5.2-14.4 15.7 0.5 22.9 0.3 45.8 0.2 68.7 0 16.3-0.3 32.2-7.3 47.9-3.9 9.4-6.7 21.3 2 31.4 2.7 3.2 5.6 8.4 0.6 12-3.7 2.7-7.5-0.5-10.7-2.6-24.7-16-49.4-32-73.9-48.3-41.9-27.8-83.9-55.6-125.6-83.8-7.9-5.7-17.8-8.1-27.5-6.5-134.1 17.1-268.2 34.4-402.4 50.4-121.3 14.5-242.7 27.8-364.1 41-88.3 9.6-176.6 18.3-265.1 26.9-10.6 1-13.5 3.4-10.1 14.1 10.4 33 20.4 66.2 29.7 99.5 5.7 20.7 25.5 16.6 38.8 23.1 18.2 9 40.5 6.7 60.5 20.5-31.9 0-60.4-9.5-90.9-11.5 5.2 18.8 11.8 35.3 13.6 54.4-18.5-11.3-20.7-29.9-26.4-46.2-2.3-8.9-10-15.4-19.1-16.3-150.3-27.9-299.4-61.2-449-92.4-13.4-3.1-27.3-2.7-40.5 1.1-20.4 5.7-41.2 10.3-62.1 13.9 32.8-13.7 64.3-30.3 98.1-42.4 59.6-21.5 117.7-46.5 176.8-70 64.9-25.9 128.5-55.4 194.8-77.7 8.6-3.2 17.4-5.7 26.4-7.4 9.1-1.4 20.2-2 8.5 12.2-4.9 5.9 0 11.2 1.6 16.5 8.3 25.5 17.6 50.7 25.1 76.4 3.2 11.1 8.3 14.6 19.3 13.4 70.2-7.3 140.4-13.9 210.6-21.3 101.3-10.8 202.6-22 303.9-33.5 114.8-13.2 229.6-27 344.4-40.8 48-5.8 95.9-11.8 143.9-18 6.3-0.8 13.2 0.4 20-6.4-27.5-19-54.5-38.3-82.4-56.1-10-6.4-14.3-12.8-14.6-24.8-3.5-163.4 1.2-326.9-5.3-490.5-1-24.3 0.6-25.3 23.8-17.8 63.4 20.6 126.1 43.2 189.2 64.9 21.9 7.5 32.8 20.4 42.8 37.7 33.4 57.8 62.5 117.7 90.6 178.2 9.3 20 7.4 40.8 7.8 61.3 2 66.7 2.9 133.4 3.5 200.1 0 13.2 1.9 18.7 17.3 15.4 21.6-4.5 43.9-6.1 67.8-13.7-17.1-9.5-33.8-20-51.6-28.1-11.5-5.2-14.4-11.8-14.6-24.1-3.1-159.5 1.1-319.1-6.1-478.5-0.7-15.3 3.6-20.3 19.1-15.7 68.1 21 135.4 44.7 203.5 65.3 30.6 9.3 44.6 28.3 58.1 51.9 32.4 56.7 63.4 114.3 88.4 174.7-13.1-0.6-16.2-12.2-20.9-20.7-28.8-52.4-56.7-105.3-85.4-157.7-3.9-6.8-4.4-16.8-14.8-18.5 0-2.8-0.9-3.2-3.1-1.6l2.9 1.7c6.8 46.9 2.9 93.7-2.7 140.2-1.3 11.1 0.5 16.3 11.4 20.2 25.2 8.9 50.1 18.6 74.5 29.1 13.4 5.6 28.2 8.8 36.1 22.5zm-496.2-198.2c-0.5-3.9-2.4-9.5-5.3-8.6-5.7 1.6-1.6 6.9-1.2 10.7-1.7 46.1 2.9 92.6-4.6 138.5-1.5 9.5 5.6 10.4 11.3 12.9 26.2 11.8 52.4 23.5 78.5 34.7 7.8 3.4 13.9 12.1 26.1 8.4-23-38.7-42.5-78.5-62.4-117.7-13.3-26.7-25.1-54.3-42.4-78.9zm89 601.4c0.8-2.1 1.4-4.4 1.8-6.6-2.4-120.1 6.6-240.2 4.4-360.3 0-11.1-4.3-15.7-14-20-30-12.9-59.4-27.1-89.1-40.6-14.7-6.7-22.9-18.8-22.6-33.9 0.9-49.6 2.6-99.2 5.8-148.7 0.6-9.4 0-11.5-8.6-14.4-56.8-19.6-113.4-39.8-169.9-60-20.8-7.5-20.5-7.8-20.4 14.4 0.7 150.2 3.9 300.5 0.7 450.7-0.3 13.1 3.9 19.6 14.6 26.4 60.2 37.9 120.1 76.2 179.7 115 39.4 25.3 78 51.5 117.6 78zm60.2-451.8h0.5c0 73.8 0.3 147.7-0.3 221.6 0 10.8 3.3 16.3 12.8 21.1 97.4 49.2 194.7 98.6 289.6 152.4 11.2 6.3 15.4 6.6 15.7-8.4 0.4-51.4 1.7-102.6 6.8-154 5.3-53.2 3.5-107 5.4-160.6 0.4-10.4-3.4-14.7-12.8-18.3-30-11.3-59.4-23.8-89.2-35.7-14.9-5.9-24.5-16.7-23.9-32.5 2-47.6 4.8-95.3 9-142.7 0.8-8.6 0.6-10.4-7.3-12.9-62.8-20.3-125.6-40.8-187.9-62.2-13.9-4.7-18.8-5.1-18.6 12.6 1 73.2 0.4 146.4 0.4 219.6h-0.2zm-1747.2 502c30.2 5.7 55.2 9.9 80.2 15.1 114.4 23.9 228.7 47.9 343.1 72.1 11.8 2.5 22.8 5.9 16.6-14.2-21.1-68.7-41.6-137.5-61.6-206.5-3.6-12.6-7.8-14.8-20-9.4-45.4 20.1-91.3 39.2-137.1 58.4-71.1 30-142.9 57.4-221.2 84.5zm1588-667c-1-0.3-2.2-1.1-3-0.9-1.8 0.6-1.6 1.7 0 2.5 0.5 0.2 1.5 0.8 1.6 0.7 0.6-0.8 1.1-1.6 1.5-2.5v0.2z"/>
			<path class="st0" d="m6045.9 2501.3c8.9-7.5 12.8-15.9 10.2-27.8-1.5-7.7-1.3-15.7 0.6-23.3 1.9-8.7 9.7-12.8 15.9-5.7 16.9 19.2 15.7-3.5 17.6-8.5 2.8-8.2 0.5-18.1 1.6-27.2 0.8-6.2 5.6-16.8 11.4-8.4 11.5 16.8 13.3 1.3 17.7-3.5 7.4-7.8 4.4-18.6 5.5-28.2 0.7-6.5 2-15.3 11.1-10.7 6 3.1 9 6.4 13.1-1.2 5.3-10-3.6-13.9-7.8-19.6-3.9-5.1-8.8-5.1-13.2-0.2s-9.6 10.7-14 16.4c-17.5 22.8-34.6 45.9-52.5 68.5-4.8 6-9 18.9-18.1 13.4-11.3-6.9-1-16.2 3.9-23.2 19.3-28.7 39.2-56.9 61.2-84 3.9-4.7 0.8 0.9 4.7-6.9 2.1-4.2 4.8-8.2 7.8-11.8 2.4-2.8 5-5.5 7.8-7.8 3.5-3.2-0.8 0 3.9-3 33.7-21 49.6-59.9 40.6-100.8-8.6-39.2-45.7-51.7-76.6-25.9-52.3 43.5-106.4 84.5-162.4 123.2-4.8 3.4-9.8 6.6-14.9 9.5-3.9 2.1-8.4 6-12.3 1.5-4.6-5.3 0-9.8 3.5-13.5 4.3-4.9 9.2-9.3 14.5-13.1 54.3-36.4 102.6-81.2 158.9-114.7 7.8-4.7 10.9-8.9 3-16-0.9-0.9-1.7-2-2.6-2.9-20.7-21.7-28.5-60.5-54.1-69-29.5-9.7-51.5-29-78.5-41-6.8-3-20.4-7-15.7-15.7s15.1 0.5 22.2 3.9c23.9 11.8 46.3 26.3 67 43.2 6.9-5.6-3.7-16.9 6.4-18.6 7.8-1.3 11 7.8 14.9 13.8 14 20.7 27.7 41.6 44.1 66.3 7.8-26.8-2.8-46.1-6.9-65.6-1.2-6-14.5 0-21.1-7.8-11.8-14-26-25.8-38.6-39-14.9-15.7-12.6-32.8 6.1-44.1s39.2-12.9 62-13.2c-6.4-10.5-18.4-12.2-23.5-21.3-2.6-4.6-6.5-3.1-10-0.6-24.6 17.4-52.8 24.6-83.7 27.1 3.1 9.7 11.1 12.6 15.9 18.2 3.1 3.7 8.8 6.4 3.9 13-4.1 5.7-9 4.8-13.9 2.7-16.1-7.1-31.4-16.1-48.6-20.8-2.3-1.1-4.2-3-5.2-5.4-4.4-8.9 2.6-44.3 9.8-51.3 28.6-27.5 96.5-33.8 125.9-7.8 21 18.8 44.3 35 63.4 55.9 8.6 9.4 15.7 14 27.5 4.2 10.9-9.1 20.4-5.7 26.6 7.3 5.4 11.3 11.3 22.3 26 23.9 4.2 0.1 7.6 3.6 7.6 7.8 0 6.1-5.5 6.5-9.9 7.3-7.8 1.5-15.7 2.5-23.1 4.2-33.5 7.1-55.2 26.6-59.9 61.3-1.8 13.3-14.2 25.9-2.9 41 3.9 5.3-3.4 7.8-7.8 7-5.6-1.3-11-3.1-16.2-5.5 0 21.6 2.2 23.3 22.2 17.9 37-10 65.4 5.8 74.5 43.2s9.7 72.5-22.8 100.5c-4.9 4.2-8.3 10.2-13 14.6-14.4 13.4-7.6 21.7 5.9 29.3 4.7-4.9 2.4-10.4 2.9-15.2s0.7-10.9 6-13.7c6.2-3.3 8.5 2.2 12.5 5.6 15.7 13.5 16.4 13.4 3.5 32.8-5.3 8.1-6.6 14 0.4 22.4 86.1 103.8 159.6 216.9 237.8 326.4 15.2 22 32.3 42.8 51 62 11.8 11.8 21.1 10.6 29.8-3.6 18.7-30.8 31.8-64.4 48-96.5 10-19.9 20.6-39.4 29.9-59.6 5.1-10.9 12.4-13.3 23.5-12.1 7.8 0.9 11.3 2.1 6.5 10.3-30.9 53.2-54.9 109.9-83.9 164.1-8.4 15.7-19.9 28.5-43.2 31 12.2 7.5 21.1 5.7 29.8 3.6 18.4-4.3 36.8-9 55.2-13.7 11.8-3 24.1-3.9 26.8-20.5 1.2-7 11.3-11.8 17.5-9.3 9.1 3.5 15.9 11.4 17.9 21 1.2 7.8-5.6 11.1-12.1 13.3-35.8 12.3-71.4 25.3-109.2 31.1-9.9 1.5-21.5 3.3-28.8-2.2-16.7-12.6-31.7-5.5-47.6-0.6-19 5.8-38.3 9.7-57.6 1.9-16.2-6.5-20.9-19.6-14.4-37 6.7-18.1 20.7-25.9 36.6-20.5 4.4 1.5 9.5 3.1 8.9 8.7-0.4 4.6-5.1 5.7-9.1 5.8-11.3 0-18.1 5.9-16.4 16.9 1.6 11 12.2 7.8 19.3 7.8 17.3 0.4 33.4-5.2 49.5-10.8 8.4-2.9 12.3-6.7 4.9-15.3-87.1-102.3-153-220-234.7-326.1-15.2-19.6-30.4-39.2-44.7-59.6-7.6-10.8-12.1-10.5-19.6 0.3-31.4 45.9-63.1 91.5-95.3 136.8-6.9 9.8-13.9 26-27 21.2-9.5-3.5-12.9-19.8-13-32 0-10.3-7.5-26.6 5.5-29.7 15.7-3.7 5.5 17.6 16.3 23.5zm107.3-491.6c-16.9-8.1-31.7-20-43.2-34.8-3.9-5-7-8.5-14.4-5.6-15.7 6.2-31.9 11.3-47.8 17.1-11.4 4.2-13.3 10.9-5.1 20.6 12.2 14.4 25.7 27.7 35.3 44.1 1.6 1.9 3.5 3.5 5.5 4.8 13.2-17.4 15.7 4.6 25.2 7.8 6.1-24.2 21.6-40.3 44.3-54h0.2zm-173.2-62.7c24.2-0.9 47.8-8.2 68.3-21.1 3.1-2 7.8-3.7 6.8-8.4s-5.4-5.3-9.1-5.6c-24.1-2.3-48.3-4.2-71.4 4.8-11.2 4.3-29.5 7.8-27.2 20.4s20.7 8.1 32.5 9.8h0.1z"/>
			<path class="st0" d="m6698.2 2409.1c22.4-31.4 42.9-61.6 65.3-90.2 9.7-12.3 12.9-28.9 27-38.1 2.9-1.4 4.1-4.8 2.7-7.6-0.8-1.6-2.2-2.7-3.9-3.1-12-4.9-23.9-14.2-36.5-12.4s-17.1-3.6-22.8-12.5c-17.2-27-24.1-58.6-40.3-86-6.6-11-9.6-23.9-20.8-32.2-7.2-5.4-10.4-15.7 0.6-18 25.3-5.8 30.6-28.2 41.9-45.6 8.9-13.8 10.8-30.5 17.8-45.4 8.7-19 22.8-35.1 40.5-46.1 12.2-7.8 26.2-14.5 26.8-32.6 0.1-5.6 4.8-10 10.4-9.9 5.8 0.3 6.8 5.3 7.3 10-0.1 5.5 4.2 10.1 9.7 10.4 36.4 5.2 71.8 17.7 109.9 7.8 15.1-3.9 31.9-1.9 47.8-5.6 6.1-1.4 16.3 0.9 20 5.5 16.3 19.8 36.1 11.5 55.2 8.9 25.4-3.5 32.5 3.9 27.8 28.9-3.2 15.4-8.6 30.2-16.2 43.9-13.6 25-16.6 54.3-8.4 81.6 4.2 15.1 7 30.5 8.4 46.1 2.2 22.6 7 43 22.6 61 12 13.9 6 31.1-11.1 40.6-8.8 4.3-18.5 6.8-28.3 7.3-29.2 3-54.3 15-77.5 32.8-11.8 9-27.5 2.7-41.2 3.3-34.6 2-69.3-3-102-14.6-12.3-4.6-20.6-1.6-28.2 9.5-19.9 29.1-41.9 56.8-60.9 86.3-10.7 16.3-22.2 22.8-43.6 16zm75.3-182c7-0.6 13.1-5.2 15.7-11.8 1.2-0.3 3.9 0.4 1.3-2.2-0.3 0.8-0.6 1.6-1 2.5-9.9-2.5-13.3 3.9-16 11.5l-3.2 0.7c0.5 0.7 0.9 1.4 1.4 2.1l1.8-2.8zm240.6 16.6c5.4-1.7 11.3-4.2 11.5-10.2 0.1-5.9-5.6-1.4-8.5-2.4 0.9-12.3 10.8-15.7 19.6-19.9 2.4 8.6-11.3 10.3-8.8 19.9 11 1 16.5-13.1 29.4-9.5-18.3 19.9-41.9 31.4-60.4 49.2 5.5 3.9 9.1 1.2 12.8 1.1 18.7-0.6 29.1-18.9 46.7-21.4 0 4.6-7.2 5.5-5.8 11.3 7.8 1.4 11.5-3.9 14.6-9.7l3.9-3.9c13.4-4.6 18-11.2 6.2-23.1-4.6-4.5-8.2-9.8-10.6-15.7-3.9-9.6-9.8-8.1-16.8-5.3-0.6-5.3-3.1-7.8-8.8-7.3-10.3 1.5-20.7 2.2-31.1 2.1-15.7-0.9-15.7 11.1-10.6 16.8 7.2 7.8 3.6 13.9 0.5 21.1 8.2-0.5 11.3-10 19-5.6l-6.1 10.2c-0.8 1.3-2.7 3.5-2.4 3.9 2.7 2.1 4.3 0.3 5.7-1.6zm3.9-244.4c1.2 9.9-18.7 11.8-8.7 26 7.8-8.4 18.2-13.6 22.5-26.5l-14.1 0.9c3.9-4.5 10.2-13.5 13.7-7.4 6.7 11.8 10.7 2.7 14.2 0 5.2-4.2 12.5-7.2 14-16.3l-38.8 4.6c-1.9 0.2-3.9 0.7-5.7 0.9-10.9 0.9-9.5 8.7-8.5 15.7 1.7 9.7 7.5 1.4 11.4 2.1zm-286 80.2c16.2-11.8 32.4-23.6 48.7-35.3 5.5-3.8 8.3-10.5 6.9-17.1-0.7-4.4-3.7-8.1-7.8-4.2-17.8 17.1-42.5 27.8-50.4 54.1l-1.5 4.4 4.1-1.9zm333.1-60.7c-20.6 7.4-31.7 27.5-50.3 37.6-7.8 4.2-14.2 10.6-11.8 21.7 1.2 6.1 4.4 7.8 9.2 6.9 11.3-2.4 28.1 4.3 32.5-9.9 5.9-19.2 15.3-36.9 20.8-56.1 1.8-0.2 3.1-1.8 2.9-3.6 0-0.2-0.1-0.5-0.2-0.7 0-0.4-1.1-0.6-1.6-0.9-0.5 1.7-1 3.4-1.5 5zm-215.1-41.3-2.4-2.2c-4.3-3.9-10-1.9-14.5-3.3-5.4-1.8-15.3 22.1-15.9-2.6-2.4 0.5-5.3 0.3-6.9 1.6-2.2 1.9-7.8 5-1.1 7.8 5.6 2.4 5.5 4.8 1.4 7.8-2.8 2.1-7.8 5.8-9.2 0-1.8-8.2-5-5.6-8.9-2.7-10.2 7.8-20.4 15.7-30.6 23.5l1.6 4.5c42.6-18 94.2-2.6 131.9-39.7-14.9 6.7-30.4 3.8-45.4 5.3zm89.7 125.5c-4.8-0.7-7.1-1.3-9.5-1.4-7-0.3-16 1.5-18-7.5-1.7-7.7 4.7-12.9 11.1-16.9 8.3-5.2 16.5-10.6 25-15.4 7.1-3.9 14.9-12.3 22.9-6.2 6.7 5.1 1.5 14.7 1.7 22.3 0.4 13-4.3 21-18.2 22.2-4.4 0.4-10 0.7-12.2 5.3-15.1 31.2-41.2 54.9-56.7 86-1.4 2.7-3.9 7.3 0.6 7.6 18.1 1.1 11.4 14.8 11.8 23.5 0.5 14.3-1.7 28.6-2.4 43-0.3 5.4-2.8 12.6 6.7 13.1 21.5 1.1 43.2 2.8 64.5 2.9 11.5 0 17.5-6.7 16.2-19.3-1.1-11-0.9-22.1-1.1-33.2-0.7-39.2-0.6-39.2 39.2-40.8 1.3-0.1 2.6-0.1 3.9 0 10.8 1 13.8-3.6 11.8-14-3.9-18-3.2-36.4-2.8-54.7 0.6-27.5 0.4-28.4-25.9-24.6-13.6 2-15.3-2.6-15-14.3 0.5-20.2-1.5-40.5-0.5-60.6 0.6-12.6-3.9-14.5-14.6-12.9-23.2 3.6-46.6 6.3-69.8 10-39.2 6.2-39.2 6.4-39.2 45.8-0.4 40.6-0.3 41.2-39.2 49.8-9.8 2.2-12.9 5.2-12.5 15.1 0.9 20.2 0.5 40.5 0.7 60.7 0 4.5-1.2 10.2 5.6 10.2 15.7 0 31.4 5.2 44.5-11.5 21.1-28.6 45.8-54.8 71.4-84.2zm-192.4 59.8c0.5 8.4 0.5 16.9 0 25.3-1.3 11.8 2.6 15.7 15 15.4 44.4-1.7 44.4-1.3 44.5-45.8 0-9.1-0.5-18.3 0.3-27.5 1.1-11.3-3.3-14.2-14.4-13.9-45.3 1.5-45.3 1.1-45.4 46.5zm113.8-64.7c-6.4-14.2-5.2-26-5.2-37.6 0-39.9 0-39.6-40.3-41.4-11.5-0.5-16.6 1.5-15.3 14.6 1.6 17.5 2.2 35.1 1.7 52.7 0 9.9 3.7 12.2 12.6 11.8 14.2-0.6 28.6-0.2 46.5-0.1zm23.5 122.5c1.2-4.2 5.9-9.5 0.4-12.5-4.2-2.2-9.4-0.6-11.8 3.6-13.4 18.4-27.2 36.7-39.6 55.8-3.9 6.4-6.9 15.7 8.4 12.8 9.7-1.6 19.5-2.1 29.2-1.4 10 0.4 14.1-3 13.7-13.3-0.7-15.1-0.3-30.1-0.3-45zm-111.6 20.6c12.8 5.8 25.3 16.8 35.3 14.8 16-3.4 6.8-22 10-33.7s-4.4-13-11.8-7.8c-11.7 7.7-22.1 17.3-33.5 26.7zm-60.1-133.1c29.2 0.5 73.9-36.1 71.7-56.6l-71.7 56.6zm361.8-130.6c-23.5 20.4-42.5 39.9-65 55.6-5.1 3.6-5.6 9.4-2.4 15.2 45.7-34.9 65.3-54.4 67.4-70.8zm-346.1 188.9c3.4-52.5-1.4-57.7-34.1-44.1 17.1 9.1 29.6 25.1 34.1 44.1zm151.9 129.5c29.6 1.7 59.9 13 91.9-4.7-33.1-3.7-62.4 2.8-92 4.6l0.1 0.1zm122.5-321.8c-26.6-16.6-39.9-14.5-51.6 5.7 16.5 1.6 31.8-3.6 51.5-5.7h0.1zm46.4 150.5v53.2c0 3.9-0.6 8.6 4.7 8.8 5.4 0.3 6.5-3.9 5.5-8-4-16.1 0.2-33.5-10.4-54h0.2zm-265.2-44.7-26.2 22.3c11.2-3.6 36.2 8.9 26.1-22.4l0.1 0.1zm60.5 129.8c-19.6 0-20.4 1.3-12.4 19.1 5.3-5.6 11.7-10.5 12.3-19.1h0.1zm-83.3 29.3 4.8-5.3c-1.3-0.8-3-2.6-3.9-2.2-2 1.2-3.9 2.7-5.6 4.4l4.7 3.1zm244.4 10.1c-0.9-0.5-2.1-1.5-2.4-1.3-0.8 0.7-1.4 1.6-1.6 2.7 0 0.4 1.4 1 2.1 1.5l1.9-2.9z"/>
			<path class="st0" d="m3988.7 1677.5c-104.4 4.9-213.1 0.9-321.7-4.2-17.6-0.9-30.3 0.5-27.1 19.2 1.2-15.4-7.8-21.3-26.3-21.8-86.3-1.8-172.5-4.4-258.7-7.8-19.3-0.8-31.4 2.6-32.8 24.2-0.3 4.7-0.5 10.7-6.3 13.7-6.9-1.5-6.3-7.5-6.8-12.2-2-19.1-7.4-36.3-5.4-57.7 6-64.8 2-130.5 2.6-195.9 0.6-78.5 1.9-157.3 2.9-236 0-3.3 0.5-6.6 0.4-9.8-1.2-24.1-1.3-23.8 23.9-17.9 139.8 33.2 279.8 65.1 419.2 99.8 56.9 14.2 114.8 24.1 171.4 39.2 9.5 2.5 19 7.3 29.6-0.4 6.3-4.6 10.6 1.6 10.7 8.6 0.2 8.5-0.2 16.9 0 25.4 0.4 100.4 0.8 200.9 1.2 301.4-0.3 28.8-0.3 28.8 23.2 32.2zm-658-142.5h-1.9c0 31.4 0.8 62.8-0.4 94.2-0.5 15.1 3.2 19.6 19.1 20 91.4 1.8 182.8 2.8 274 9.1 11.8 0.8 14.9-3 14-14.1-4.6-56.7-5.7-113.5-4.9-170.3 0-9.5-2.7-13.9-12.8-15.2-88.7-11.8-177.3-23.5-265.9-36.1-18.4-2.7-22.3 3.5-21.7 20.5 1.2 30.5 0.5 61.2 0.5 91.9zm97.3-136.2c-1.5-15-0.5-18.5 15-29.3 6.5-4.5 6.9-6 2.6-12.9-14.9-23.8-9.7-63.7 9.3-83.8 4.3-4.5 8.4-8.6 15-6.3 17.9 6.2 33.6 15.7 41.1 33.7 7.1 17 0 32-10.4 45.4-3.8 4.5-8.1 8.4-12.8 11.8-5.3 3.9-6.7 6.5-1.1 11.8 14.1 13.9 22.7 32.5 24.3 52.2 0.8 8.1 3.6 11.4 11.5 12.4 30.4 3.9 60.9 7.6 91.2 12.2 12.9 2 17.5-1.8 16.7-15.2-2.7-52.2-2.5-104.5 0.5-156.7 0.7-12.9-3.6-17.9-16.4-20.9-84.5-19.6-168.7-40.3-253.2-60.9-35.5-8.7-34.8-9-33.9 27.5 1.3 56.2 2 112.4 2 168.7 0 14.9 2.5 22.1 19.6 22.9 26 1.3 51.8 6.4 77.6 9.7 24.7 3.2 49.4 6.1 75.5 9.3-21.7-63.4-29.6-66.5-74.4-31.6h0.3zm215.4 159.7h-1c0 26.1 1.1 52.3-0.4 78.5-1 16.6 4.5 20.4 20.5 21.1 91.4 3.7 182.7 8.3 274 13.9 13.1 0.8 13.9-4.2 13.7-14.2-0.6-47.7-1.2-95.4-0.9-143.1 0-12.2-3.5-17.6-16.1-18.7-91.7-8.3-182.9-20.7-274-33.2-15.1-2.1-16.1 3.9-15.7 15.7 0.2 26.6-0.2 53.4-0.2 80.2l0.1-0.2zm305.7-153h0.4c0-22.2-0.7-44.4 0.3-66.7 0.5-12.9-3.9-18.6-16.6-20.8-92.6-16-184.4-35.7-276.1-56.6-14.3-3.3-16.6 1.3-16.2 14.2 1.3 51.6 2.3 103.2 1.9 154.7 0 14.9 6 19.1 18.9 20.7 90.9 11.8 181.8 23.8 272.7 36 11 1.5 15.4-1.3 15-13.1-0.9-22.6-0.4-45.5-0.4-68.4h0.1zm-447-90.3c0.3-14.4-20.6-38.8-34.8-37.3-15.7 1.6-14.8 17.2-17.9 28.6-1.8 5.6-2.7 11.5-2.6 17.3 0.6 11.2-3 26.1 10.8 30.6s25.2-3.9 34.1-14.4c6.1-6.9 9.7-15.6 10.3-24.8h0.1z"/>
			<path class="st0" d="m4899.7 2372.2c-12.1 15.7-3.3 25.2 8.9 35.7 29 25 56.9 51.3 87.9 76.4-18.4-37.5-32.9-74.5-3.6-113.8 8.4 8.2 2.9 14.4 1.7 20-6.1 25.2-0.4 51.8 15.7 72.2 38.7 51.6 125.1 90.2 194.3 29 10.7-9.5 15.5-18.2 13.3-33.4-5.8-42.2-12-84.1-30.6-123-10-20.9-23.1-39.2-43.5-51.6-10-6.4-22.2-8.7-33.9-6.3-18.4 3.6-20.6 10.1-8.6 24.4 16.4 19.6 16.2 40.7 5.3 62.2-10.6 20.7-26.6 33.5-51.4 32.3-13.9-0.6-26.8-7.6-35.1-18.8-14.7-18.5-13.7-47.8 1.8-71.8 12.3-19 29.2-25.4 54.3-19.6 7.1 1.6 8.8 0 13.9-6.5 12-16 26.3-31.7 48.3-35.3 52.2-8.6 103.9-19.6 155.3-32.4 2.5-0.6 5.1-1 7.8-1.6 47.4-12.4 62.8-6.8 87.9 35.5 7.8 12.9 14.9 18.6 31.4 17.9 70.2-3 70.2-2.1 124.3 43.6 4.8 3.6 8.1 8.7 9.5 14.4 4.7 26.3 9.1 52.7 13 79.1 0.9 6.2-3.1 11.4-7.5 15.4-7.8 7.1-15 15.3-24 20-38 20-43.2 51.3-33.6 89 1.3 4.8 2.6 8.2 7.5 10.1 22.8 9 39.9 27 61 38.5 15.4 8.5 13.1 20.8 13.2 33.5 0 4.9-1.6 9.5-7.3 9.9-4.1 0.4-7.8-2.6-8.2-6.8-0.1-0.7 0-1.5 0.1-2.2 2.1-17.9-10.4-23.5-23.1-29.3-18.1-8.4-30.8-25.6-51-30.7-4.9-1.2-5.8-8.6-6.5-13.6-2.6-20.7-6.3-41.4-5.6-62.4 0.2-5.8 2.1-11.4 5.7-16 6.9-9.5 15-18.1 24.2-25.5 12.5-10.4 34.7-16.4 36.3-30.6 2.7-23.3-4.6-47.7-7.8-71.6-1.2-4.5-4.2-8.3-8.3-10.5-5.3-3.9-11.8-6.8-15.7-11.8-26.5-33-63.3-27-98.7-27.2-9.8 0-8.8 5.2-6.6 11.3 10.4 27.4 17.8 55.8 21.8 84.8 9.8 76.5 18.3 153 24.7 229.8 1.1 13.3 3.9 27.5-5.4 41-11.8-11.8-10.7-27-12.2-40.3-10-89.5-17-179.5-29.4-268.7-6-43.5-31.8-80.1-61.8-112.3-5.1-6.4-13.6-9.1-21.5-6.7-60.1 22.2-122.8 33.2-185.8 42.7-1.6 0.2-2.9 1.9-6.6 4.5 74.5 36.1 88.8 105.2 99.3 175.8 7.1 50.5 9.9 101.4 8.4 152.4-0.3 14.2-1.3 28.3-14.5 45.3-1.7-18.9-3.4-32.6-3.9-46.4-1.3-26.8-1.8-53.6-2.9-80.3-0.4-11.3-4.6-12.2-12.6-4.7-66.7 62.5-147.7 34.7-195.8-10-3-2.9-9-26-18.3-2-1.6 4.2-10.8-1.2-15.7-3.9-28.8-14.8-53-35.9-76.9-57.2-72.1-64.5-140.2-133.2-209.9-200.1-4.3-4.2-12.7-9.2-7.8-15.7s11.8 0.4 16.7 3.9c12.8 9 25.1 18.8 36.6 29.5 13.7 13.4 27.3 23 46.5 11.2-4.4 36.6 19.6 60.7 51 51 4.5 3.9 5.6 10.5 2.7 15.7-1.2 2.8-3.4 7.5-2.3 8.7 11 12.4 22.8 24.1 35.3 35.1 7.7 6.4 10.9-6.6 17.7-7.3l9.5-1.1-0.4-0.3 1.5 7.5zm159.1-71.8c-18.9-0.7-31.8 16.1-32.8 42.5-0.8 21 12.5 36.6 31.8 37.2 19.9 0.5 39.2-20.6 39.8-43.4 0.4-19.2-17-35.4-38.8-36.3z"/>
			<path class="st0" d="m6038.9 992.7c-79-12-152.3-23.9-225.8-34.1-89.4-12.4-179.5-17.6-269.5-22.2-162.7-8.3-325.7-8.2-488.3-3.6-228.7 6.4-457.1 18.5-682.7 58.9-202.2 36.1-399.1 89.6-588.3 169.9-19.6 8.3-39.7 14.9-57.5 26.8-5.1 3.4-12.1 10.5-16.4 4.5s4.4-10.5 9.7-14c31.1-20.5 65-35.6 99.3-49.5 167.7-68 341-116.6 518.8-149.7 168.7-31.4 338.5-49.6 509.6-59.5 201.8-11.7 403.6-17.5 605.5-10.7 139.2 4.7 278.3 12.3 415.2 39.2 55.7 10.7 112.5 19.8 170.4 44z"/>
			<path class="st0" d="m2093.6 2167c-26.2-43.8-43.4-89-64.4-132.4-47.1-97.1-103.8-187.7-181.9-263.2-54.3-52.5-115.5-94.2-190.9-110.6-97.6-21.2-188.8 19.2-238.6 105.7-23.8 41.3-37.5 86.1-46.2 132.5-0.7 3.9-1 7.8-1.9 11.8-0.9 3.9-1.4 8.7-6.1 8.8-6.4 0-6.7-6.1-6.4-10.2 1-15.6 2.9-31.2 5.7-46.6 7.9-41.2 23.3-80.5 45.5-116.1 56-89.1 159.8-128.8 264.6-101.5 70.3 18.3 129.8 55.7 181.1 105.3 114.1 110.1 187.3 245.1 234.8 395.1 2 6 2.7 12.4 4.7 21.4z"/>
			<path class="st0" d="m4504.1 1611.7c41.6 15.3 87.7-7.8 133.8 0.8 9.3 1.8 14.1 4.6 16.7 12.8 10.5 33.5 17.9 68.2 36.1 99 6 10.1-5.2 12.9-9.7 18.4-8.2 10.1-27.5 11.1-28.6 23.9-1.1 11.8 9.3 23.9 12.4 36.5 2 11 10.1 19.9 20.8 23 3.9 1.5 8.8 5 7.1 10.3s-7.3 5-11.8 4.4c-12.9-1.6-25.4-5.8-38.6-5.7-30.4 0.4-43.8 11.5-49 41.6-0.9 5.1 0 11.8-7.3 11.8s-7.4-6.5-8.1-11.8c-2.2-16 2.4-31 14.4-40.8 17.5-14.3 2-26.6-1.6-38-3.1-10-13.3-0.5-19.6 1.3-24.8 7.1-33.4 3.6-41.5-21-15.7-47.7-31-95.5-46.1-143.5-5.7-17.6-0.9-23.5 20.6-23zm171 123.5c-19.2-32.3-32.6-67.7-39.7-104.6-1.7-8.1-4.6-8.9-11.8-7-12.2 3.2-22 6.3-11.2 21.5 3.4 5.6 6 11.6 7.8 17.9 2 5.1 2.9 10.8-3.2 13.6s-9.9-2.1-12.3-6.7c-4.8-9.3-8.6-19-13.3-28.3-6.4-12.7-17.4-6.9-25.8-4.5-11.1 3.2-2.3 10.6-0.6 15.7 3.5 10.5 8.1 20.6 12.1 31 2.2 5.6 4.8 12.2-2.8 15-6.2 2.3-9.3-3.9-11.5-8.3-6.3-12.9-11.8-26.1-16.7-39.6-6.2-18.8-20.6-10.6-31.1-9-13.9 2-4.4 12.7-2.8 18.4 10.9 38.3 22.9 76.2 34.4 114.3 2.5 8.3 3.9 13.2 15.7 7.8 36.3-17 72.5-35.2 112.8-47.2zm-42.6 82.4c3.9-4.3 19 5.8 15-7.8-3.9-12.6-1.3-31.8-18.4-35.7-5-1.1-21.9 1.8-21.9 16.5-0.1 16 10.8 27.8 25.3 27z"/>
			<path class="st0" d="m5636.5 2643.6c-13.8-41.7-13.1-81.2-15.9-120-5.6-77.5-10.5-154.9-20.2-232-1.2-9.6-5.6-9.9-12.7-9.8-15 0-30.1 0-45.1-0.4-5 0-11.8 0-12-7s5.7-7.8 11.1-8.2c3.9-0.6 7.8-0.9 11.8-0.8 30.7 2.9 57 0.2 73.6-32.7 8.9-17.5 27.8-18.8 46.1-7.1 38.6 24.5 78.5 46.4 118.8 68.3 36.3 19.8 50.4 54.7 54.9 93.7 6.5 57.8 8 116.1 4.4 174.1-0.6 10-2 20.3-12.7 30-3.9-15.8-5.8-32.1-5.8-48.3-0.9-47.1-0.9-94.2-3.1-141-1.5-31.4-14.6-58.4-24.6-86.8-1.9-5.4-8.8-4.5-13.7-5.7-47.3-11.2-90.6-35.2-125-69.4-9.1-9.1-15.7-6.4-23.5 0-20.8 16.9-32.7 57.3-25.6 83.5 10.9 39.9 13.3 81.1 16.6 122.1 4.3 54 6.7 108.2 9.6 162.3 0.5 10.5 0.9 21.7-7 35.2z"/>
			<path class="st0" d="m6309.2 1252.1c0.4 27.5 1.6 54.9-5.7 81.8-1.4 5.3-1.6 13-8.8 13.8-6.1 0.7-5.4-6.3-7.1-10.2-2.4-5.5-7.3-4.9-11.8-5.3-15.2-1.2-29.6-7.1-41.2-16.8-14.7-12.8-29.4-13.2-46.8-9.1-41.9 9.6-85.4 10.5-126.6 24.6-22 7.5-35.1-3.6-36.1-26.7-0.9-20.9-1.8-41.8-2.4-62.8-0.7-22.2 19.1-41.8 45.4-45.7 67.2-9.9 132.8-28.7 200.1-37.7 3.2-0.5 6.3-1.7 8.9-3.5 14.9-10 21.9-2.1 25.2 11.8 6.8 28.2 6.4 57.1 6.9 85.8zm-21 71.4c-0.9-51 0.5-96.7-3.9-142.3-0.9-9.8-4.2-11.8-13.6-9.5-27.8 7.1-55.7 14-83.8 19.6-43.9 8.9-86.7 23.1-131.8 26-10.8 0.7-16.6 9.8-16 21.2 1.1 21.5 2.2 43.2 3.9 64.5 0.9 12.1 7.6 16.6 18.5 10 6.6-4.1 14.1-6.8 21.8-7.8 46.5-6.4 93.1-13.2 139.6-19.6 6.3-0.9 14.2-3.9 18.4 2.4 10.9 16.1 30 19.7 46.9 35.5z"/>
			<path class="st0" d="m6708.1 2436.2c26.8 1.4 53.5 2.7 80.3 4.2 5.7 0.4 14.9 1.3 7 9.5-30.6 31.4-52.9 69.6-80.5 103.4-15.7 19.6-34.1 28.7-58.1 20.4-33.3-11.5-67.9-12.6-102.4-14.7-30.2-1.9-36.4-13.5-19-38.5 15.1-21.3 31.3-41.8 48.5-61.4 13.7-16.3 34.3-25.1 55.5-23.9 22.8 0.7 45.7 0 68.6 0v1zm41.4 41.5c-10.2 0.7-16.8 9.1-25.8 12.4-19.6 7.2-18.9 19.2-7.8 35.3 13.2-15.4 25.8-29.7 34-47.3 1.6-0.6 4.3-0.9 1.3-3.3l-1.7 2.9zm18.8-22.4c-45.4-5.7-87.8-2.4-130-5-3.9-0.2-8.9-0.8-9.7 3.9-2.4 14.9 2.8 28.8 9.9 41 6.2 10.8 17.5 6.7 26.5 3.1 33.6-13.5 67-27.7 103.3-43zm-208.5 80.6c41.3 2.3 77.4 3.9 113 10.8 8 1.5 18.1 9.2 23.5 3.1 6.6-7.1-6.6-13.6-7.1-21.9-1.3-17.3-9.2-17.8-23.9-11.8-17.2 6.9-36.6 14.1-50.3-7.8-2.1-3.3-5.5-2.7-8.6-0.9l-46.6 28.5zm57.8-87.5c-16 0.9-51.7 46.5-54.3 69.4 3.9-1.8 7.4-3.2 10.8-5.1 18.7-10.8 44.9-16 35.1-48-1.9-6.7 7.9-9.6 8.6-16.3h-0.2z"/>
			<path class="st0" d="m2774 2211.3c45.5-58.1 97.6-110.1 149.4-162.4 96.1-96.9 192.9-193.2 293-286 6.8-6.3 16.7-19.6 23.5-12.6 8.9 9.3-5.9 17.6-12.2 24.4-125.2 133.4-256.5 260.7-386 389.7-18.3 18.3-41.2 31.4-58.3 51-4.1 0.7-7.8 0.8-9.4-4.1z"/>
			<path class="st0" d="m6148.4 1387.9c-3.6 13.2-15.7 12.5-25.2 13.7-47.9 6.2-96 12.3-144.2 16-15.7 1.2-21.5 7.5-21.7 20.7-0.5 37 0 74 1.4 112.9 24.1-36.3 62.1-30.3 96-33.2 44.2-3.9 88.8-3.9 133.4-5.5 19.6-0.7 26.7-6.6 25.1-26.1-2-23.5-3.1-47.1-3.5-70.6-0.3-18.1-12-25.3-35.3-23.3-7.8 0.7-15.7 4.4-20.5-5.4 15.4-17 34.3-13.7 52.4-7.3s23.5 21.4 22.8 39.2c-0.9 26.1-1.8 52.1-2.9 78.2-0.7 18.1-11.5 29.5-30.9 31.4-58.5 5.7-117.2 9.8-176 9.8-15.7 0-28.3 3.1-37.1 16.4-8.1 12.2-24.8 16.5-28.3 33.5-1.5 7.3-11.8 5.4-16.7 3.3-5.5-2.3-1.1-8.7 1.3-11.8 8.7-10.9 7-23.1 6.9-35.3-0.4-37.9-0.7-75.8 0-113.8 0.4-24.8 6.8-28 31.7-29.5 31.4-2 62.2-7.8 93.3-11 26-2.3 51.8-7.3 78-2.3z"/>
			<path class="st0" d="m5935.4 1225.3c-4.9-3.9-4.6-9.3-4.6-14.3 0.3-39.2 1.6-78.5 1.1-117.5-0.4-21.2 14.1-31.4 28.9-36.5 86.3-29.7 174.1-55.4 262.9-77.7 10.2-2.6 14.8 0.7 14.7 11.3 0 26.6 0.5 53.3 0.2 80 0 22.4-11.6 36.2-33.9 41.4-71.2 16.6-142.3 33.6-213.8 49.3-10.8 2.4-14.9 9-19.9 16.6-10.8 16.4-16.4 37-35.6 47.4zm280.9-230.1c-46.2 13.4-91.2 26.4-136.2 39.2-32 9.1-64.3 17.5-96 27.2-16.9 5.2-37 12-38.8 31.6-3.1 31.8-0.8 64.1-0.8 96.2l4.3 2.9c12.5-40.6 46.5-46 79.7-53.7 57.2-13.2 114.2-27.5 171.2-41.2 8.2-2 18.1-3.7 17-15.2-2.8-28.4 0.3-57-0.4-87z"/>
			<path class="st0" d="m6337.6 1435.3c11.4 9.3 10.7 20.2 11.4 30.1 3.9 54.9-8.6 106.6-32.4 155.5-43.9 90.2-103.9 167.4-188.1 223.6-20.6 14.8-45 23.1-70.4 23.9 157.1-106.2 270.9-235.2 279.5-433.1z"/>
			<path class="st0" d="m1787.9 1563.9c5.4-5.4 12.4-1.4 17.7-2.7 21.5-5.3 37.2-6.4 37.3 23.2 0 4.9 10.7 11.3 19.2 3 4.6-4.5 10.7-8.7 17.5-4.4s4.6 11.5 1.6 17.5c-5.4 10.9 3.9 13.4 9.7 17.9 20.7 16.2 21.2 20.9 4.4 40.7-3.9 4.5-7.8 8.9-11.4 13.5-33.9 41.3-46.4 42.9-86.8 6.9-14-12.8-28.8-24.6-44.3-35.3-11.8-7.8-15.3-16.9-6.4-29.7 10-14.4 19.3-29.5 28.7-44.3 2.8-4.5 7.9-7.1 13.2-6.6-8.9 22 3.2 33.4 20.3 44.5 19.1 12.4 36.6 27.5 54.6 41.5 5 3.9 9.6 8.3 14.5 1.3 3.9-5.5 17.1-9 8.6-17.9-5.8-6-12.4-17.8-26.1-8.1-11.8 8.3-18.1 3.1-17-11.4 1.2-15.7-5.4-20-20-12.9-11.8 5.8-19.6 1.4-17.7-10.4 2.4-15.7-7.7-20.3-17.6-26.3zm49.8 86.9c-6.6 4.4-11.8 11.4-11.5 17.1 0.5 10 10.9 15.1 19 16.5 7 1.2 13.7-8.6 13.4-14.1-0.6-10.6-13.8-11.5-20.9-19.5zm-18.5-8.6c-2-7.7-8.4-13.5-16.3-14.8-8.3-0.9-11 9.1-11.4 15-0.5 8.9 9 13.3 15.7 14.3 8.5 1.5 7.9-9.3 12-14.5zm-32-25.7c-1.6-6.4-6.6-12.6-10-11.8-8.8 2.3-11.8 11.8-13.6 19.6-1.1 5.5 5.9 9.9 10.5 9 8.4-1.9 9.6-11 13.1-16.8z"/>
			<path class="st0" d="m5985.4 2425.3c-9.2 16.2-15.4 35.5-34.9 32.3-16.1-2.6-21.1-21.1-28-34.4-8.1-15.9-10.6-34.1-7.3-51.6 2.3-12.8-1.1-20.5-11.8-27.8-14.3-9.8-29-17.5-46.5-19-3.7-0.3-9.1 0.4-9.4-4.6-0.4-6 5.3-6.7 9.8-7.1 23.9-1.8 43.6 7.8 59.5 24.6 7.8 8.2 14.8 12.6 26.6 11.5 13.6-1.2 31.4 17.7 37.2 37.2 2.9 9.8 5.8 17.5 16 24.5 17.2 11.8 17.4 32.7 15.2 51.9-5.6 49.7-66.9 102.5-117.2 101.5-2.6 0.1-5.3 0-7.8-0.5-7.2-1.7-18.5-0.6-18-10.7 0.5-8.9 11.1-6.8 17.9-7.1 46.3-2.2 78-26.6 99-66.2 9.8-16.9 9.7-37.8-0.3-54.5zm-17.5-18.1c-2.6-18.5-5.3-36.8-22.8-47.6-8.2-5.1-15.7-5.1-14.2 7.8 1.6 15.7 2.3 31.4 9.1 45.9 3.9 8.4 7.1 22.2 18.2 19.4 9.7-2.3 7.8-16.3 9.7-25.5z"/>
			<path class="st0" d="m6181.1 2085.7c-8.7-19.3 7.6-44.3 30.5-46.8 55.2-6 102.8 42.3 96 97-4.6 37.1-20 72-44.3 100.4-5.2 5.8-11.1 10.9-17.5 15.3-7.4 5.5-13.9-1.5-19.9-3.7-7.1-2.5-1.5-8.7 0.4-13.1 15.7-37.2 8.6-69.6-21.5-99.2-6.2-6.1-21.3-12-0.4-20.5 6.4-2.6 3.9-13.1 1.1-19.6-4.9-10.5-14-12.4-24.6-10.1l0.2 0.3zm74.5 129.5c15.4-15.3 21.3-35.3 26.6-55.4 15.1-56.3-8.4-91.3-66.3-100.5-4.6-0.7-9.5-2.2-11.8 3.3s2.4 6.6 5.5 8.7c13.9 9.6 15.7 22.6 12.2 38.1-1.8 7.8-5.4 16.7 2 24.1 22.5 22.7 28.8 51.8 32.1 82-2.6-0.6-2.9 1.1-2.9 3 0 0.5 0.7 0.9 1 1.4 0.2-1.7 0.7-3.1 1.3-4.8l0.3 0.1z"/>
			<path class="st0" d="m4453.9 1706.8c-103.7-28.6-204.3-65.5-305.1-102-35.7-12.9-71.1-26.4-106.4-40.1-6.8-2.6-17.5-4.9-13.5-15.3 3.6-9.2 12.5-3.9 19-1.9 129 40.7 258.1 81.7 379.1 143.6 9.2 4.8 18 10.6 26.9 15.7z"/>
			<path class="st0" d="m4210.7 1445c26.8 9.4 63.5 13 82.8 37 12.8 15.7 19.1 21.6 38 19.2 10.4-1.3 10.4 11 7.1 17.9-10 21.2-20.8 42.1-32.5 62.3-6.8 11.8-17.1 9.8-23.5-0.2-7.8-12.7-15.7-16.8-31.2-11.4-16.6 5.8-72.2-21.5-80.7-36.8-3.5-6.3-2.5-12.6-0.9-19 5.8-23 21.1-41.9 27.8-64.5 1.4-4.3 5.2-5.6 13.1-4.5zm103.5 80.9c-5.9-3.4-11-0.7-16.1-0.4-22.2 1.1-26.1-3.3-18-23.9 3.3-8.4 0.3-10.3-6.4-12.1-7.5-2-15-4.4-22.4-6.9-43.6-14.3-43.6-14.4-60.9 28.3l-0.9 1.8c-4.4 7.3-2.4 11.6 5.7 14.6 15.7 6.4 30.6 14.8 44.3 24.8 6.3 4.4 9.8 6.2 15.1-2.3 9-14.8 17.3-14.5 28-1.3 3.9 4.9 5.5 11.8 13.4 14.8 5.7-12.7 15.6-23.3 18.2-37.4z"/>
			<path class="st0" d="m1590.3 1509c21.2 4.1 43 4.3 64.3 0.6 16.1-2.6 23.5 4.9 24.8 19.6 2 23.5-1.8 46.8-4.5 70-0.6 8.1-7 14.6-15.1 15.3-36.8 7-73.8 5.7-110.9 3.9-11 0.3-20.4-7.8-21.8-18.7-5-25.2-3.6-50.6-2.8-76 0.4-10.9 8.5-15.1 19.2-14.9 15.6 0.4 31.2 0.2 46.8 0.2zm-53.5 15.4c1.4 20.5 2.6 40.1 3.9 59.6 0.8 10.4 4.9 16.3 17.3 15.7 29.4-1.1 58.9-0.9 88.2-1.1 5.4 0 10.5 0.4 10.9-7.4 0.8-15.4 2-30.7 3.2-47.4-24.2 6.8-41.4 28.3-66.7 24.8-26.1-3.7-37.8-27.8-56.8-44.2zm22.1 2.7c32.4 35.9 38.1 35.7 92.2 0h-92.2z"/>
			<path class="st0" d="m2965.8 1823.3c5.1-7.8 4.6-15.7 6.1-23.5 2.7-14.1 11.1-18.4 21.8-8.9 17.9 16.2 33.7 34.5 47.4 54.4 8.1 11.5 0.6 19.9-10.2 21.2-16.6 2-19.8 11-21.1 25.6-1.5 17.4-48.1 59.5-64.6 60.7-9.2 0.7-16.2-4.7-22.3-10.6-14.9-14.6-29.1-29.7-43.9-44.3-6-5.9-3-10.6 0.6-15.3 17.5-21.9 36.6-42.4 57.1-61.5 10.2-9.6 19.9-4.8 29.1 2.2zm24.9-11.5c-3 11.3-4.4 18.9-7.1 25.9-4.8 12.6-14.2 17.7-23.2 5.8-10.2-13.2-14.8-6.9-21 2.3-3.3 4.8-7.1 9.3-10.9 13.9-28.9 34.3-29 34.3 3 66 1 0.9 1.9 1.8 2.7 2.8 5.3 6.9 9.7 6.3 15.4 0 11-12.1 23.7-22.6 37.7-31.2 7.8-4.9 12-8.7 3.5-17.6-10.7-11.1-3.3-19 7.5-24.1 6.3-3 14.2-1.8 21.6-7.8l-29.2-36z"/>
			<path class="st0" d="m4987.4 2233.2c-19.6 1.2-34.4-6.9-49.1-13.3-66.5-29.5-130-64-185.8-111.3-5-5.2-12.8-6.6-19.3-3.4-30.6 11.8-46.3 34.6-50 66.7-0.7 5.6 1.5 13.3-7.2 13.3-8.7 0.1-10.1-7.1-11.2-13.8-6.4-39.2 37.5-88.8 77.5-87.8 4.6-0.2 9 1.2 12.7 3.9 60.1 47.9 130.3 79.4 195.7 118.6 12.2 7.2 25.5 12.9 36.7 27.1z"/>
			<path class="st0" d="m4705 1843.8c11.8 7.3 15.3 17.9 19 28 20.5 57 40.7 114.3 61.3 171.3 2.2 6.2 2.6 11.8-1.7 16.4-5.2 5.5-9.1-1.2-13.7-2.4-25.7-6.8-51.2-8.6-75.8 4.8-4.6 2.5-9.8 9.7-14.8 1.8-3.7-5.9 0.9-11.2 5.5-15.1 15.7-13.8 35.3-17.1 54.9-15.9s18.3-5.3 12.4-19.6c-18.8-45.8-34-93-45.3-141.2-1.9-8.2-5.1-16.5-1.8-28.1z"/>
			<path class="st0" d="m4784.3 2262.5c7.1-10.8-4.4-13.7-8.5-19.6-6.4-9.2-22.5-19.9-13.7-28.4s17 9.3 24.5 16c54.9 49.1 109.6 98.6 163.9 148.5 7.8 7.1 23.5 16 16.8 24.6s-19.6-3.9-28.5-9.5c-10.4-6.6-20-14.6-30-21.9-2-4.5-6.2-7.5-11.1-8l0.4 0.3c-18.6-22.4-40.9-40.9-62.8-59.7-13-13.4-25.7-27-39.2-40-2.9-2.9-6.6-9-12.1-2.5l0.3 0.2z"/>
			<path class="st0" d="m4713.2 2001c10.1 6.1 27.5 1.6 25.1 13.5-2.6 13-17.5 3.9-27 4.2-19.6 0.9-26.5-10.6-31.2-27.5-6.8-25-9.1-51-17.6-75.6-3.9-11.2 6.6-14.9 15.1-15.1 11 0 24.7-2.3 26.8 14.8 2.3 22.6 9.7 44.5 21.4 64 9.6 14.8-2.9 16.8-12.6 21.7zm-9.2 0.3c1.3-0.7 3.9-1.1 4.3-2.4 1.6-3.6-2.2-3.9-3.9-4.3-1.7-0.3-3.4 0.3-4.6 1.5-1.7 3.5 1.7 3.8 4.2 5.2z"/>
			<path class="st0" d="m4646.3 2147.6c1.1 7.3 1.6 11-2.4 12.2s-6.2-1.9-7.6-4.7c-3.1-5.8-5.7-11.8-7.8-17.9-23.8-73.4-41.7-148.3-58-223.6-1.4-6.2-6.2-16.5 3.1-18.5 7.8-1.7 10.4 8.7 12 15.5 14.7 58.2 29 116.6 43.7 174.8 5.5 22.1 11.9 44.1 17 62.2z"/>
			<path class="st0" d="m6180.8 2085.5c11.2 20.8 7.3 36-11.8 45.7-9.5 4.8-19.3 5.2-26.8-3.1-10.5-11.8-5.3-24.3 0.8-36 4.7-9 10.8-13.8 21.9-7.4 3.9 2.4 10.6 5.2 16.3 1.1l-0.4-0.3z"/>
			<path class="st0" d="m5497 2387.1c-19.3-0.7-30-14.8-24.8-30.7 3.4-10.5 9.7-15.7 20.7-9.1 3.3 1.9 5.6 5.3 10 5.4 11.5 0 17.1 6.7 15.3 17.7-2 12.4-11.7 16-21.2 16.7zm-1.4-15.1c3.9-0.6 7.8-1.8 5.8-7.1-1.5-4.1-3.5-8.5-9.1-8-3.6 0.2-6.3 3.2-6.2 6.8 0 0.4 0.1 0.7 0.1 1.1 0.6 5.6 4.5 7.1 9.4 7.2z"/>
			<path class="st0" d="m5804.4 2956.9-2.9-1.7c2.2-1.6 3.3-1.2 3.1 1.6l-0.2 0.1z"/>
			<path class="st0" d="m6790.8 1997.1c2-1 4.2-2 6.1-3.2 0 0-0.4-2.5-1-2.7-3.6-1-5.7 0.9-7.1 3.9-1.8 0.5-3.5 1.3-2.1 3.5 1.4-0.3 2.8-0.8 4.1-1.5zm67.6-10 1.4-1.3c-0.8-0.5-1.7-0.9-2.6-1.1-0.3 0-0.9 0.7-1.3 1.1l2.5 1.3z"/>
			<path class="st0" d="m6094.4 1442c12.5 1.3 28.7-2.6 29.3 10.7 0.5 10.1-15.7 7.5-25 8.4-30.4 2.9-60.8 5.1-91.3 7.2-6.7 0.5-16.7 3.4-17.9-6-1.3-10.2 9.6-8.7 15.7-9.6 30.6-4 60.9-7.3 89.2-10.7z"/>
			<path class="st0" d="m5250.9 3085.2c2.1-11.2-1.9-28.5 11.8-32.1 14.5-3.9 26.3 8.3 34.7 20.7 3 3.5 5 7.7 6 12.2 2.7 36.8 30.2 59.4 49.4 86.7 6.4 9.1 13.3 17.8 19.6 26.9s12.6 17.7 26.5 19.6c17.4 2.6 39.2 34.1 39.2 52.2 0.5 13.5-7.6 25.9-20.2 30.8-12.2 5.3-21.3-1.1-29.4-9.6-1.5-1.2-2.8-2.8-3.6-4.6-11.3-38.8-41.8-24.1-66.9-24.1-9.1 0-12.2 4.5-11.1 13.9 0.6 6.5-0.3 13-2.4 19.2-4.2 12.3-12.7 16-24.6 9.8-20.7-10.5-36.5-44.7-31-67.2 3.9-16.1 12.4-20.9 24.5-10.3 28.8 25.4 61.1 5.3 91.5 8.5 8.7 0.9 11.8-11 5.1-19.6-19.9-25.9-40-51.6-60.1-77.4-2.6-3.3-4.4-8.8-10.3-3.5-14.9 13.5-25.1 3.1-34.3-7.8-11-12.3-14.3-27.5-14.4-44.3zm43.2 19.2c-0.6-3.1-1.1-6.2-2-9.4-3.2-11.8-11-21.9-23-20s-4.9 15-6.5 23c-0.5 3.9 0.1 7.9 1.8 11.5 3.7 8.1 6.6 19.3 18 17.5s9.3-13.9 11.7-22.6zm91.7 153.1c-0.4 12.9 9.3 26.4 18 25.7 8.9-0.2 16.1-7.4 16.3-16.3 1-9.3-17.1-30.3-25.5-28.4-10.6 2.5-3 14.8-8.8 19zm-126.2-0.9c0.4 14.4 14 34.1 22.9 33s8.7-8.6 8.9-14.8c0.4-12.2-15.4-31.4-25.3-31-8.9 0.4-5.4 8.2-6.5 12.8z"/>
			<path class="st0" d="m5798.7 3338.1c-0.7 8.7 6.1 23.5-2.2 27.9-10.4 5.6-17.3-10.8-27.1-14.6-26.5-10.3-36.7-33.3-48.6-56.4-28.9-56.3-56.5-113.3-81.4-171.5-4.2-9.8-14.8-20.3 2.3-29.7 19.9-10.9 35.1-11.1 45.9 2.3 4 5.2 7.5 10.7 10.4 16.5 32.9 63 65.7 126.1 98.3 189.2 5.8 11.2 1.5 23.3 2.4 36.3zm-101.5-196.2c-9.9 4.4-21.6 7-29.5 13.9-5.2 4.6 3 12.8 6 19 19.4 39.9 39.2 79.5 58.9 119.4 13.9 28.8 13.4 28.6 42.9 16.3 8.6-3.6 11.1-5.9 6.2-15.1-25.5-47.7-50.3-95.9-75.5-143.8-2-4-2.7-9.2-8.8-9.9l-0.2 0.2z"/>
			<path class="st0" d="m6788.8 1995.2c1.4-3.1 3.5-5 7.1-3.9 0.5 0 1.2 2.6 1 2.7-1.9 1.2-3.9 2.2-6.1 3.2l-2-2z"/>
			<path class="st0" d="m6827.9 1987.2c1.3-2.8 4-4.7 7.1-4.8l3.4 3.9c-1.7 2.7-4.7 4.1-7.8 3.6-0.8-0.9-1.7-1.8-2.7-2.7z"/>
			<path class="st0" d="m6835 1982.4 7.7-3.9 2.8 2.9-7.1 4.9-3.4-3.9z"/>
			<path class="st0" d="m6826.3 1993.5-4.8 2.8-2.2-2.2 4.4-3.4 2.6 2.8z"/>
			<path class="st0" d="m6823.6 1990.7 4.3-3.5c0.9 0.8 1.8 1.7 2.7 2.6l-4.4 3.7-2.6-2.8z"/>
			<path class="st0" d="m6858.4 1987.1-2.5-1.3c0.4-0.4 1-1.2 1.3-1.1 0.9 0.3 1.8 0.7 2.6 1.1l-1.4 1.3z"/>
			<path class="st0" d="m6842.7 1978.5 4.8-3.1 2.4 2.2-4.4 3.9-2.8-3z"/>
			<path class="st0" d="m6821.4 1996.4c-1.2 1-3.2 3.1-3.5 2.8-3.2-2.4-0.3-3.6 1.3-5.1l2.2 2.3z"/>
			<path class="st0" d="m6790.8 1997.1c-1.3 0.7-2.6 1.2-3.9 1.6-1.4-2.2 0.4-2.9 2.1-3.5l1.8 1.9z"/>
			<path class="st0" d="m7067.3 2246.3-4.3 3.4-7.2 1.1c-1-6.5 3.7-9 8.5-10 3-0.7 2.6 3.2 3 5.5z"/>
			<path class="st0" d="m7036.2 2211.5c0.8-3.2 4-5.3 7.3-4.5 0.3 0.1 0.7 0.2 1 0.3-1.6 3.8-4.1 5.6-8.3 4.2z"/>
			<path class="st0" d="m7044.1 2207.6c-0.3-3.1 1.3-4.4 4.2-4.3 0 2.3-1.9 4.2-4.2 4.3z"/>
			<path class="st0" d="m7011.1 2078.7c7.1-12.6 19.1-21.7 33.1-25.1-8.3 13.4-17.7 19.3-33.1 25.1z"/>
			<path class="st0" d="m7016.9 2211.5c-1.1 2.2-2.6 3.9-5.4 3.3-0.3 0-0.7-1.3-0.5-1.6 1.3-2.1 4.1-2.7 6.2-1.5l-0.3-0.2z"/>
			<path class="st0" d="m7017.3 2211.7c0.3-0.7 0.5-1.5 0.7-2.2v0.9c-0.3 0.4-0.7 0.7-1.1 1.1l0.4 0.2z"/>
			<path class="st0" d="m3478.6 1593.8c23.8 7.3 42.3 20 49.4 47.1-12.1 0-16-7.8-21.3-12.9-22.2-21.6-39.2-24.1-66.7-8.6-5.1 2.9-9.8 6.5-15.1 9.1-2.2 1-4.8 1-7.1 0-3.7-2.4-1.4-5.7 0.4-8.4 6.7-10.1 18.5-14.1 27.5-21.5-25.5-25.1-30.5-57.4-13.2-83.8 13-19.9 31.4-21.1 46.5-3 21.9 26 21.8 44.9-0.4 82zm6-37.2c0.4-19.1-15.7-45.1-27.7-45.3-13-0.2-24 21-23 44.4 0 1.3 0 2.6 0.3 3.9 2.4 14.5 7.8 26.8 25 27.5 11.5 0.6 25.1-16.6 25.4-30.5z"/>
			<path class="st0" d="m3772 1530.5c-12 10.2-18.4 25.5-17 41.2 0.1 10.8 7.2 20.3 17.5 23.5 8.8 3.6 18.9 1.3 25.2-5.7 8.2-8.7 7.5-18.9 3.9-29.3-4.6-12.5-17.6-18.6-24.4-30.4 19.5 1.9 35 17 37.5 36.4 1.8 17.5-1.6 33-22.5 37.2-10.5 2.2-7.8 6.9-2 11.4 8.7 6.5 18.3 12 21.7 31.7-31.4-31.4-56.8-27.5-78.8 5.5-1.5-22.4 8.6-33.2 36.8-42.1-9-8.2-20.8-13.1-25-25.5-3.9-11.2-3.5-23.5 1.2-34.5 4.2-10.1 7.6-23 25.9-19.4z"/>
			<path class="st0" d="m3747 1376.9c-0.2-24 13.5-47.8 28-48.4 19.6-0.8 40.2 21.3 40.3 43.2s-15.9 39.2-35.3 39.2-32.8-14.1-33-34zm54.4-2.8c0-15.3-17.1-37.2-27.7-33.8-17 5.4-14.9 22.7-16.2 36.1-1.3 13.3 6.3 22.7 20.7 22.6 16.4-0.2 21.3-12 23.3-24.8h-0.1z"/>
			<path class="st0" d="m3738.8 1454.6c4.9-20 18.6-30 36.2-30 24.8 0 40.4 16.4 52.1 38.1-28.4-15.8-54.7-46.8-88.3-8.1z"/>
			<path class="st0" d="m6232.2 1214.9c-12.1 9.2-26.5 12.5-40.7 15.7-28.7 6.3-57.6 12-86.3 17.7-4.5 0.9-9.7 1.3-12.2-3.6-2.4-5 1.6-7.8 5.2-8.8 44.1-10.4 87.6-24.2 134-21z"/>
			<path class="st0" d="m6122.1 1082.1-135.3 36.1c-3.1 0.8-7.5 1.7-8.2-2.3-1.3-6.8 4.9-8.6 9.5-10.2 28.9-10.4 58.5-18.6 88.6-24.8 14.7-2.8 29.6-4.7 45.4 1.2z"/>
			<path class="st0" d="m882.9 2707c-11.3-30.4-1.1-63.4-10.6-93.5-92 37.3-188.3 44.3-286.2 39.9-9.1-0.4-24 0.9-23.8-10.8 0.2-11.6 15.5-9.8 24.2-10.3 52.2-2.9 104.5-4.6 156.2-13.1 38.1-5.9 75.8-14.6 112.6-26.1 12.8-4.2 16.7-10.6 15.9-24.2-14.1-250.4-44-498.6-103.3-742.7-5.2-22.9-12.1-45.5-20.6-67.4-3.5-8.6-6.9-10.8-15.4-4.4-48.1 36.3-112.8 4.5-136.7-39.7-2.7-5-7.4-11.8-1.2-15.7s10.3 3.4 14 7.4c12.5 13.6 25.9 25.9 42.9 33.6 28.4 12.9 54.5 10.1 78.5-10.7 4.3-3.9 7.6-9 14.4-10.4 46.3 71.3 59.9 153.7 78.1 234.2 31.9 141.2 50.7 284.3 63.5 428.3 0.9 9.5 2.3 18.9 3.9 31.4 35.7-32.5 68.8-62.8 102-93 47.8-43.6 98.9-83.6 143.7-130.5 6.1-6.4 12.9-14.2 21.1 0 3.9 6.7 13.3 2.2 20.1 1.2 49.9-7.5 88.6-33.3 117.9-73.9 1.4-2.2 3.1-4.2 4.9-6.1 6.4-6.1 10.4-21.7 21.4-13.4 11 8.4 2.7 20.5-4.4 29.3-43.6 54.1-96.2 90.2-169.7 83-4.6-0.6-9.1 1.4-11.8 5.1-63.1 71.2-137.6 130.3-207.3 194.4-28.8 26.4-38.3 51.9-34.2 89.7 6.3 58.6 6.5 117.6 0.9 176.2-1.2 11.8-10 20.5-11 32.2z"/>
			<path class="st0" d="m372.7 2809c-36.7-76.6-58.4-153.6-71.3-232.9-29.3-179-48-358.8-39.1-540.6 3.6-73.8 9.1-147.4 27.5-219.4 11.1-44.1 27.9-85.9 60.7-119 28.2-28.5 61.7-47.5 102.5-46.6 66.7 1.5 105-35.1 130.5-91.1 2.2-4.7 3.4-9.9 5.6-14.6 3.9-8.7 2.7-25.9 16.5-21.4 11.4 3.6 4.3 18.3 2.3 27.9-16 77.4-70.3 123.6-147.8 125.6-54.9 1.3-91.8 30.3-117.6 75.8-26.6 47.1-35.3 99.4-42.1 152-21 164.6-13.1 328.6 5.1 492.8 12.1 109.2 26.4 217.8 53 324.6 3.9 16.4 6 33.2 12.7 49.1 5.3 11.9 5.8 25.5 1.5 37.8z"/>
			<path class="st0" d="m1008.3 1400.2c-4.3 91.3-32.2 171.3-115 220.8-37.8 22.6-78.7 39.2-125.6 29.9-48.8-9.6-84.2-37.4-108.8-78.9-42.1-70.6-47.1-145.2-17.5-222.1 25.6-66.7 68.8-118.1 133-150.2 38.3-19.1 78.7-16.8 115.5 1.8 74.9 37.9 112.9 101.3 117.2 184.9 0.3 4.7 0.8 9.3 1.2 13.8zm-19.6 19.4c0.9-36.7-6.4-73.2-21.3-106.8-17.4-39.3-44.2-69.4-87.4-81.3-58.1-16.2-151.5 15.5-188 63.4-57.7 76-65.4 186.1-15.8 267.7 39.9 65.7 82.6 80.1 146.3 73.9 35.3-3.4 65.7-25.4 93.1-47.8 53-43.5 71.7-102.8 73.1-169.1z"/>
			<path class="st0" d="m441.9 2465.3c-2.6-21.1 2.7-38.6 7.4-55.9 31.3-113.3 55.7-228.4 73.3-344.6 4.2-28.4 8.4-56.8 12.9-85.2 1-6.3 1.6-14.9 10-14.4 10.1 0.6 6.2 10 5.9 15.7-7.8 147.5-34.2 293.4-78.5 434.4-7.8 24.3-15.7 35.6-31 50z"/>
			<path class="st0" d="m1298.7 2011.1c-14.8 22.4-37.4 31.6-60.3 36.8-27.2 6.3-47.1 20.5-69 37.7-69.8 54.9-145.8 100.9-230.4 130.8-13.6 4.8-27.5 8.4-42.1 6.7-5.3-0.6-10.9-1.8-10.8-8.7 0-5.7 5-6.7 9.6-7.8 103.1-29.2 190.6-88 274.1-151.5 40.1-30.5 85.8-30 128.9-44z"/>
			<path class="st0" d="m544.3 3002.1c-13-1.9-28.2-2.5-41.9-9.7-6.8-3.6-11.8-9.3-9.3-17.5 2.4-8.2 9.4-5.8 15-5.5 9.8 0.4 19.5 1.3 29.2 2.8 16 2.6 21-2.6 17.3-19-8.2-35.8-20.3-70.3-31.9-105-5.4-16-6.3-39.2-17.5-46.3-11.8-7.6-31 7.8-47.1 12.3-6.4 1.7-15.4 7.4-18.3-2.8-2.3-7.8 7.1-9.8 12.8-12.1 18-7.6 36.3-14.7 54.5-21.9 9.8-3.9 17.1-0.5 20 9.3 17.4 57.5 42.6 112.6 54.9 171.7 5.9 30-6.5 44.7-37.7 43.7z"/>
			<path class="st0" d="m853.8 3144.6c11.8-65.2 20.7-130.8 28.6-196.6 7.6-63.5 13.8-127.1 18.6-190.8 0.4-5.5-1.6-12 5.3-15.7 6.9 5.3 4.8 13.1 5.1 19.6 4.2 83.9-8.4 166.5-20.6 249.1-6.5 43.8-16.1 87.1-28.8 129.5-0.5 1.6 0.8 3.9 1.3 5.7l-9.5-0.8z"/>
			<path class="st0" d="m1439.5 1985.4c-0.7 7.8-6.2 12.8-12.2 16.8-39.6 27.8-81.2 52.7-124.4 74.5-7.4 3.6-16.6 9.4-22.3-1.2-5.5-9.9 3.3-15.7 10.2-20.4 40.5-26.4 81.1-52.8 122-78.5 13.7-8.6 26.9-3.5 26.7 8.8z"/>
			<path class="st0" d="m443.9 3004.4c17.1 36.8 77.1 294.5 76.5 321.1-36.7-104.4-65.8-210.8-76.5-321.1z"/>
		<path class="st0" d="m1161.9 1139.1c16.7-13.9 38.1-15.3 57.7-19.9 122.5-28.4 247.2-41.6 372.4-50.5 150.7-10.8 301.6-15.6 452.7-14.4 236.2 1.5 471.7 15.7 706.5 40.5 110.5 11.8 221 23.5 329.6 47.9 12.8 2.9 25.4 6 37.9 10 5.3 1.7 15.9 0.4 13.1 10.1-1.8 6.5-10.4 3.5-15.7 2.7-24.5-3.9-48.8-8.7-73.2-12.6-177.7-28-356.5-45.8-535.8-59.2-227.8-17.1-455.8-22.8-684-17.4-160.9 3.9-321.3 11.8-480.8 34.4-56.1 8-111.8 18.1-167.1 30.3-4.6 1-8.7 2.8-12.6-1.3l-0.7-0.6z"/>
		<path class="st0" d="m1241 1055.3c4.9-39.2 14.7-77.8 37.3-111.8 16.4-24.6 36-23 48 4.2 11.7 27.1 20 55.5 24.8 84.6 1.9 11.5 6.6 22.5 9.9 33.8 1.5 4.9 4.4 10.8-1.8 13.9-6.9 3.4-10.8-2.5-13.9-7.4-7.4-13.2-12.2-27.6-14.3-42.5-2.2-11.5-7.6-15.7-18.9-12.6-4.5 1.1-9 1.8-13.5 2.3-35.3 4.4-35.1 4.4-41.7 37.7-1.2 6.1-0.5 15.9-8.3 15.7-10.4-0.4-6-10.9-7.6-17.9zm39.5-50.3c40.9 1 48.1-10 30.7-47.1-0.5-1.2-1.1-2.4-1.7-3.5-5.3-10.5-10.8-9.7-16.8-0.5-8.1 12.6-14.6 26.2-19.4 40.4-2.1 6.6-2 12 7.2 10.7z"/>
		<path class="st0" d="m2625.3 1018.6c-1.2 7.8-2.2 17.7-3.9 27.5-1 5.1-3 10.9-9.8 9.8s-7.2-7.2-6.9-12.4c0.8-10.4 2.8-20.7 3.3-31.2 0.4-6.7 2.3-16.7-7.2-17.6s-15.1 6.7-16.9 15.7c-1.8 8.9-2.9 19.3-4.7 28.9-0.3 4.7-4.3 8.2-9 7.9-0.2 0-0.4 0-0.6-0.1-6.1-0.9-6.6-6.2-6.1-10.8 1.1-12.4 2.9-24.6 3.9-37 0.4-5.1 0.4-11.8-5.2-13.7s-9.3 3.6-13.1 6.9c-7.8 6.7-8.2 15.7-8.6 25.1 0.1 3.9-0.2 7.9-0.9 11.8-1.8 6.9 0.4 18.8-10.7 17.3-10.4-1.4-7.3-12.3-6.4-19.6 1.7-15.7 3.9-31 6.7-46.5 1.1-6.4 2.7-14.7 11.8-5.7 5.3 5.2 7.8-0.9 11.5-2.7 10.3-5.1 18.8-3.9 25.5 5.9 2.3 3.4 2.6 7.8 9.8 5.8 25.6-7.3 38.7 4.6 37.5 34.7z"/>
		<path class="st0" d="m2657 1014.5c1.7 9.4-5.9 27.2 6 29.7 10.5 2.2 10.5-16.6 14.4-26.4 2.3-5.9 2.5-14.9 10.5-14.4 9.5 0.6 8.4 10 9.1 17 0.2 2.6 0 5.3 0.2 7.8 0.9 8.8-1 21.9 10.2 22.3s15.3-12.2 16.9-22.8c0.9-5.8 0-11.8 0.5-17.6 0.3-4.8 2-9.3 7.8-8.9 4.1 0.1 7.5 3.3 7.8 7.5 0.7 18 4.3 36.7-13.1 50.1-12 9.3-23.3 15-34.6-0.7-4.5-6.2-8.2-7.1-15.3-1.1-14.6 12.2-29 7.2-33.7-11.2-3.5-16-3.3-32.6 0.6-48.6 1-4.9 2.4-12 8.9-11.1 7.1 1 4.2 8.3 4.4 13.1 0.2 4.7-0.3 9-0.6 15.3z"/>
		<path class="st0" d="m1546.7 968.8c-21.2 4.5-45.9 4.3-50.5 33.4-1.5 7.3 2.4 14.7 9.3 17.6 14.4 6.9 28.9 9 47.9-1.8-12.7-1-20.4-1.3-28-2.4-4.7-0.7-8.9-3.3-8.6-8.9 0.3-4.7 4.3-6.2 8.3-6.7 11.6-1.7 23.5-0.6 34.6 3.3 9.5 3.2 9.6 11.5 6.2 19.6-7.6 18.6-39.2 25-64.4 13.1-22.4-10.7-27.5-30.3-14-53.8s36.9-31.4 57-18c1.1 0.5 1.2 2.3 2.2 4.6z"/>
		<path class="st0" d="m2113.2 977.9c9.4-2.9 19.5-2.8 28.8 0.4 8.6 2.6 15.7 7.8 16.2 17.3 0.3 8.1-4.5 15.6-12 18.8-15.4 7.3-31.4 9.7-46.1-1.5-13.1-9.9-16.8-29.1-8.9-48.2 6.9-16.5 18.2-28.4 37.3-30.1 6-0.5 13.1 0.8 14 7.6 1.5 10.4-7.6 5.3-12.2 6.5-14.8 3.9-22.8 13.9-25 28.8-1.2 23 10.1 33.5 29.6 27.5 3.9-1.1 7.8-2.3 7.5-7.3-0.3-3.9-4.3-4.4-7.4-4.9-5.1-0.8-10.4-1.3-15.7-2-8.3-1.2-12-4.7-6.1-12.9z"/>
		<path class="st0" d="m1610.4 954c8.7-7.4 18.5-5.8 24.4 1.6 8.9 11.4 13.1 5.6 20.4-1.3 15.7-14.6 30.6-10.8 37.7 9.2 5.3 15.5 7.5 31.9 6.5 48.3-0.2 5.1-0.8 11.8-7.4 12.2-7.2 0.6-7.5-6.2-8.1-11.1-1.3-9.1-1.4-18.2-2.6-27.3-1.3-9 1.6-23.9-11.1-22.4-11.8 1.4-20.5 13-19.1 27.7 0.8 8.4 1.7 16.9 2.2 25.3 0.3 4.6 0 10.3-5.3 11.3-6.7 1.2-8.8-4.5-9.7-9.8-2.4-14.1-4.2-28.4-6.9-42.4-2.5-12.4-9.2-16.9-20.8-8.8-0.1-4.3-0.2-8.4-0.2-12.5z"/>
		<path class="st0" d="m1805.5 977.3c0-8.4-0.2-12.6 0-21.1 0-4.4-0.3-10 4.4-12.2 6.3-3.1 7.1 3 9.1 6.8 3 5.5 6.2 1.4 9.5 0 22.6-9.1 37.4-2.6 45.4 20.6 4 11.7 5.8 24.1 5.2 36.5-0.2 5.3-1.7 11.4-8 11.8s-8.2-5.6-9-10.9c-1.4-9.7-2.3-19.4-3.6-29.1s-3.2-19.9-15.3-18.7c-11.8 0.5-20.9 10.4-20.4 22.1v0.1c-0.2 9.1 1.1 18.2 1.1 27.5 0 5.8 0 13.3-7.8 13.3-7 0-9.1-6.8-9.3-12.9-0.4-9.7 0-19.6 0-29.3-0.6-0.2-1-4.5-1.3-4.5z"/>
		<path class="st0" d="m2318.1 918.4c-18.8-6.4-38.6-4.4-57.8-7.4-5-0.8-12.4 0.4-12.8-6-0.6-7.8 7.4-7.8 12.9-8.6 17.7-2.3 35 2.1 52.5 3.2 31.2 2 62.3 4.8 93.5 7.3 5.7 0.5 13.6-0.5 13.9 7.2 0.4 9.5-8.4 8.4-14.6 8.2-26-1.1-52-2.5-78-3.9h-9.6z"/>
		<path class="st0" d="m1998.5 978.2c0.8-7.3 1.5-17.8 3.2-28.1 1.4-8.8 3.9-16.8 13.2-4.6 5 6.4 7.3-1 10.2-3 20.3-14.3 33.2-10.1 41.1 13.7 4.7 14 3.9 28.4 3.1 42.8-0.4 5.5 0 13.3-8.2 12.8-6.1-0.5-6.9-7.2-7.1-12.4 0.1-13.1-1-26.1-3.2-39-2.7-12.8-8.6-12.9-17.7-6.2-11.9 8.5-18.8 22.4-18.4 37.1 0 7.5 3.3 20.3-9.3 19.6-10.3-0.6-6.1-12.4-6.8-19.6-0.1-3.5-0.1-6.8-0.1-13.1z"/>
		<path class="st0" d="m2928.4 1043.4c1.6 0.1 3.3 0.1 4.9 0 8.6-2 18-14.8 23.7-8.2 7.8 8.9-8 11.3-12.1 17.7-5.5 8.6 3.6 11 6.3 16 4.3 7.8 19.6 16 12 22.9s-17.8-5.7-24.4-13.2c-10.1-11.8-17.5-16-20.9 4.2-0.7 4.3-3.1 9.3-9 8.2-4.7-0.9-7.8-5.4-6.9-10.1 0-0.2 0.1-0.4 0.1-0.5 2.9-21.2 6.4-42.4 9.9-63.5 0.7-3.9 2.7-7.8 7.8-6.9s6 4.9 6.5 8.7c0.9 8.1 1.3 16.4 2.1 24.7z"/>
		<path class="st0" d="m2820.1 1040c0 22.2-19.6 43.2-40.1 42.7-16.1 0.4-29.4-12.4-29.8-28.5v-1.2c0-21.8 22.2-46.8 42-47.6 13.8-0.6 27.9 16.8 27.9 34.6zm-14.6-0.6c-2.6-7.8-3.3-19.1-16.2-19.6-9.5-0.4-24.8 20.2-24.6 32.1 0 10.2 5.8 15.5 15.7 16 12.8 0.6 25.3-13.2 25.1-28.5z"/>
		<path class="st0" d="m2867.8 1053.7c3.9 9.9 21.7 16.7 11.8 26-8.4 7.8-16.6-7.2-24.2-13.1-2.5-1.9-4.7-4.2-6.8-6.2-5.1 2.4-4.9 6.6-5.7 10.2-1.1 4.8-3 9.1-8.8 8.2-6.7-1.1-7.8-6.7-6.8-12 2.4-13.4 3.9-27.2 8.7-39.8s15.7-17.8 29.2-18.8c11.8-0.9 15.3 7.8 18.9 15.7 7.5 16.3-5 22.5-16.3 29.8zm-3.3-32.9c-5.9 0.8-13.1 1.5-12.9 8.9 0 6.3 6.9 6.2 12.1 6.7 6.2 0.6 10.2-1.5 9.9-8.4-0.2-6.1-4.1-7.5-9.1-7.2z"/>
		<path class="st0" d="m2375.1 1013.5c11.5 15.7 29.7 9.3 51 14.4-18.4 10.8-32.5 14.4-48.6 8.7-16.9-5.1-27.5-21.8-25-39.2 1.5-16.3 9-28.7 25.7-32.9 12.4-3.1 23.5 0 30.3 11.8 6.2 10.6-1.4 16.4-9.3 21.6-8.7 1.8-36.6 15-7.1-7.1 3-4.6 4.4-8.2-0.9-11.2-4.1-2.4-9.3-1.8-12.7 1.5-11.2 9.3-9.6 20.7-3.4 32.4z"/>
		<path class="st0" d="m2496.3 1022c-1.2 7.3 1.1 17.1-8.1 18.2-9.1 1.1-7.8-8.6-8.5-14.5-0.7-7.5-4.1-10.6-11.3-9.6-8.2 1.1-19.2-4.6-22.2 9.3-0.9 3.9-0.7 10.6-7.1 9.2-5.6-1.2-4.7-7.4-4.2-11.8 2.1-18.4 6.9-36 20.8-49.4 11.8-11.5 24.1-9.5 31.7 5.2 7.2 13.8 7.1 29.1 8.9 43.4zm-19.1-29c-1.2-3.9-1.3-10.9-7.8-10.3-6.7 1.1-11.6 6.7-11.8 13.5-0.7 7.3 6.1 4.6 9.9 5.1 5.4 0.5 10.9 0.5 9.7-8.3z"/>
		<path class="st0" d="m1745.3 997.1c6.8 8.5 18.3 11.5 28.3 7.4 3.9-1.4 9.1-4.8 11.8 1.6 2 5-2 8.5-5.3 11.8-17.2 16.2-52.2 2.3-59.2-23.5-5.7-18.6 4.7-38.4 23.4-44.1 4.8-1.5 9.8-1.9 14.8-1.3 8.2 0.9 15.5 3.3 18.7 11.8s-3.1 12.9-8.6 17.6c-3 2.5-5.6 5.4-8.4 8.2l-9.2-2.4c4.9-6.2 14.4-10.1 13-19.3-0.7-4.6-7.6-3.7-11.8-2.4-9.8 3.1-17 9-16.4 20.6 0 2.2 2.1 4.4 3.3 6.5 0.3 3.7 1 7 5.6 7.5z"/>
		<path class="st0" d="m1375.4 992.4c5.7 6.8 2.9 14.1 3.7 20.6 1.6 14 7.2 26.3 22.7 26.7 19.6 0.5 34.5-12.7 35.8-27.8 0.8-9.3-7.3-24.8 8.2-25.3 13.1-0.5 10.7 15.2 11.3 25.1 0.7 8.5 4 16.6 9.5 23.1 3 3.9 8.5 7.8 3.2 13.3-3.4 3.8-9.3 4.1-13 0.6-0.4-0.3-0.7-0.7-1.1-1.1-11-14-20.2-9.1-32.5-1-12.6 9.2-29.9 8.5-41.7-1.7-12.4-10.1-14.7-29.6-6.1-52.5z"/>
		<path class="st0" d="m1946.8 948.4c-26.1 5.4-24.2 20.7-23 35.7 0.4 4.6 0.4 9.2 0.1 13.8-0.5 6 1.9 14.9-7.8 14.9-7.8 0-7.3-7.8-7.8-13.5-0.5-5.6-0.6-10.4-0.9-15.7-0.3-4.6 1.2-10.8-1.2-13.4-17.1-17.9 0.8-33.9 1.8-50.7 0.2-3.6-0.6-8.7 4.6-9.5s6.9 3.9 6.9 7.5c0 15.2 6.4 25.4 27.3 30.9z"/>
		<path class="st0" d="m2318.1 918.4h9.7c7 32.6 0.5 64.6-4.4 96.6-0.8 5.5-2.3 13.1-9.6 12.7-8.6-0.5-8.9-8.7-8.1-15.1 3.9-31.3 8.3-62.7 12.4-94.2z"/>
		<path class="st0" d="m1610.4 954v12.4c-8.6 9.6-9.3 20.3-7 32.8 1.8 9.6 10.5 26-3.9 28.1-13.7 1.8-10.4-16.3-12.6-26.4-1.8-9-2.8-18.1-3.3-27.2-0.8-14.6-0.5-14.5 13.8-12.3 6.2 0.9 7.5-6.7 13-7.4z"/>
		<path class="st0" d="m1972.1 980.9c-1 7.8-1.9 17.7-3.6 27.5-0.3 4-3.7 7-7.7 6.8h-0.4c-4.1-0.5-7.1-4.1-6.8-8.2 1-17.5 1.3-35.1 5.6-52.2 0.8-3.4 2.7-7 6.2-6 2.8 1.5 4.7 4.2 5.2 7.4 1 7.3 1 15.2 1.5 24.7z"/>
		<path class="st0" d="m1966.3 906.9c7.5 0.4 13.1 3.2 13.1 11.4 0 6.5-4.4 8.9-10.4 8.9-7.2-0.2-13-3.1-13.1-11.3-0.1-6.6 4.7-8.8 10.4-9z"/>
		<path class="st0" d="m1751.8 984.2 9.2 2.4-15.7 10.5c-4.6-0.5-5.2-3.9-5.5-7.5l12-5.4z"/>
		<path class="st0" d="m1161.9 1139.1 0.7 0.7-3.7 2.9 3-3.6z"/>
</svg>
