<?xml version="1.0" encoding="UTF-8"?>
<svg id="Layer_1" data-name="Layer 1" xmlns="http://www.w3.org/2000/svg" viewBox="0 0 1500 1500" width="1500" height="1500">
  <g>
    <g>
      <path d="m311.82,826.77c-31.67,0-57.43,25.76-57.43,57.43s25.76,57.43,57.43,57.43,57.43-25.76,57.43-57.43-25.76-57.43-57.43-57.43Zm0,100.08c-23.52,0-42.65-19.13-42.65-42.65s19.13-42.65,42.65-42.65,42.65,19.13,42.65,42.65-19.13,42.65-42.65,42.65Z"/>
      <path d="m522.21,830.85h-2.84v71.25c0,13.64-11.1,24.73-24.74,24.73s-24.74-11.1-24.74-24.73v-71.25h-14.78v71.25c0,13.64-11.1,24.73-24.74,24.73s-24.73-11.1-24.73-24.73v-71.25h-14.78v71.25c0,21.79,17.73,39.52,39.52,39.52,13.24,0,24.95-6.57,32.13-16.59,7.18,10.02,18.89,16.59,32.13,16.59,21.79,0,39.52-17.73,39.52-39.52v-71.25h-11.94Z"/>
      <path d="m614.35,826.3c-31.67,0-57.43,25.76-57.43,57.43v53.34h14.78v-53.34c0-23.52,19.13-42.65,42.65-42.65s42.65,19.13,42.65,42.65v53.34h14.78v-53.34c0-31.67-25.77-57.43-57.44-57.43Z"/>
    </g>
    <g>
      <path d="m920.3,826.76c-31.67,0-57.44,25.76-57.44,57.44s25.76,57.44,57.44,57.44,57.44-25.76,57.44-57.44-25.76-57.44-57.44-57.44Zm0,100.09c-23.52,0-42.65-19.13-42.65-42.65s19.13-42.65,42.65-42.65,42.65,19.13,42.65,42.65-19.13,42.65-42.65,42.65Z"/>
      <path d="m1098.85,830.85h-2.84v53.35c0,23.51-19.13,42.64-42.65,42.64s-42.65-19.13-42.65-42.64v-53.35h-14.78v53.35c0,31.67,25.76,57.43,57.43,57.43s57.44-25.76,57.44-57.43v-53.35h-11.94Z"/>
      <path d="m1245.61,742.7v-2.84h-14.78v86.83l-43.12.05c-31.67,0-57.43,25.76-57.43,57.43s25.76,57.43,57.43,57.43h17.85c17.81,0,39.65-17.57,40.05-39.39v-159.51Zm-14.79,159.24c-.23,12.81-14.43,24.88-25.27,24.88h-17.85c-23.52,0-42.65-19.13-42.65-42.64s19.13-42.65,42.65-42.65l43.15-.05c.07,13.76.2,47.27-.04,60.47Z"/>
      <path d="m824.77,902.1v-113.14c-5.15-2.6-10.09-5.55-14.78-8.83v121.97c0,21.79,17.73,39.52,39.52,39.52h2.84v-14.78h-2.84c-13.64,0-24.73-11.1-24.73-24.73Z"/>
      <path d="m707.41,854.25c0-22.05,9.89-41.82,25.46-55.15-4.9-1.89-9.45-4.48-13.53-7.65-16.45,15.9-26.72,38.17-26.72,62.8,0,48.18,39.2,87.38,87.38,87.38h2.84v-14.78h-2.84c-40.03,0-72.6-32.56-72.6-72.59Z"/>
    </g>
  </g>
  <path d="m710.46,572.08c-3.46-6.08-5.47-13.08-5.47-20.56,0-22.99,18.71-41.7,41.7-41.7,8.51,0,16.42,2.57,23.02,6.96-4.9,11.04-7.65,23.25-7.65,36.08,0,2.37.12,4.7.3,7.02-1.63-.08-3.27-.12-4.91-.12-17.06,0-33.09,4.49-46.99,12.32Zm-9.19,161.74c-24.17-17.48-39.94-45.89-39.94-77.93,0-8.19,1.04-16.14,2.97-23.73-.8-.02-1.6-.06-2.41-.06-44.2,0-80.16,35.96-80.16,80.16s35.96,80.16,80.16,80.16c16.85,0,32.49-5.24,45.4-14.15-5.33-8.26-8.44-18.09-8.44-28.63,0-5.51.85-10.82,2.41-15.82Zm3.59-8.65c7.2-13.77,20.26-24,35.86-27.34,1.48-.32,2.97-.56,4.49-.76,1.5-.19,3.01-.32,4.55-.38.69-.03,1.39-.05,2.09-.05,2.46,0,4.88.18,7.25.51-.74-5.41-1.16-10.92-1.16-16.53,0-26.94,8.84-51.85,23.75-72-3.38-4.21-6.39-8.72-8.97-13.5-.72-1.34-1.41-2.71-2.07-4.1-.66-1.38-1.28-2.79-1.86-4.21-2.33-5.64-4.08-11.57-5.22-17.72-2.02-.14-4.06-.24-6.12-.24-15.06,0-29.24,3.85-41.61,10.61-1.37.75-2.71,1.54-4.03,2.35-1.3.81-2.58,1.65-3.84,2.52-14.11,9.79-25.19,23.64-31.55,39.85-.56,1.43-1.08,2.87-1.57,4.33-.48,1.46-.93,2.93-1.34,4.42-2,7.31-3.09,15-3.09,22.94,0,28.24,13.53,53.37,34.44,69.28Zm280.86-102.64c11.59-6.09,24.57-9.88,38.33-10.76-3.56-40.94-37.99-73.17-79.84-73.17-1.6,0-3.19.06-4.76.15.73,4.6,1.13,9.31,1.13,14.12,0,7.45-.93,14.69-2.66,21.62,20.12,11.16,36.75,27.86,47.8,48.05Zm-213.56-57.02c.26,1.61.58,3.21.93,4.79.81,3.64,1.86,7.18,3.14,10.62.57,1.52,1.2,3.02,1.85,4.5.65,1.45,1.33,2.88,2.07,4.28,2.13,4.11,4.6,8.01,7.39,11.66,5.6-6.46,11.84-12.35,18.67-17.51,1.29-.97,2.6-1.91,3.93-2.83,1.32-.92,2.66-1.81,4.02-2.67,18.41-11.76,40.17-18.69,63.52-18.99.53,0,1.05-.04,1.58-.04,1.52,0,3.02.06,4.53.11,2.07.08,4.14.21,6.19.39,14.01,1.23,27.34,4.86,39.59,10.46,1.25-5.61,1.93-11.43,1.93-17.41,0-4.44-.38-8.8-1.08-13.05-.25-1.5-.54-2.99-.87-4.47-.33-1.49-.71-2.96-1.12-4.41-9.57-33.57-40.49-58.22-77.08-58.22-30.19,0-56.53,16.78-70.2,41.51-.76,1.38-1.49,2.78-2.17,4.2-.71,1.48-1.36,2.99-1.97,4.52-3.74,9.25-5.82,19.35-5.82,29.92,0,2.68.14,5.33.4,7.94.16,1.58.36,3.15.61,4.7Zm361.05,135.56c-2.4,0-4.74.25-7.04.62.12,1.99.21,3.98.21,5.99,0,25.53-10.02,48.75-26.32,65.98,8.06,9.29,19.91,15.21,33.15,15.21,24.21,0,43.9-19.69,43.9-43.9s-19.69-43.9-43.9-43.9Zm-16.02,3.07c-.06-1.59-.17-3.17-.32-4.74-.15-1.56-.33-3.11-.56-4.66-6.11-40.86-40.73-72.5-82.9-74.02-1.05-.04-2.1-.08-3.17-.08-.46,0-.92.03-1.38.04-1.53.02-3.05.09-4.55.19-12.41.84-24.11,4.29-34.56,9.8,6.29,13.87,10.05,29.11,10.68,45.15.06,1.59.12,3.19.12,4.8,0,.47-.03.93-.04,1.4-.02,2.05-.1,4.08-.22,6.1-1.85,30.18-14.78,57.41-34.77,77.66,15.94,17.74,39.05,28.92,64.72,28.92,22.17,0,42.41-8.34,57.8-22.04,1.16-1.04,2.31-2.1,3.42-3.2,1.12-1.11,2.21-2.24,3.27-3.41,14.01-15.45,22.55-35.94,22.55-58.38,0-1.19-.04-2.36-.09-3.54Zm-340.43,41.27c-.86-1.36-1.7-2.74-2.51-4.13-6.17-10.63-10.77-22.27-13.48-34.62-2.89-.6-5.87-.92-8.94-.92-.33,0-.64.04-.96.05-1.53.03-3.04.15-4.53.33-1.53.19-3.03.47-4.5.81-12.93,3.03-23.65,11.78-29.38,23.43-.68,1.38-1.28,2.79-1.81,4.24-.53,1.44-.98,2.92-1.36,4.42-.85,3.4-1.35,6.94-1.35,10.6,0,8.44,2.43,16.3,6.58,22.99.81,1.31,1.68,2.58,2.62,3.79.92,1.19,1.9,2.34,2.93,3.43,8,8.41,19.27,13.68,31.77,13.68,18.6,0,34.49-11.64,40.87-28.01-4.87-4.96-9.32-10.34-13.29-16.07-.92-1.33-1.8-2.68-2.67-4.04Zm214.33-56.1c.15-1.92.25-3.86.3-5.8.02-.96.07-1.92.07-2.89,0-16.1-3.43-31.41-9.57-45.26-.63-1.41-1.27-2.81-1.95-4.2-.67-1.35-1.35-2.71-2.07-4.03-9.92-18.21-24.75-33.37-42.69-43.73-1.33-.77-2.67-1.51-4.03-2.22-1.36-.71-2.73-1.41-4.12-2.06-13.77-6.51-29.06-10.28-45.19-10.65-.87-.02-1.73-.06-2.6-.06-1.08,0-2.14.05-3.21.08-1.93.05-3.85.16-5.76.31-17.69,1.41-34.23,6.91-48.67,15.59-1.34.81-2.67,1.65-3.97,2.52-1.32.87-2.61,1.77-3.89,2.69-7.48,5.4-14.28,11.69-20.22,18.73-.99,1.18-1.96,2.38-2.91,3.6-.94,1.2-1.84,2.43-2.73,3.67-13.11,18.36-20.85,40.8-20.85,65.03,0,6.39.57,12.66,1.6,18.76.3,1.75.63,3.5,1.01,5.23.41,1.88.88,3.75,1.38,5.6,2.8,10.23,7,19.89,12.41,28.74.82,1.34,1.67,2.66,2.54,3.96.88,1.31,1.79,2.59,2.72,3.86,2.1,2.86,4.33,5.62,6.68,8.27,1.28,1.44,2.6,2.86,3.95,4.23,1.24,1.26,2.51,2.49,3.81,3.7,20.02,18.51,46.76,29.85,76.11,29.85s54.12-10.53,73.88-27.85c1.14-1,2.25-2.02,3.35-3.06,1.12-1.07,2.23-2.15,3.31-3.27,16.42-16.95,27.55-39.03,30.72-63.59.24-1.9.44-3.81.59-5.74Z"/>
  <g>
    <path d="m718.24,1009.04h-14.68l-2.89,8.1h-8.05l14.2-37.77h8.73l14.1,37.77h-8.57l-2.84-8.1Zm-12.41-6.36h10.21l-5.05-14.57-5.16,14.57Z"/>
    <path d="m745.25,1017.14v-37.77h7.99v16.62l13.73-16.62h9.15l-14.99,18.1,15.41,19.67h-9.84l-13.47-17.25v17.25h-7.99Z"/>
    <path d="m783.76,986.84c-2.84,0-4.84-1.84-4.84-4.31s2-4.42,4.84-4.42,4.89,1.84,4.89,4.42-2,4.31-4.89,4.31Zm-3.58,30.3v-28.09h7.31v28.09h-7.31Z"/>
    <path d="m811.2,1016.4c-1.79.9-3.47,1.26-5.63,1.26-5.79,0-9.42-3.32-9.42-9.63v-12.73h-5.68v-6.26h5.68v-8.31h7.26v8.31h8.05v6.26h-8.05v11.05c0,3.26,1.47,4.58,4.1,4.58,1.37,0,2.63-.32,3.68-.9v6.36Z"/>
    <path d="m813.89,1002.99c0-8.36,5.84-14.46,13.94-14.46,8.89,0,14.78,7.21,13.47,16.36h-19.93c.47,4.58,2.68,7.1,6.42,7.1,3.21,0,5.37-1.58,6.21-4.36h7.26c-1.58,6.36-6.47,10-13.31,10-8.42,0-14.04-5.84-14.04-14.63Zm7.57-2.73h12.1c-.21-3.89-2.42-6.36-5.89-6.36s-5.58,2.21-6.21,6.36Z"/>
    <path d="m863.22,998.89l-5.26,18.26h-7.31l-8-28.09h7.1l4.79,17.78,5.15-17.78h7.21l5,17.78,4.73-17.78h7.2l-8.05,28.09h-7.26l-5.32-18.26Z"/>
    <path d="m884.99,1003.1c0-8.21,6.1-14.57,14.25-14.57s14.25,6.36,14.25,14.57-6.1,14.57-14.25,14.57-14.25-6.42-14.25-14.57Zm20.99,0c0-5.21-3.11-8.05-6.73-8.05s-6.73,2.84-6.73,8.05,3.1,8.1,6.73,8.1,6.73-2.89,6.73-8.1Z"/>
    <path d="m925.4,1017.14h-7.32v-28.09h6.73v5.42c2.05-3.58,6.42-5.74,10.94-5.74v7.58c-6.21-.48-10.36,1-10.36,7.2v13.62Z"/>
    <path d="m939.03,1017.14v-37.77h7.32v21.57l10.25-11.89h8.42l-11.62,13.47,13,14.62h-9.31l-10.73-13.05v13.05h-7.32Z"/>
    <path d="m979.37,1017.67c-8,0-12.47-3.84-13.05-10.1h6.99c.06,2.89,2.53,4.73,6.15,4.73,2.84,0,5-.9,5-2.89,0-1.79-1.16-2.53-3.84-3.05l-5.05-.95c-5.05-.9-8.1-3.68-8.1-8.05,0-5.21,4.47-8.84,11.47-8.84s11.89,3.73,12.42,9.78h-7c-.26-2.73-2.31-4.42-5.42-4.42-2.68,0-4.47,1-4.47,2.79,0,1.68,1.16,2.36,3.68,2.84l5.42,1c5.47,1.05,8.26,3.58,8.26,7.63,0,5.89-4.47,9.52-12.46,9.52Z"/>
    <path d="m1006.27,998.2c0-11.05,8.31-19.62,18.94-19.62,9.94,0,17.73,6.63,19.04,16.31h-8.47c-.9-5.42-5.11-9.15-10.47-9.15-6.47,0-10.84,5.1-10.84,12.47s4.36,12.57,10.84,12.57c5.36,0,9.52-3.79,10.47-9.2h8.47c-1.31,9.78-9.1,16.36-19.04,16.36-10.63,0-18.94-8.63-18.94-19.72Z"/>
    <path d="m1047.38,1003.1c0-8.21,6.1-14.57,14.25-14.57s14.25,6.36,14.25,14.57-6.1,14.57-14.25,14.57-14.25-6.42-14.25-14.57Zm20.99,0c0-5.21-3.11-8.05-6.73-8.05s-6.73,2.84-6.73,8.05,3.1,8.1,6.73,8.1,6.73-2.89,6.73-8.1Z"/>
    <path d="m1080.47,1017.14v-28.09h6.73v4c2.05-2.84,4.68-4.52,8.42-4.52s6.79,1.79,8.21,5c2.21-3.11,5.05-5,9.26-5,5.68,0,9.52,3.73,9.52,10.47v18.15h-7.26v-15.84c0-3.94-1.68-6.31-4.89-6.31-2.9,0-5.26,2.26-5.26,6.47v15.68h-7.26v-15.84c0-3.94-1.68-6.31-4.89-6.31-2.95,0-5.26,2.26-5.26,6.47v15.68h-7.32Z"/>
    <path d="m1144.41,1017.67c-3.32,0-6.15-1.42-8.26-4.15v13.78h-7.32v-38.24h6.73v4.1c2.16-3,5.26-4.63,8.84-4.63,7.57,0,12.46,6.31,12.46,14.57s-4.89,14.57-12.46,14.57Zm-1.63-22.67c-3.58,0-6.57,2.78-6.57,8.1s3,8.05,6.57,8.05,6.57-2.68,6.57-8.05-3-8.1-6.57-8.1Z"/>
    <path d="m1178.26,1013.67c-1.84,2.63-4.63,4-8.47,4-5.84,0-9.73-3.42-9.73-8.68s4.42-8.42,12.62-8.42c1.58,0,2.95.11,4.68.32v-1.68c0-3.16-1.79-5-4.84-5s-5.05,1.84-5.31,5h-6.57c.42-6.47,5.1-10.68,11.89-10.68,7.37,0,11.68,4.05,11.68,10.94v17.67h-5.95v-3.47Zm-6.89-1.05c3.73,0,6-2.05,6-5.32v-2c-1.73-.27-2.95-.37-4.21-.37-4.16,0-6.21,1.31-6.21,3.84,0,2.37,1.68,3.84,4.42,3.84Z"/>
    <path d="m1197.67,1017.14h-7.32v-28.09h6.73v4c2.05-2.79,4.95-4.52,8.63-4.52,5.63,0,9.52,3.68,9.52,10.47v18.15h-7.26v-15.68c0-4.15-1.63-6.47-4.95-6.47-2.89,0-5.36,2.31-5.36,6.84v15.31Z"/>
    <path d="m1231.94,1027.29h-7.95l4-10.47-11.05-27.77h7.89l7.05,19.25,6.42-19.25h7.31l-13.68,38.24Z"/>
  </g>
</svg>