<svg width="436" height="207" viewBox="0 0 436 207" fill="none" xmlns="http://www.w3.org/2000/svg">
<g clip-path="url(#clip0)">
<path d="M25.249 155.658C11.327 155.658 0 166.985 0 180.907C0 194.829 11.327 206.156 25.249 206.156C39.171 206.156 50.498 194.829 50.498 180.907C50.498 166.985 39.171 155.658 25.249 155.658ZM25.249 199.656C14.911 199.656 6.5 191.245 6.5 180.907C6.5 170.569 14.911 162.158 25.249 162.158C35.587 162.158 43.998 170.569 43.998 180.907C43.998 191.245 35.587 199.656 25.249 199.656Z" fill="white"/>
<path d="M117.748 157.452H116.498V158.702V188.776C116.498 194.771 111.62 199.649 105.623 199.649C99.627 199.649 94.748 194.771 94.748 188.776V158.702V157.452H93.498H89.498H88.248V158.702V188.776C88.248 194.771 83.37 199.649 77.373 199.649C71.377 199.649 66.5 194.771 66.5 188.776V158.702V157.452H65.25H61.25H60V158.702V188.776C60 198.355 67.793 206.149 77.373 206.149C83.194 206.149 88.343 203.261 91.498 198.855C94.653 203.261 99.802 206.149 105.623 206.149C115.204 206.149 122.998 198.355 122.998 188.776V158.702V157.452H121.748H117.748Z" fill="white"/>
<path d="M158.254 155.454C144.331 155.454 133.004 166.781 133.004 180.704V202.905V204.155H134.254H138.254H139.504V202.905V180.704C139.504 170.365 147.915 161.954 158.254 161.954C168.594 161.954 177.006 170.365 177.006 180.704V202.905V204.155H178.256H182.256H183.506V202.905V180.704C183.506 166.781 172.178 155.454 158.254 155.454Z" fill="white"/>
<path d="M292.762 155.656C278.838 155.656 267.511 166.983 267.511 180.907C267.511 194.831 278.838 206.158 292.762 206.158C306.686 206.158 318.013 194.831 318.013 180.907C318.013 166.983 306.686 155.656 292.762 155.656ZM292.762 199.658C282.423 199.658 274.011 191.246 274.011 180.907C274.011 170.568 282.423 162.156 292.762 162.156C303.101 162.156 311.513 170.568 311.513 180.907C311.513 191.246 303.101 199.658 292.762 199.658Z" fill="white"/>
<path d="M371.261 157.452H370.011V158.702V180.907C370.011 191.245 361.599 199.655 351.259 199.655C340.92 199.655 332.509 191.245 332.509 180.907V158.702V157.452H331.259H327.259H326.009V158.702V180.907C326.009 194.829 337.336 206.155 351.259 206.155C365.183 206.155 376.511 194.829 376.511 180.907V158.702V157.452H375.261H371.261Z" fill="white"/>
<path d="M435.783 118.698V117.448H434.533H430.533H429.283V118.698V155.624L410.324 155.645C396.402 155.645 385.075 166.972 385.075 180.895C385.075 194.817 396.402 206.143 410.325 206.143H418.174C426.006 206.143 435.607 198.417 435.782 188.824L435.783 118.698ZM429.282 188.706C429.179 194.339 422.937 199.643 418.174 199.643H410.325C399.986 199.643 391.575 191.233 391.575 180.895C391.575 170.556 399.987 162.145 410.327 162.145L429.3 162.123C429.33 168.17 429.388 182.905 429.282 188.706Z" fill="white"/>
<path d="M250.765 188.776V139.034C248.501 137.891 246.33 136.595 244.265 135.153V188.776C244.265 198.355 252.059 206.149 261.638 206.149H262.888V204.899V200.899V199.649H261.638C255.643 199.649 250.765 194.771 250.765 188.776Z" fill="white"/>
<path d="M199.166 167.741C199.166 158.048 203.516 149.355 210.359 143.497C208.204 142.668 206.204 141.528 204.411 140.132C197.177 147.122 192.666 156.911 192.666 167.741C192.666 188.923 209.899 206.155 231.082 206.155H232.332V204.905V200.905V199.655H231.082C213.484 199.655 199.166 185.338 199.166 167.741Z" fill="white"/>
<path d="M200.506 43.685C198.984 41.014 198.103 37.933 198.103 34.646C198.103 24.538 206.327 16.314 216.435 16.314C220.174 16.314 223.653 17.445 226.555 19.375C224.4 24.229 223.193 29.595 223.193 35.239C223.193 36.279 223.246 37.305 223.326 38.325C222.611 38.289 221.89 38.27 221.166 38.27C213.665 38.27 206.62 40.244 200.506 43.685ZM196.465 114.791C185.839 107.107 178.905 94.617 178.905 80.531C178.905 76.931 179.36 73.435 180.211 70.098C179.859 70.087 179.507 70.071 179.152 70.071C159.719 70.071 143.91 85.881 143.91 105.314C143.91 124.746 159.719 140.556 179.152 140.556C186.558 140.556 193.434 138.253 199.113 134.335C196.77 130.702 195.404 126.382 195.404 121.747C195.404 119.325 195.776 116.989 196.465 114.791ZM198.045 110.991C201.21 104.938 206.953 100.44 213.811 98.97C214.459 98.829 215.119 98.722 215.786 98.638C216.445 98.554 217.111 98.497 217.785 98.472C218.09 98.46 218.395 98.449 218.703 98.449C219.784 98.449 220.847 98.529 221.889 98.672C221.563 96.295 221.381 93.871 221.381 91.406C221.381 79.562 225.266 68.612 231.823 59.751C230.338 57.901 229.013 55.918 227.878 53.815C227.56 53.224 227.257 52.624 226.968 52.014C226.679 51.407 226.407 50.789 226.15 50.164C225.127 47.685 224.355 45.078 223.856 42.375C222.966 42.313 222.072 42.27 221.167 42.27C214.545 42.27 208.311 43.962 202.873 46.935C202.272 47.264 201.684 47.611 201.102 47.97C200.529 48.325 199.967 48.697 199.414 49.079C193.21 53.384 188.339 59.472 185.542 66.599C185.296 67.226 185.065 67.861 184.852 68.503C184.64 69.144 184.443 69.79 184.264 70.444C183.384 73.66 182.905 77.04 182.905 80.53C182.905 92.948 188.853 103.997 198.045 110.991ZM321.522 65.865C326.62 63.187 332.325 61.522 338.375 61.135C336.811 43.137 321.672 28.966 303.275 28.966C302.571 28.966 301.874 28.992 301.18 29.033C301.502 31.055 301.675 33.127 301.675 35.239C301.675 38.515 301.266 41.697 300.505 44.742C309.349 49.65 316.662 56.992 321.522 65.865ZM227.634 40.795C227.747 41.505 227.887 42.206 228.041 42.901C228.397 44.5 228.857 46.058 229.423 47.568C229.674 48.238 229.948 48.894 230.238 49.545C230.522 50.182 230.825 50.81 231.146 51.427C232.084 53.233 233.169 54.948 234.393 56.554C236.853 53.712 239.6 51.126 242.601 48.856C243.167 48.428 243.745 48.016 244.328 47.611C244.908 47.207 245.498 46.817 246.095 46.436C254.188 41.267 263.756 38.221 274.02 38.089C274.252 38.086 274.482 38.071 274.714 38.071C275.381 38.071 276.042 38.097 276.704 38.121C277.616 38.155 278.523 38.212 279.424 38.291C285.584 38.833 291.444 40.427 296.828 42.892C297.377 40.426 297.675 37.868 297.675 35.24C297.675 33.286 297.508 31.37 297.2 29.501C297.091 28.84 296.962 28.185 296.816 27.536C296.67 26.882 296.505 26.235 296.322 25.597C292.116 10.84 278.521 0 262.433 0C249.16 0 237.58 7.379 231.572 18.248C231.237 18.853 230.918 19.469 230.618 20.096C230.308 20.747 230.021 21.412 229.75 22.085C228.106 26.153 227.192 30.591 227.192 35.24C227.192 36.418 227.253 37.582 227.366 38.73C227.436 39.424 227.526 40.112 227.634 40.795ZM386.368 100.393C385.312 100.393 384.284 100.502 383.274 100.664C383.329 101.537 383.365 102.414 383.365 103.299C383.365 114.524 378.958 124.731 371.794 132.307C375.336 136.393 380.549 138.993 386.368 138.993C397.01 138.993 405.668 130.335 405.668 119.694C405.667 109.051 397.009 100.393 386.368 100.393ZM379.326 101.743C379.298 101.044 379.253 100.35 379.187 99.661C379.123 98.973 379.041 98.292 378.94 97.614C376.253 79.652 361.034 65.74 342.496 65.073C342.033 65.056 341.571 65.038 341.104 65.038C340.9 65.038 340.699 65.05 340.496 65.054C339.824 65.064 339.157 65.093 338.494 65.138C333.039 65.507 327.894 67.023 323.3 69.449C326.066 75.545 327.72 82.246 327.995 89.297C328.022 89.998 328.049 90.699 328.049 91.407C328.049 91.614 328.035 91.817 328.033 92.022C328.022 92.922 327.991 93.815 327.936 94.704C327.122 107.974 321.44 119.942 312.65 128.847C319.659 136.646 329.817 141.562 341.104 141.562C350.849 141.562 359.75 137.894 366.513 131.874C367.025 131.417 367.528 130.95 368.015 130.468C368.506 129.982 368.986 129.484 369.451 128.97C375.608 122.177 379.365 113.169 379.365 103.302C379.365 102.778 379.346 102.26 379.326 101.743ZM229.66 119.887C229.28 119.289 228.913 118.684 228.557 118.071C225.846 113.397 223.824 108.28 222.631 102.852C221.362 102.588 220.048 102.448 218.703 102.448C218.56 102.448 218.422 102.466 218.28 102.469C217.606 102.483 216.942 102.533 216.286 102.615C215.615 102.699 214.956 102.82 214.308 102.97C208.622 104.302 203.909 108.148 201.39 113.273C201.093 113.878 200.828 114.5 200.594 115.138C200.362 115.773 200.163 116.421 199.997 117.083C199.624 118.579 199.404 120.136 199.404 121.745C199.404 125.454 200.474 128.911 202.296 131.854C202.652 132.432 203.036 132.989 203.449 133.522C203.854 134.045 204.282 134.549 204.738 135.028C208.256 138.725 213.209 141.044 218.703 141.044C226.878 141.044 233.866 135.925 236.673 128.73C234.531 126.548 232.576 124.185 230.832 121.664C230.429 121.081 230.04 120.487 229.66 119.887ZM323.886 95.225C323.951 94.379 323.994 93.53 324.016 92.674C324.027 92.252 324.048 91.83 324.048 91.404C324.048 84.325 322.538 77.597 319.842 71.506C319.567 70.885 319.284 70.269 318.985 69.661C318.691 69.065 318.392 68.472 318.075 67.89C313.715 59.882 307.193 53.22 299.308 48.665C298.724 48.327 298.134 48.001 297.536 47.687C296.938 47.374 296.337 47.069 295.724 46.78C289.671 43.919 282.947 42.261 275.857 42.098C275.476 42.09 275.097 42.07 274.714 42.07C274.24 42.07 273.773 42.092 273.302 42.106C272.452 42.129 271.61 42.174 270.772 42.242C262.997 42.86 255.723 45.278 249.375 49.095C248.784 49.45 248.203 49.822 247.628 50.201C247.048 50.583 246.479 50.98 245.916 51.386C242.626 53.761 239.64 56.527 237.025 59.62C236.589 60.138 236.164 60.667 235.748 61.202C235.337 61.731 234.937 62.268 234.548 62.813C228.786 70.885 225.381 80.751 225.381 91.403C225.381 94.214 225.63 96.967 226.085 99.651C226.215 100.422 226.362 101.19 226.528 101.95C226.71 102.778 226.913 103.598 227.135 104.413C228.367 108.911 230.211 113.157 232.589 117.048C232.948 117.638 233.322 118.218 233.706 118.79C234.092 119.364 234.493 119.929 234.902 120.487C235.824 121.745 236.804 122.958 237.838 124.122C238.403 124.757 238.98 125.378 239.575 125.983C240.121 126.538 240.68 127.079 241.252 127.608C250.053 135.745 261.81 140.731 274.713 140.731C287.144 140.731 298.507 136.1 307.192 128.485C307.693 128.047 308.183 127.598 308.666 127.139C309.16 126.67 309.644 126.192 310.119 125.703C317.34 118.252 322.232 108.543 323.626 97.746C323.734 96.913 323.821 96.073 323.886 95.225Z" fill="white"/>
</g>
<defs>
<clipPath id="clip0">
<rect width="435.78" height="206.16" fill="white"/>
</clipPath>
</defs>
</svg>
