<?xml version="1.0" encoding="utf-8"?>
<!-- Generator: Adobe Illustrator 27.3.1, SVG Export Plug-In . SVG Version: 6.00 Build 0)  -->
<svg version="1.1" id="Layer_1" xmlns="http://www.w3.org/2000/svg" xmlns:xlink="http://www.w3.org/1999/xlink" x="0px" y="0px"
	 viewBox="67.717 66.948 435.782 206.158" enable-background="new 67.717 66.948 435.782 206.158" xml:space="preserve">
<g>
</g>
<g>
</g>
<g>
</g>
<g>
	<g>
		<g>
			<g>
				<path fill="#001A41" d="M92.966,222.607c-13.922,0-25.249,11.327-25.249,25.249c0,13.922,11.327,25.249,25.249,25.249
					c13.922,0,25.249-11.327,25.249-25.249C118.215,233.934,106.888,222.607,92.966,222.607z M92.966,266.605
					c-10.338,0-18.749-8.411-18.749-18.749c0-10.338,8.411-18.749,18.749-18.749s18.749,8.411,18.749,18.749
					C111.715,258.193,103.304,266.605,92.966,266.605z"/>
				<path fill="#001A41" d="M185.465,224.4h-1.25v1.25v30.074c0,5.995-4.878,10.873-10.875,10.873
					c-5.996,0-10.875-4.878-10.875-10.873V225.65v-1.25h-1.25h-4h-1.25v1.25v30.074c0,5.995-4.878,10.873-10.875,10.873
					c-5.996,0-10.873-4.878-10.873-10.873V225.65v-1.25h-1.25h-4h-1.25v1.25v30.074c0,9.579,7.793,17.373,17.373,17.373
					c5.821,0,10.97-2.888,14.125-7.294c3.155,4.406,8.303,7.294,14.125,7.294c9.58,0,17.375-7.794,17.375-17.373V225.65v-1.25h-1.25
					H185.465z"/>
				<path fill="#001A41" d="M225.97,222.402c-13.923,0-25.25,11.327-25.25,25.25v22.201v1.25h1.25h4h1.25v-1.25v-22.201
					c0-10.339,8.411-18.75,18.75-18.75c10.34,0,18.752,8.411,18.752,18.75v22.201v1.25h1.25h4h1.25v-1.25v-22.201
					C251.222,233.73,239.894,222.402,225.97,222.402z"/>
			</g>
			<g>
				<path fill="#001A41" d="M360.478,222.605c-13.924,0-25.251,11.327-25.251,25.251c0,13.924,11.327,25.251,25.251,25.251
					c13.924,0,25.251-11.327,25.251-25.251C385.729,233.932,374.402,222.605,360.478,222.605z M360.478,266.607
					c-10.339,0-18.751-8.412-18.751-18.751c0-10.339,8.412-18.751,18.751-18.751c10.339,0,18.751,8.412,18.751,18.751
					C379.229,258.194,370.817,266.607,360.478,266.607z"/>
				<path fill="#001A41" d="M438.977,224.4h-1.25v1.25v22.205c0,10.338-8.412,18.748-18.752,18.748
					c-10.339,0-18.75-8.41-18.75-18.748V225.65v-1.25h-1.25h-4h-1.25v1.25v22.205c0,13.922,11.327,25.248,25.25,25.248
					c13.924,0,25.252-11.326,25.252-25.248V225.65v-1.25h-1.25H438.977z"/>
				<path fill="#001A41" d="M503.499,185.647v-1.25h-1.25h-4h-1.25v1.25v36.926l-18.959,0.021c-13.922,0-25.249,11.327-25.249,25.25
					c0,13.922,11.327,25.248,25.25,25.248h7.849c7.832,0,17.433-7.726,17.608-17.319L503.499,185.647z M496.998,255.655
					c-0.103,5.633-6.345,10.936-11.108,10.936h-7.849c-10.339,0-18.75-8.41-18.75-18.748c0-10.339,8.412-18.75,18.752-18.75
					l18.973-0.022C497.046,235.119,497.104,249.854,496.998,255.655z"/>
				<path fill="#001A41" d="M318.481,255.725v-49.742c-2.264-1.143-4.435-2.439-6.5-3.881v53.623
					c0,9.579,7.794,17.373,17.373,17.373h1.25v-1.25v-4v-1.25h-1.25C323.359,266.598,318.481,261.72,318.481,255.725z"/>
				<path fill="#001A41" d="M266.883,234.69c0-9.693,4.35-18.386,11.193-24.244c-2.155-0.829-4.155-1.969-5.948-3.365
					c-7.234,6.99-11.745,16.779-11.745,27.609c0,21.182,17.233,38.414,38.416,38.414h1.25v-1.25v-4v-1.25h-1.25
					C281.201,266.604,266.883,252.287,266.883,234.69z"/>
			</g>
		</g>
		<path fill="#001A41" d="M268.223,110.634c-1.522-2.671-2.403-5.752-2.403-9.039c0-10.108,8.224-18.332,18.332-18.332
			c3.739,0,7.218,1.131,10.12,3.061c-2.154,4.854-3.362,10.22-3.362,15.864c0,1.04,0.053,2.066,0.133,3.086
			c-0.715-0.036-1.436-0.055-2.16-0.055C281.381,105.219,274.336,107.193,268.223,110.634z M264.181,181.74
			c-10.626-7.684-17.56-20.174-17.56-34.26c0-3.6,0.455-7.096,1.306-10.434c-0.352-0.011-0.704-0.027-1.059-0.027
			c-19.433,0-35.242,15.81-35.242,35.243c0,19.432,15.809,35.242,35.242,35.242c7.406,0,14.282-2.303,19.961-6.221
			c-2.343-3.633-3.709-7.953-3.709-12.588C263.12,186.274,263.492,183.938,264.181,181.74z M265.762,177.94
			c3.165-6.053,8.908-10.551,15.766-12.021c0.648-0.141,1.308-0.248,1.975-0.332c0.659-0.084,1.325-0.141,1.999-0.166
			c0.305-0.012,0.61-0.023,0.918-0.023c1.081,0,2.144,0.08,3.186,0.223c-0.326-2.377-0.508-4.801-0.508-7.266
			c0-11.844,3.885-22.794,10.441-31.655c-1.485-1.85-2.811-3.833-3.945-5.936c-0.318-0.591-0.621-1.191-0.91-1.801
			c-0.289-0.607-0.56-1.225-0.818-1.85c-1.023-2.479-1.794-5.086-2.293-7.789c-0.89-0.062-1.784-0.104-2.689-0.104
			c-6.622,0-12.856,1.692-18.294,4.665c-0.601,0.329-1.189,0.676-1.77,1.035c-0.573,0.355-1.135,0.727-1.688,1.109
			c-6.204,4.305-11.075,10.393-13.872,17.52c-0.246,0.627-0.477,1.262-0.69,1.904c-0.212,0.641-0.409,1.287-0.588,1.941
			c-0.88,3.216-1.359,6.596-1.359,10.086C250.621,159.897,256.57,170.945,265.762,177.94z M389.238,132.814
			c5.098-2.678,10.803-4.343,16.852-4.73c-1.563-17.998-16.703-32.169-35.1-32.169c-0.704,0-1.401,0.026-2.095,0.067
			c0.322,2.022,0.495,4.094,0.495,6.206c0,3.276-0.409,6.458-1.17,9.503C377.065,116.599,384.378,123.941,389.238,132.814z
			 M295.35,107.744c0.113,0.71,0.253,1.411,0.407,2.106c0.357,1.599,0.816,3.157,1.382,4.667c0.251,0.67,0.525,1.326,0.815,1.977
			c0.284,0.637,0.587,1.265,0.908,1.882c0.938,1.806,2.023,3.521,3.247,5.127c2.46-2.842,5.207-5.428,8.208-7.698
			c0.565-0.428,1.144-0.84,1.727-1.245c0.58-0.404,1.17-0.794,1.767-1.175c8.093-5.169,17.661-8.215,27.925-8.347
			c0.233-0.003,0.462-0.018,0.694-0.018c0.667,0,1.328,0.026,1.99,0.05c0.912,0.034,1.819,0.091,2.72,0.17
			c6.16,0.542,12.02,2.136,17.404,4.601c0.549-2.466,0.847-5.024,0.847-7.652c0-1.954-0.167-3.87-0.475-5.739
			c-0.109-0.661-0.238-1.316-0.384-1.965c-0.146-0.654-0.311-1.301-0.494-1.939c-4.206-14.757-17.801-25.596-33.889-25.596
			c-13.273,0-24.852,7.378-30.861,18.247c-0.335,0.605-0.654,1.221-0.954,1.848c-0.311,0.651-0.597,1.316-0.868,1.989
			c-1.643,4.068-2.558,8.506-2.558,13.155c0,1.178,0.06,2.342,0.174,3.49C295.152,106.373,295.242,107.061,295.35,107.744z
			 M454.084,167.342c-1.056,0-2.084,0.109-3.094,0.271c0.055,0.873,0.091,1.75,0.091,2.635c0,11.225-4.407,21.432-11.571,29.008
			c3.542,4.086,8.755,6.686,14.574,6.686c10.642,0,19.3-8.658,19.3-19.299C473.384,176,464.725,167.342,454.084,167.342z
			 M447.042,168.692c-0.028-0.699-0.073-1.393-0.139-2.082c-0.064-0.688-0.145-1.369-0.247-2.047
			c-2.687-17.962-17.906-31.874-36.444-32.542c-0.463-0.017-0.925-0.035-1.392-0.035c-0.204,0-0.405,0.012-0.608,0.016
			c-0.672,0.01-1.339,0.039-2.002,0.084c-5.455,0.369-10.6,1.885-15.194,4.311c2.766,6.096,4.42,12.797,4.695,19.848
			c0.027,0.701,0.054,1.402,0.054,2.11c0,0.207-0.014,0.41-0.016,0.615c-0.011,0.9-0.042,1.793-0.097,2.682
			c-0.814,13.27-6.496,25.238-15.286,34.143c7.009,7.799,17.167,12.715,28.454,12.715c9.745,0,18.646-3.668,25.409-9.688
			c0.512-0.457,1.015-0.924,1.502-1.406c0.491-0.486,0.971-0.984,1.435-1.498c6.157-6.793,9.914-15.801,9.914-25.668
			C447.081,169.727,447.062,169.209,447.042,168.692z M297.376,186.836c-0.38-0.598-0.747-1.203-1.103-1.816
			c-2.711-4.674-4.733-9.791-5.925-15.219c-1.269-0.264-2.583-0.404-3.928-0.404c-0.143,0-0.281,0.018-0.423,0.021
			c-0.674,0.014-1.338,0.064-1.994,0.146c-0.671,0.084-1.33,0.205-1.978,0.355c-5.686,1.332-10.399,5.178-12.918,10.303
			c-0.297,0.605-0.562,1.227-0.796,1.865c-0.232,0.635-0.431,1.283-0.597,1.945c-0.373,1.496-0.593,3.053-0.593,4.662
			c0,3.709,1.07,7.166,2.892,10.109c0.357,0.578,0.74,1.135,1.153,1.668c0.405,0.523,0.833,1.027,1.289,1.506
			c3.518,3.697,8.471,6.016,13.965,6.016c8.175,0,15.162-5.119,17.97-12.314c-2.142-2.182-4.097-4.545-5.841-7.066
			C298.145,188.029,297.757,187.436,297.376,186.836z M391.602,162.174c0.064-0.846,0.108-1.695,0.13-2.551
			c0.011-0.422,0.032-0.844,0.032-1.27c0-7.079-1.51-13.807-4.206-19.898c-0.275-0.621-0.558-1.237-0.857-1.845
			c-0.294-0.596-0.593-1.189-0.91-1.771c-4.36-8.008-10.882-14.67-18.767-19.225c-0.584-0.338-1.174-0.664-1.772-0.978
			c-0.598-0.313-1.199-0.618-1.812-0.907c-6.053-2.861-12.777-4.519-19.867-4.682c-0.381-0.008-0.76-0.028-1.143-0.028
			c-0.474,0-0.941,0.022-1.412,0.036c-0.85,0.023-1.692,0.068-2.53,0.136c-7.775,0.618-15.049,3.036-21.398,6.853
			c-0.591,0.355-1.172,0.727-1.747,1.106c-0.58,0.382-1.15,0.779-1.712,1.185c-3.29,2.375-6.276,5.141-8.891,8.234
			c-0.436,0.517-0.861,1.047-1.277,1.582c-0.411,0.529-0.811,1.066-1.2,1.611c-5.762,8.072-9.166,17.939-9.166,28.59
			c0,2.811,0.249,5.564,0.703,8.248c0.13,0.771,0.277,1.539,0.443,2.299c0.182,0.828,0.385,1.648,0.607,2.463
			c1.231,4.498,3.076,8.744,5.454,12.635c0.359,0.59,0.733,1.17,1.117,1.742c0.386,0.574,0.787,1.139,1.196,1.697
			c0.922,1.258,1.902,2.471,2.937,3.635c0.564,0.635,1.142,1.256,1.737,1.861c0.546,0.555,1.105,1.096,1.677,1.625
			c8.801,8.137,20.558,13.123,33.461,13.123c12.431,0,23.794-4.631,32.479-12.246c0.501-0.438,0.991-0.887,1.474-1.346
			c0.494-0.469,0.978-0.947,1.453-1.436c7.221-7.451,12.113-17.16,13.507-27.957C391.45,163.861,391.537,163.022,391.602,162.174z"
			/>
	</g>
	<g display="none">
		<g display="inline">
			<path fill="#001A41" d="M129.103,318.727c0.831,0.783,1.781,1.419,2.85,1.905c1.068,0.487,2.137,0.73,3.206,0.73
				c1.33,0,2.338-0.272,3.027-0.819c0.688-0.546,1.033-1.27,1.033-2.173c0-0.475-0.089-0.878-0.267-1.211
				c-0.178-0.332-0.428-0.623-0.748-0.872c-0.321-0.25-0.701-0.481-1.14-0.695c-0.44-0.214-0.921-0.427-1.443-0.641l-3.206-1.39
				c-0.57-0.236-1.134-0.534-1.692-0.89c-0.558-0.356-1.063-0.784-1.514-1.283c-0.451-0.498-0.813-1.08-1.086-1.745
				c-0.273-0.664-0.41-1.425-0.41-2.279c0-0.926,0.196-1.786,0.588-2.582s0.932-1.49,1.621-2.084
				c0.688-0.593,1.514-1.057,2.476-1.389c0.961-0.333,2.012-0.499,3.152-0.499c1.354,0,2.659,0.268,3.918,0.802
				c1.258,0.534,2.338,1.252,3.241,2.154l-2.102,2.636c-0.76-0.617-1.544-1.104-2.351-1.46s-1.709-0.534-2.707-0.534
				c-1.116,0-2.007,0.243-2.671,0.729c-0.666,0.487-0.998,1.158-0.998,2.013c0,0.451,0.101,0.837,0.303,1.158
				c0.202,0.32,0.475,0.605,0.819,0.854c0.344,0.249,0.742,0.476,1.193,0.677c0.451,0.202,0.914,0.397,1.389,0.588l3.17,1.317
				c0.688,0.285,1.318,0.618,1.888,0.997c0.57,0.381,1.062,0.819,1.478,1.318c0.415,0.499,0.742,1.074,0.979,1.728
				c0.237,0.653,0.356,1.407,0.356,2.262c0,0.95-0.19,1.841-0.57,2.671c-0.38,0.832-0.932,1.562-1.656,2.19
				c-0.725,0.63-1.603,1.129-2.636,1.496c-1.033,0.368-2.203,0.553-3.508,0.553c-1.567,0-3.081-0.298-4.541-0.891
				c-1.46-0.594-2.749-1.437-3.865-2.529L129.103,318.727z"/>
			<path fill="#001A41" d="M153.38,304.729h-6.731v-3.49h17.595v3.49h-6.732v19.804h-4.132V304.729z"/>
			<path fill="#001A41" d="M176.628,324.961c-1.52,0-2.909-0.279-4.167-0.837c-1.259-0.558-2.339-1.365-3.241-2.423
				c-0.903-1.056-1.603-2.333-2.102-3.828c-0.499-1.496-0.748-3.193-0.748-5.094c0-1.876,0.25-3.556,0.748-5.04
				c0.499-1.483,1.199-2.736,2.102-3.758c0.902-1.021,1.982-1.804,3.241-2.351c1.258-0.546,2.647-0.819,4.167-0.819
				c1.519,0,2.908,0.273,4.167,0.819c1.258,0.547,2.345,1.33,3.259,2.351c0.914,1.021,1.621,2.274,2.119,3.758
				c0.499,1.484,0.748,3.164,0.748,5.04c0,1.9-0.25,3.598-0.748,5.094c-0.499,1.495-1.206,2.772-2.119,3.828
				c-0.915,1.058-2.001,1.865-3.259,2.423C179.536,324.681,178.147,324.961,176.628,324.961z M176.628,321.363
				c0.926,0,1.757-0.201,2.493-0.605c0.736-0.403,1.365-0.979,1.888-1.728c0.522-0.748,0.926-1.65,1.211-2.707
				c0.285-1.057,0.428-2.238,0.428-3.544c0-2.612-0.541-4.66-1.621-6.145c-1.081-1.483-2.547-2.226-4.399-2.226
				s-3.319,0.742-4.399,2.226c-1.081,1.484-1.621,3.532-1.621,6.145c0,1.306,0.143,2.487,0.427,3.544
				c0.285,1.057,0.688,1.959,1.211,2.707s1.152,1.324,1.888,1.728C174.87,321.162,175.702,321.363,176.628,321.363z"/>
			<path fill="#001A41" d="M204.089,324.533l-5.022-9.118h-3.562v9.118h-4.131v-23.294h7.872c1.211,0,2.338,0.119,3.383,0.355
				c1.045,0.238,1.947,0.624,2.707,1.158c0.76,0.534,1.359,1.241,1.799,2.119c0.439,0.879,0.659,1.971,0.659,3.276
				c0,1.781-0.422,3.219-1.265,4.311c-0.843,1.092-1.965,1.876-3.366,2.351l5.556,9.724H204.089z M195.505,312.137h3.312
				c1.591,0,2.808-0.332,3.651-0.997c0.843-0.664,1.265-1.662,1.265-2.992c0-1.354-0.422-2.291-1.265-2.813
				c-0.843-0.521-2.06-0.783-3.651-0.783h-3.312V312.137z"/>
			<path fill="#001A41" d="M212.812,301.239h14.033v3.49h-9.902v5.948h8.371v3.49h-8.371v6.875h10.258v3.49h-14.39V301.239z"/>
			<path fill="#001A41" d="M232.388,322.182c0-0.808,0.255-1.473,0.766-1.995c0.51-0.521,1.146-0.783,1.906-0.783
				c0.759,0,1.389,0.262,1.888,0.783c0.499,0.522,0.748,1.188,0.748,1.995s-0.25,1.473-0.748,1.994
				c-0.499,0.522-1.128,0.784-1.888,0.784c-0.76,0-1.396-0.262-1.906-0.784C232.643,323.655,232.388,322.99,232.388,322.182z"/>
		</g>
		<g display="inline">
			<path fill="#001A41" d="M254.836,318.727c0.831,0.783,1.781,1.419,2.85,1.905c1.068,0.487,2.137,0.73,3.206,0.73
				c1.33,0,2.338-0.272,3.027-0.819c0.688-0.546,1.033-1.27,1.033-2.173c0-0.475-0.089-0.878-0.267-1.211
				c-0.178-0.332-0.428-0.623-0.748-0.872c-0.321-0.25-0.701-0.481-1.14-0.695c-0.44-0.214-0.921-0.427-1.443-0.641l-3.206-1.39
				c-0.57-0.236-1.134-0.534-1.692-0.89c-0.558-0.356-1.063-0.784-1.514-1.283c-0.451-0.498-0.813-1.08-1.086-1.745
				c-0.273-0.664-0.41-1.425-0.41-2.279c0-0.926,0.196-1.786,0.588-2.582s0.932-1.49,1.621-2.084
				c0.688-0.593,1.514-1.057,2.476-1.389c0.961-0.333,2.012-0.499,3.152-0.499c1.354,0,2.659,0.268,3.918,0.802
				c1.258,0.534,2.338,1.252,3.241,2.154l-2.102,2.636c-0.76-0.617-1.544-1.104-2.351-1.46s-1.709-0.534-2.707-0.534
				c-1.116,0-2.007,0.243-2.671,0.729c-0.666,0.487-0.998,1.158-0.998,2.013c0,0.451,0.101,0.837,0.303,1.158
				c0.202,0.32,0.475,0.605,0.819,0.854c0.344,0.249,0.742,0.476,1.193,0.677c0.451,0.202,0.914,0.397,1.389,0.588l3.17,1.317
				c0.688,0.285,1.318,0.618,1.888,0.997c0.57,0.381,1.062,0.819,1.478,1.318c0.415,0.499,0.742,1.074,0.979,1.728
				c0.237,0.653,0.356,1.407,0.356,2.262c0,0.95-0.19,1.841-0.57,2.671c-0.38,0.832-0.932,1.562-1.656,2.19
				c-0.725,0.63-1.603,1.129-2.636,1.496c-1.033,0.368-2.203,0.553-3.508,0.553c-1.567,0-3.081-0.298-4.541-0.891
				c-1.46-0.594-2.749-1.437-3.865-2.529L254.836,318.727z"/>
			<path fill="#001A41" d="M273.393,301.239h4.131v9.367h9.439v-9.367h4.132v23.294h-4.132v-10.329h-9.439v10.329h-4.131V301.239z"
				/>
			<path fill="#001A41" d="M308.868,318.228h-7.836l-1.816,6.305h-4.203l7.587-23.294h4.844l7.587,23.294h-4.346L308.868,318.228z
				 M307.942,314.987l-0.819-2.85c-0.38-1.234-0.742-2.505-1.087-3.811c-0.344-1.306-0.683-2.601-1.015-3.883h-0.143
				c-0.333,1.307-0.665,2.606-0.997,3.9c-0.333,1.295-0.689,2.559-1.068,3.793l-0.819,2.85H307.942z"/>
			<path fill="#001A41" d="M331.628,324.533l-5.022-9.118h-3.562v9.118h-4.132v-23.294h7.872c1.211,0,2.338,0.119,3.384,0.355
				c1.044,0.238,1.946,0.624,2.707,1.158c0.76,0.534,1.358,1.241,1.799,2.119c0.438,0.879,0.658,1.971,0.658,3.276
				c0,1.781-0.422,3.219-1.265,4.311s-1.965,1.876-3.365,2.351l5.557,9.724H331.628z M323.044,312.137h3.312
				c1.591,0,2.808-0.332,3.651-0.997c0.842-0.664,1.264-1.662,1.264-2.992c0-1.354-0.422-2.291-1.264-2.813
				c-0.844-0.521-2.061-0.783-3.651-0.783h-3.312V312.137z"/>
			<path fill="#001A41" d="M340.854,301.239h14.034v3.49h-9.902v5.948h8.37v3.49h-8.37v6.875h10.258v3.49h-14.39V301.239z"/>
			<path fill="#001A41" d="M360.372,322.182c0-0.808,0.255-1.473,0.766-1.995c0.511-0.521,1.146-0.783,1.905-0.783
				s1.39,0.262,1.888,0.783c0.499,0.522,0.748,1.188,0.748,1.995s-0.249,1.473-0.748,1.994c-0.498,0.522-1.128,0.784-1.888,0.784
				s-1.395-0.262-1.905-0.784C360.627,323.655,360.372,322.99,360.372,322.182z"/>
		</g>
		<g display="inline">
			<path fill="#001A41" d="M378.258,301.239h4.238l2.03,11.754c0.189,1.259,0.379,2.505,0.569,3.739
				c0.19,1.235,0.38,2.471,0.57,3.705h0.143c0.261-1.234,0.517-2.476,0.766-3.723c0.249-1.246,0.504-2.487,0.766-3.722l2.85-11.754
				h3.598l2.85,11.754c0.261,1.211,0.521,2.439,0.783,3.687c0.261,1.246,0.522,2.499,0.783,3.758h0.143
				c0.19-1.259,0.374-2.505,0.553-3.74c0.178-1.234,0.361-2.47,0.552-3.704l2.03-11.754h3.953l-4.452,23.294h-5.129l-2.885-12.253
				c-0.19-0.901-0.374-1.799-0.552-2.688c-0.179-0.891-0.339-1.787-0.481-2.689h-0.143c-0.166,0.902-0.338,1.799-0.517,2.689
				c-0.178,0.89-0.362,1.787-0.552,2.688l-2.813,12.253h-5.022L378.258,301.239z"/>
			<path fill="#001A41" d="M418.256,324.961c-1.52,0-2.908-0.279-4.167-0.837s-2.339-1.365-3.241-2.423
				c-0.902-1.056-1.603-2.333-2.102-3.828c-0.499-1.496-0.748-3.193-0.748-5.094c0-1.876,0.249-3.556,0.748-5.04
				c0.499-1.483,1.199-2.736,2.102-3.758c0.902-1.021,1.982-1.804,3.241-2.351c1.259-0.546,2.647-0.819,4.167-0.819
				s2.909,0.273,4.168,0.819c1.258,0.547,2.345,1.33,3.259,2.351c0.914,1.021,1.621,2.274,2.119,3.758
				c0.499,1.484,0.748,3.164,0.748,5.04c0,1.9-0.249,3.598-0.748,5.094c-0.498,1.495-1.205,2.772-2.119,3.828
				c-0.914,1.058-2.001,1.865-3.259,2.423C421.165,324.681,419.775,324.961,418.256,324.961z M418.256,321.363
				c0.927,0,1.758-0.201,2.493-0.605c0.736-0.403,1.365-0.979,1.889-1.728c0.521-0.748,0.926-1.65,1.211-2.707
				c0.284-1.057,0.427-2.238,0.427-3.544c0-2.612-0.54-4.66-1.62-6.145c-1.081-1.483-2.547-2.226-4.399-2.226
				c-1.852,0-3.318,0.742-4.398,2.226c-1.081,1.484-1.621,3.532-1.621,6.145c0,1.306,0.143,2.487,0.428,3.544
				s0.688,1.959,1.211,2.707s1.151,1.324,1.888,1.728C416.499,321.162,417.33,321.363,418.256,321.363z"/>
			<path fill="#001A41" d="M445.824,324.533l-5.022-9.118h-3.562v9.118h-4.132v-23.294h7.872c1.211,0,2.338,0.119,3.384,0.355
				c1.044,0.238,1.946,0.624,2.707,1.158c0.76,0.534,1.358,1.241,1.799,2.119c0.438,0.879,0.658,1.971,0.658,3.276
				c0,1.781-0.422,3.219-1.265,4.311s-1.965,1.876-3.365,2.351l5.557,9.724H445.824z M437.24,312.137h3.312
				c1.591,0,2.808-0.332,3.651-0.997c0.842-0.664,1.264-1.662,1.264-2.992c0-1.354-0.422-2.291-1.264-2.813
				c-0.844-0.521-2.061-0.783-3.651-0.783h-3.312V312.137z"/>
			<path fill="#001A41" d="M455.05,301.239h4.132v10.578h0.107l8.299-10.578h4.595l-7.159,9.082l8.37,14.212h-4.56l-6.304-10.971
				l-3.349,4.168v6.803h-4.132V301.239z"/>
			<path fill="#001A41" d="M477.097,322.182c0-0.808,0.255-1.473,0.766-1.995c0.511-0.521,1.146-0.783,1.905-0.783
				s1.39,0.262,1.888,0.783c0.499,0.522,0.748,1.188,0.748,1.995s-0.249,1.473-0.748,1.994c-0.498,0.522-1.128,0.784-1.888,0.784
				s-1.395-0.262-1.905-0.784C477.352,323.655,477.097,322.99,477.097,322.182z"/>
		</g>
	</g>
</g>
</svg>
