<?xml version="1.0" encoding="utf-8"?>
<!-- Generator: Adobe Illustrator 19.2.1, SVG Export Plug-In . SVG Version: 6.00 Build 0)  -->
<svg version="1.1" xmlns="http://www.w3.org/2000/svg" xmlns:xlink="http://www.w3.org/1999/xlink" x="0px" y="0px"
	 viewBox="0 0 1432.3 334.7" style="enable-background:new 0 0 1432.3 334.7;" xml:space="preserve">
<style type="text/css">
	.st0{fill:none;}
	.st1{fill:#414042;}
	.st2{fill:#00B3F0;}
</style>
<g id="Layer_1">
	<g>
		<g>
			<path class="st1" d="M512.2,333.7h-37V145.5c0-14.7,2.8-28.9,8.3-42.3c5.5-13.4,13.5-25.5,24-35.9c10.2-10.2,22.1-18.2,35.5-23.8
				c13.4-5.6,27.6-8.5,42.4-8.5c14.7,0,29,2.9,42.4,8.5c13.4,5.6,25.3,13.6,35.5,23.8c10.4,10.4,18.5,22.5,24,35.9
				c5.5,13.4,8.3,27.6,8.3,42.3c0,14.4-2.8,28.6-8.3,41.9c-5.5,13.4-13.6,25.5-24,35.9c-10.2,10.2-22.1,18.2-35.5,23.8
				c-13.4,5.6-27.6,8.5-42.4,8.5c-14.7,0-29-2.9-42.4-8.5c-11.4-4.8-21.7-11.3-30.7-19.3V333.7z M585.3,72c-10,0-19.6,1.9-28.4,5.7
				c-8.9,3.8-16.7,9.1-23.3,15.7c-6.6,6.6-11.9,14.5-15.7,23.4c-3.8,9-5.8,18.6-5.8,28.6s1.9,19.6,5.7,28.4
				c3.8,8.9,9.1,16.7,15.7,23.3c6.6,6.6,14.4,11.9,23.3,15.7c8.8,3.8,18.4,5.7,28.4,5.7c10,0,19.6-1.9,28.4-5.7
				c8.9-3.8,16.7-9.1,23.3-15.7c6.6-6.6,11.8-14.4,15.7-23.3c3.8-8.8,5.7-18.4,5.7-28.4c0-10-1.9-19.7-5.8-28.6
				c-3.8-9-9.1-16.9-15.7-23.4c-6.6-6.6-14.4-11.8-23.3-15.7C604.9,74,595.3,72,585.3,72z"/>
		</g>
	</g>
	<g>
		<g>
			<path class="st1" d="M832.7,255.6c-14.7,0-29-2.9-42.4-8.5c-13.4-5.6-25.3-13.6-35.5-23.8c-10.4-10.4-18.5-22.5-24-35.9
				c-5.5-13.4-8.3-27.5-8.3-41.9c0-14.7,2.8-28.9,8.3-42.3c5.5-13.4,13.6-25.5,24-35.9c10.2-10.2,22.1-18.2,35.5-23.8
				c13.4-5.6,27.6-8.5,42.4-8.5c14.7,0,29,2.9,42.4,8.5c13.4,5.6,25.3,13.6,35.5,23.8c10.4,10.4,18.5,22.5,24,35.9
				c5.5,13.4,8.3,27.6,8.3,42.3v101.2h-37v-20c-2.8,2.9-5.8,5.6-8.8,7.9c-6.5,5-13.4,9.1-20.5,12.2c-7.1,3.1-14.5,5.3-22.1,6.7
				C846.9,254.9,839.7,255.6,832.7,255.6z M832.7,72c-10,0-19.6,1.9-28.4,5.7c-8.9,3.8-16.7,9.1-23.3,15.7
				c-6.6,6.6-11.8,14.4-15.7,23.4c-3.8,9-5.8,18.6-5.8,28.6c0,10,1.9,19.6,5.7,28.4c3.8,8.9,9.1,16.7,15.7,23.3
				c6.6,6.6,14.4,11.9,23.3,15.7c8.8,3.8,18.4,5.7,28.4,5.7c10,0,19.6-1.9,28.4-5.7c8.9-3.8,16.7-9.1,23.3-15.7
				c6.6-6.6,11.9-14.4,15.7-23.3c3.8-8.8,5.7-18.4,5.7-28.4c0-10-1.9-19.7-5.8-28.6c-3.8-9-9.1-16.9-15.7-23.4
				c-6.6-6.6-14.4-11.8-23.3-15.7C852.3,74,842.8,72,832.7,72z"/>
		</g>
	</g>
	<g>
		<g>
			<path class="st1" d="M1321.4,255.7c-14.7,0-28.9-2.9-42.2-8.5c-13.2-5.6-25.2-13.6-35.6-23.7c-10.2-10.5-18.2-22.6-23.8-35.9
				c-5.6-13.4-8.5-27.5-8.5-42c0-14.7,2.8-29,8.5-42.4c5.6-13.4,13.6-25.4,23.7-35.8c10.5-10.2,22.5-18.2,35.7-23.8
				c13.3-5.6,27.5-8.5,42.2-8.5c14.7,0,29,2.9,42.4,8.5c13.3,5.6,25.4,13.6,35.8,23.7c10.2,10.5,18.2,22.6,23.8,35.9
				c5.6,13.4,8.5,27.6,8.5,42.4c0,14.5-2.8,28.6-8.5,42c-5.6,13.4-13.6,25.4-23.7,35.8c-10.5,10.2-22.6,18.2-35.9,23.8
				C1350.4,252.8,1336.1,255.7,1321.4,255.7z M1321.4,72.1c-10,0-19.6,1.9-28.4,5.7c-8.9,3.8-16.7,9.1-23.3,15.7
				c-6.6,6.6-11.9,14.5-15.7,23.4c-3.8,8.9-5.8,18.6-5.8,28.6c0,10,1.9,19.6,5.7,28.4c3.8,8.9,9.1,16.7,15.7,23.3
				c6.6,6.6,14.4,11.9,23.3,15.7c8.8,3.8,18.4,5.7,28.4,5.7c10,0,19.6-1.9,28.4-5.7c8.9-3.8,16.8-9.1,23.5-15.7
				c6.7-6.6,12-14.4,15.8-23.2c3.8-8.8,5.8-18.4,5.8-28.4c0-10-1.9-19.7-5.8-28.6c-3.8-9-9.2-16.8-15.8-23.4
				c-6.7-6.6-14.6-11.9-23.5-15.7C1341,74,1331.5,72.1,1321.4,72.1z"/>
		</g>
	</g>
	<g>
		<g>
			<path class="st1" d="M37,290.9H0V0h37V290.9z"/>
		</g>
	</g>
	<g>
		<g>
			<path class="st1" d="M192.4,291.2L70.7,169.4c-6.4-6.4-9.9-14.8-9.9-23.9c0-9,3.5-17.5,9.9-23.9L192.4,0l26.2,26.2L106.1,138.7
				c-1.8,1.8-2.8,4.3-2.8,6.9c0,2.6,1,5,2.8,6.9L218.6,265L192.4,291.2z"/>
		</g>
	</g>
	<path class="st2" d="M334,145.6c0-2.6-1-5-2.8-6.9l-3.5-3.5c0,0,0,0,0,0l-70-70l-2.3,2.4c-10.1,10.4-18,22.4-23.6,35.6
		c-5.6,13.4-8.5,27.6-8.5,42.4c0,14.5,2.9,28.6,8.5,42c5.6,13.3,13.6,25.4,23.8,35.8l2.3,2.4l69.8-69.8l0,0l3.5-3.5
		C333,150.6,334,148.2,334,145.6z"/>
	<path class="st1" d="M435.4,103.2L435.4,103.2c-5.6-13.4-13.6-25.4-23.8-35.9c-10.4-10.2-22.5-18.1-35.8-23.7
		c-13.4-5.6-27.6-8.5-42.4-8.5c-14.7,0-28.9,2.9-42.2,8.5c-0.7,0.3-1.3,0.6-2,0.9l29.2,29.2c4.9-1,9.9-1.6,15-1.6
		c10,0,19.6,1.9,28.4,5.7c8.9,3.8,16.8,9.1,23.5,15.7c6.7,6.6,12,14.4,15.8,23.4c3.8,9,5.8,18.6,5.8,28.6c0,10-1.9,19.6-5.8,28.4
		c-3.8,8.9-9.2,16.7-15.8,23.2c-6.7,6.6-14.6,11.9-23.5,15.7c-8.8,3.8-18.4,5.7-28.4,5.7c-5,0-9.9-0.5-14.7-1.5l-29.2,29.2
		c0.6,0.3,1.1,0.5,1.7,0.8c13.3,5.6,27.5,8.5,42.2,8.5c14.7,0,29-2.9,42.4-8.5c13.4-5.6,25.4-13.6,35.9-23.8
		c10.1-10.4,18.1-22.5,23.7-35.8c5.6-13.4,8.5-27.5,8.5-42C443.9,130.9,441,116.6,435.4,103.2z"/>
	<path class="st1" d="M1082,35c-55.4,0-100.3,44.9-100.3,100.3h-0.1v44.2v68h37h0.1V135.3c0-35,28.3-63.3,63.3-63.3
		c35,0,63.3,28.3,63.3,63.3h-0.1v112.2h37c0,0,0.1-111.6,0.1-112.2C1182.3,79.9,1137.4,35,1082,35z"/>
	<rect id="_x3C_Slice_x3E_" x="-0.7" y="-0.3" class="st0" width="1433" height="335"/>
</g>
<g id="Layer_2">
</g>
</svg>
