<?xml version="1.0" encoding="utf-8"?>
<!-- Generator: Adobe Illustrator 22.0.1, SVG Export Plug-In . SVG Version: 6.00 Build 0)  -->
<svg version="1.1" id="Layer_1" xmlns="http://www.w3.org/2000/svg" xmlns:xlink="http://www.w3.org/1999/xlink" x="0px" y="0px"
	 viewBox="0 0 7680 4320" style="enable-background:new 0 0 7680 4320;" xml:space="preserve">
<style type="text/css">
	.st0{fill:#00B3F0;}
</style>
<g>
	<g id="Layer_2_4_">
		<g id="Layer_1-2_3_">
			<path class="st0" d="M2294.4,2255.6c12.4-21.7,7.4-36.7-11.4-54.5c-33.2-31.4-45-74.5-52.3-118.8c-0.6-5-1.3-10-1.9-15
				c0-9.1-0.2-18.3-0.3-27.5l2.3-15c5-33.7,14.4-65.9,35.8-93.3c18.1-23.3,43.2-40.1,71.6-48.1c5.7-1.7,13.7,0,16-8.4h47.1
				c26,7.8,52.6,13.7,76,28.4c120.8,75.7,124.5,218.4,7.8,301c-19.6,13.9-19.6,13.9-3.9,30.7c3.9,4.3,7.6,9,11.8,13
				c20.3,18.8,37.5,37.9,69.4,43.4c53.1,9.2,104.4,28.3,156.6,43.2c13.3,3.7,24.7,12.5,31.7,24.4c49.4,76.9,83.6,161.1,119.4,244.6
				c5.4,12.5-1,18.5-9.7,23.9c-6.4,3.9-9.6,6.8-5.5,15.1c15,30.1,22.4,62.8,27.7,95.7c1.2,7.8,2.6,11.6,12.5,12.7
				c33.2,3.6,54.6,31.8,50.5,64.8c-4.5,35.8-20.1,64.7-53.4,81.8c-10.9,6.4-24.3,7.2-35.9,2.2c-3.6-1.7-7.1-3.9-6.6-8.7
				s4.8-5.3,8.7-6c45.6-7.3,77.3-56.4,64.3-99.5c-1.9-6.4-27.7-20.2-33-17.3c-6.3,3.5-3.7,9.1-1.6,13.7c5.6,11.9,8.2,25,7.4,38.1
				c-0.3,6.5-2,12.3-9.7,12.1c-7.6-0.2-9.7-6.2-9.3-12.6c3.3-55.4-19.6-105.4-31.9-157.7c-3.1-13.7-7.8-19.6-21.7-7.8
				c-16.6,14.8-36.5,25.4-58,30.8c57.6,86.9,71.3,207,28.5,255c-5.1-14.1-3.1-27.5-1.6-40.8c4.5-41.9,5.3-83.6-6-124.6
				c-3.2-12-7.4-23.7-12.6-35c-16.7-35.5-26.4-41.6-65.7-37.1c-209.3,23.9-419.2,15.3-629,12.8c-49.2-0.5-98.4-2-146.5,10.9
				c-13.3,3.4-26.2,8-38.6,13.8c-44.6,21.2-57.7,46.9-52.5,96c4.5,41,14.7,81.1,30.4,119.2c2.4,5.9,8.6,14.4-1.3,18.6
				c-8.5,3.6-12.7-4.7-16.4-10.7c-16.6-27.2-24.1-57.7-31-88.3c-3.7-33.6-11.8-67.2,0-100.7c27.5-48.3,73.5-65.5,124.1-74.5
				c17.8-3.2,36.1-3.5,54.3-5.2c2.6,0.3,4.8,0,4.7-3.4c-0.6-10.4-1.3-20.8-2-31.4l-0.8-8.6l-2.1-46.2l0.9-51c3-18.1,4-36.6,3-54.9
				l0.5-7.8c9.2-13.6,10.9-29.9,15.7-45c2.5-7.8-0.4-6,3.5-13.8c3.3-5.7,7.2-10.9,11.8-15.7c55.9-30.6,90.7-52.8,146.7-83.1
				c23.5-12.7,47.1-24.8,73.1-31.9c3.9,2.4,10-1.1,13.9,3.9c-6,5.1-12.4,9.8-19,14c-63.8,34.3-125.2,73.2-190.5,104.9
				c-4.8,2.3-9.7,4.3-11.8,9.8c-10.2,28.2-22.1,56-25.2,86.3c-5.3,50.8-3.7,101.8-4.8,152.7c-0.5,24.1,0.7,25,25,24.5
				c39.9-0.9,79.7-2.1,119.5-2.2c157.4-0.5,314.9,3.9,472.1-7.5c64.1-4.6,125.2-18,180.5-52.3c32-19.9,32.1-20.8,16.8-55.2
				c-32-72.2-59.8-146.4-102.4-213.5c-6-10.1-15.8-17.5-27.2-20.5c-43.2-12.4-86.3-25.5-129.5-38.6c-15.5-4.8-32.2-4-47.1,2.4
				c-72.5,27.5-145.7,35.8-218.1-0.9c-8.1-3.9-21-0.5-23.8-13.7C2293.8,2283.7,2289.2,2268.4,2294.4,2255.6z M2463.9,2217.8
				c-44.9,19.6-90.2,35.3-139.3,14.4c-6.5-2.7-9.3,0.4-9.7,7.3c-1.2,18.3-7.8,35.3-14.4,50.5c71.4,32.8,142.9,28.9,218.3,4.2
				c-19.6-14.7-35.6-28.6-48.1-46.1c-5.3-7.3-12.1-14.3-6.9-24.6c2.1-0.6,4.9-0.9,3.9-3.9
				C2467.8,2218.7,2465.4,2218.4,2463.9,2217.8z M2251.3,2050.3c-0.5,29.3,4.9,58.3,15.7,85.5c23.9,62.2,73.5,95.7,128.5,86.3
				c37-6.1,71.5-22.4,99.7-47.1c76.1-66.2,72.7-176.6-7-238.3c-29-3-47.7-27.5-74.8-35.3c-64.1-18.4-123.7,9.9-148.3,71.9
				C2255.3,1997.7,2250.5,2024,2251.3,2050.3z"/>
			<path class="st0" d="M2005.1,2490.1l-0.4,7.8"/>
		</g>
	</g>
</g>
<g>
	<g id="Layer_2_1_">
		<g id="Layer_1-2_4_">
			<path class="st0" d="M5923.4,3168.7c0.5,2.6,1.1,5.3,1.6,7.8c-2.1,20.9-2,41.9,0.4,62.8c-3.9,39.7-1.6,79.6-2.7,119.4
				c-0.4,16.9,12.4,10.2,19.6,9.2c42.6-5.9,85.3-12.6,127.8-19.4c194.7-31.4,388.9-65.5,581.2-109.4
				c148.4-33.9,296.2-70.2,439.8-121.6c39.2-14.1,78.2-29.7,114.4-51c12-6.8,23.1-14.9,33.2-24.2c25.4-24.3,26.2-45.4,1.8-71
				c-34.3-35.9-78.5-56.4-123.2-74.5c-110.6-45-226.4-71.9-342.6-97.5c-33.1-7.3-66.3-13.9-99.4-21.2c-6-1.3-13.2-0.7-18.4-7.5
				c10.9-5.7,21,0,30.4,2c130.6,26.7,261.4,52.9,387.8,96.3c58.9,20.2,116.4,43.2,164.3,85.1c41.2,36.1,41.6,71.4-1.1,106.2
				c-31.8,25.9-68.9,42.7-106.5,57.8c-153,60.9-312.2,100.1-472.1,136.7c-237.6,54.3-477.7,95.4-718.8,130.2
				c-14.5,2.1-19.6,7.8-19.2,22.7c0.7,24.2-0.9,48.4-1.5,72.5c0.3,12.4-2.4,24.8-7.8,36c-3.9,7.8-6.6,17.2-1.2,26.1
				c2.7,4.4,7.8,9.3,2,13.6c-4.8,3.7-9.9-1.3-14.3-3.6c-31.4-16.3-62.6-32.8-93.7-49.4c-40.9-21.9-82.1-43.4-122.4-66.3
				c-13.5-8-29.4-10.9-44.9-8.2c-26.4,4.1-52.9,8.2-79.5,11c-11,1.1-14.6,5.2-14.4,15.7c0.5,22.9,0.3,45.8,0.2,68.7
				c0,16.3-0.3,32.2-7.3,47.9c-3.9,9.4-6.7,21.3,2,31.4c2.7,3.2,5.6,8.4,0.6,12c-3.7,2.7-7.5-0.5-10.7-2.6
				c-24.7-16-49.4-32-73.9-48.3c-41.9-27.8-83.9-55.6-125.6-83.8c-7.9-5.7-17.8-8.1-27.5-6.5c-134.1,17.1-268.2,34.4-402.4,50.4
				c-121.3,14.5-242.7,27.8-364.1,41c-88.3,9.6-176.6,18.3-265.1,26.9c-10.6,1-13.5,3.4-10.1,14.1c10.4,33,20.4,66.2,29.7,99.5
				c5.7,20.7,25.5,16.6,38.8,23.1c18.2,9,40.5,6.7,60.5,20.5c-31.9,0-60.4-9.5-90.9-11.5c5.2,18.8,11.8,35.3,13.6,54.4
				c-18.5-11.3-20.7-29.9-26.4-46.2c-2.3-8.9-10-15.4-19.1-16.3c-150.3-27.9-299.4-61.2-449-92.4c-13.4-3.1-27.3-2.7-40.5,1.1
				c-20.4,5.7-41.2,10.3-62.1,13.9c32.8-13.7,64.3-30.3,98.1-42.4c59.6-21.5,117.7-46.5,176.8-70c64.9-25.9,128.5-55.4,194.8-77.7
				c8.6-3.2,17.4-5.7,26.4-7.4c9.1-1.4,20.2-2,8.5,12.2c-4.9,5.9,0,11.2,1.6,16.5c8.3,25.5,17.6,50.7,25.1,76.4
				c3.2,11.1,8.3,14.6,19.3,13.4c70.2-7.3,140.4-13.9,210.6-21.3c101.3-10.8,202.6-22,303.9-33.5c114.8-13.2,229.6-27,344.4-40.8
				c48-5.8,95.9-11.8,143.9-18c6.3-0.8,13.2,0.4,20-6.4c-27.5-19-54.5-38.3-82.4-56.1c-10-6.4-14.3-12.8-14.6-24.8
				c-3.5-163.4,1.2-326.9-5.3-490.5c-1-24.3,0.6-25.3,23.8-17.8c63.4,20.6,126.1,43.2,189.2,64.9c21.9,7.5,32.8,20.4,42.8,37.7
				c33.4,57.8,62.5,117.7,90.6,178.2c9.3,20,7.4,40.8,7.8,61.3c2,66.7,2.9,133.4,3.5,200.1c0,13.2,1.9,18.7,17.3,15.4
				c21.6-4.5,43.9-6.1,67.8-13.7c-17.1-9.5-33.8-20-51.6-28.1c-11.5-5.2-14.4-11.8-14.6-24.1c-3.1-159.5,1.1-319.1-6.1-478.5
				c-0.7-15.3,3.6-20.3,19.1-15.7c68.1,21,135.4,44.7,203.5,65.3c30.6,9.3,44.6,28.3,58.1,51.9c32.4,56.7,63.4,114.3,88.4,174.7
				c-13.1-0.6-16.2-12.2-20.9-20.7c-28.8-52.4-56.7-105.3-85.4-157.7c-3.9-6.8-4.4-16.8-14.8-18.5c0-2.8-0.9-3.2-3.1-1.6l2.9,1.7
				c6.8,46.9,2.9,93.7-2.7,140.2c-1.3,11.1,0.5,16.3,11.4,20.2c25.2,8.9,50.1,18.6,74.5,29.1
				C5900.7,3151.8,5915.5,3155,5923.4,3168.7z M5427.2,2970.5c-0.5-3.9-2.4-9.5-5.3-8.6c-5.7,1.6-1.6,6.9-1.2,10.7
				c-1.7,46.1,2.9,92.6-4.6,138.5c-1.5,9.5,5.6,10.4,11.3,12.9c26.2,11.8,52.4,23.5,78.5,34.7c7.8,3.4,13.9,12.1,26.1,8.4
				c-23-38.7-42.5-78.5-62.4-117.7C5456.3,3022.7,5444.5,2995.1,5427.2,2970.5L5427.2,2970.5z M5516.2,3571.9
				c0.8-2.1,1.4-4.4,1.8-6.6c-2.4-120.1,6.6-240.2,4.4-360.3c0-11.1-4.3-15.7-14-20c-30-12.9-59.4-27.1-89.1-40.6
				c-14.7-6.7-22.9-18.8-22.6-33.9c0.9-49.6,2.6-99.2,5.8-148.7c0.6-9.4,0-11.5-8.6-14.4c-56.8-19.6-113.4-39.8-169.9-60
				c-20.8-7.5-20.5-7.8-20.4,14.4c0.7,150.2,3.9,300.5,0.7,450.7c-0.3,13.1,3.9,19.6,14.6,26.4c60.2,37.9,120.1,76.2,179.7,115
				C5438,3519.2,5476.6,3545.4,5516.2,3571.9z M5576.4,3120.1h0.5c0,73.8,0.3,147.7-0.3,221.6c0,10.8,3.3,16.3,12.8,21.1
				c97.4,49.2,194.7,98.6,289.6,152.4c11.2,6.3,15.4,6.6,15.7-8.4c0.4-51.4,1.7-102.6,6.8-154c5.3-53.2,3.5-107,5.4-160.6
				c0.4-10.4-3.4-14.7-12.8-18.3c-30-11.3-59.4-23.8-89.2-35.7c-14.9-5.9-24.5-16.7-23.9-32.5c2-47.6,4.8-95.3,9-142.7
				c0.8-8.6,0.6-10.4-7.3-12.9c-62.8-20.3-125.6-40.8-187.9-62.2c-13.9-4.7-18.8-5.1-18.6,12.6c1,73.2,0.4,146.4,0.4,219.6H5576.4z
				 M3829.2,3622.1c30.2,5.7,55.2,9.9,80.2,15.1c114.4,23.9,228.7,47.9,343.1,72.1c11.8,2.5,22.8,5.9,16.6-14.2
				c-21.1-68.7-41.6-137.5-61.6-206.5c-3.6-12.6-7.8-14.8-20-9.4c-45.4,20.1-91.3,39.2-137.1,58.4
				C3979.3,3567.6,3907.5,3595,3829.2,3622.1z M5417.2,2955.1c-1-0.3-2.2-1.1-3-0.9c-1.8,0.6-1.6,1.7,0,2.5c0.5,0.2,1.5,0.8,1.6,0.7
				c0.6-0.8,1.1-1.6,1.5-2.5V2955.1z"/>
			<path class="st0" d="M6045.9,2501.3c8.9-7.5,12.8-15.9,10.2-27.8c-1.5-7.7-1.3-15.7,0.6-23.3c1.9-8.7,9.7-12.8,15.9-5.7
				c16.9,19.2,15.7-3.5,17.6-8.5c2.8-8.2,0.5-18.1,1.6-27.2c0.8-6.2,5.6-16.8,11.4-8.4c11.5,16.8,13.3,1.3,17.7-3.5
				c7.4-7.8,4.4-18.6,5.5-28.2c0.7-6.5,2-15.3,11.1-10.7c6,3.1,9,6.4,13.1-1.2c5.3-10-3.6-13.9-7.8-19.6c-3.9-5.1-8.8-5.1-13.2-0.2
				c-4.4,4.9-9.6,10.7-14,16.4c-17.5,22.8-34.6,45.9-52.5,68.5c-4.8,6-9,18.9-18.1,13.4c-11.3-6.9-1-16.2,3.9-23.2
				c19.3-28.7,39.2-56.9,61.2-84c3.9-4.7,0.8,0.9,4.7-6.9c2.1-4.2,4.8-8.2,7.8-11.8c2.4-2.8,5-5.5,7.8-7.8c3.5-3.2-0.8,0,3.9-3
				c33.7-21,49.6-59.9,40.6-100.8c-8.6-39.2-45.7-51.7-76.6-25.9c-52.3,43.5-106.4,84.5-162.4,123.2c-4.8,3.4-9.8,6.6-14.9,9.5
				c-3.9,2.1-8.4,6-12.3,1.5c-4.6-5.3,0-9.8,3.5-13.5c4.3-4.9,9.2-9.3,14.5-13.1c54.3-36.4,102.6-81.2,158.9-114.7
				c7.8-4.7,10.9-8.9,3-16c-0.9-0.9-1.7-2-2.6-2.9c-20.7-21.7-28.5-60.5-54.1-69c-29.5-9.7-51.5-29-78.5-41c-6.8-3-20.4-7-15.7-15.7
				c4.7-8.7,15.1,0.5,22.2,3.9c23.9,11.8,46.3,26.3,67,43.2c6.9-5.6-3.7-16.9,6.4-18.6c7.8-1.3,11,7.8,14.9,13.8
				c14,20.7,27.7,41.6,44.1,66.3c7.8-26.8-2.8-46.1-6.9-65.6c-1.2-6-14.5,0-21.1-7.8c-11.8-14-26-25.8-38.6-39
				c-14.9-15.7-12.6-32.8,6.1-44.1c18.7-11.3,39.2-12.9,62-13.2c-6.4-10.5-18.4-12.2-23.5-21.3c-2.6-4.6-6.5-3.1-10-0.6
				c-24.6,17.4-52.8,24.6-83.7,27.1c3.1,9.7,11.1,12.6,15.9,18.2c3.1,3.7,8.8,6.4,3.9,13c-4.1,5.7-9,4.8-13.9,2.7
				c-16.1-7.1-31.4-16.1-48.6-20.8c-2.3-1.1-4.2-3-5.2-5.4c-4.4-8.9,2.6-44.3,9.8-51.3c28.6-27.5,96.5-33.8,125.9-7.8
				c21,18.8,44.3,35,63.4,55.9c8.6,9.4,15.7,14,27.5,4.2c10.9-9.1,20.4-5.7,26.6,7.3c5.4,11.3,11.3,22.3,26,23.9
				c4.2,0.1,7.6,3.6,7.6,7.8c0,6.1-5.5,6.5-9.9,7.3c-7.8,1.5-15.7,2.5-23.1,4.2c-33.5,7.1-55.2,26.6-59.9,61.3
				c-1.8,13.3-14.2,25.9-2.9,41c3.9,5.3-3.4,7.8-7.8,7c-5.6-1.3-11-3.1-16.2-5.5c0,21.6,2.2,23.3,22.2,17.9
				c37-10,65.4,5.8,74.5,43.2c9.1,37.4,9.7,72.5-22.8,100.5c-4.9,4.2-8.3,10.2-13,14.6c-14.4,13.4-7.6,21.7,5.9,29.3
				c4.7-4.9,2.4-10.4,2.9-15.2s0.7-10.9,6-13.7c6.2-3.3,8.5,2.2,12.5,5.6c15.7,13.5,16.4,13.4,3.5,32.8c-5.3,8.1-6.6,14,0.4,22.4
				c86.1,103.8,159.6,216.9,237.8,326.4c15.2,22,32.3,42.8,51,62c11.8,11.8,21.1,10.6,29.8-3.6c18.7-30.8,31.8-64.4,48-96.5
				c10-19.9,20.6-39.4,29.9-59.6c5.1-10.9,12.4-13.3,23.5-12.1c7.8,0.9,11.3,2.1,6.5,10.3c-30.9,53.2-54.9,109.9-83.9,164.1
				c-8.4,15.7-19.9,28.5-43.2,31c12.2,7.5,21.1,5.7,29.8,3.6c18.4-4.3,36.8-9,55.2-13.7c11.8-3,24.1-3.9,26.8-20.5
				c1.2-7,11.3-11.8,17.5-9.3c9.1,3.5,15.9,11.4,17.9,21c1.2,7.8-5.6,11.1-12.1,13.3c-35.8,12.3-71.4,25.3-109.2,31.1
				c-9.9,1.5-21.5,3.3-28.8-2.2c-16.7-12.6-31.7-5.5-47.6-0.6c-19,5.8-38.3,9.7-57.6,1.9c-16.2-6.5-20.9-19.6-14.4-37
				c6.7-18.1,20.7-25.9,36.6-20.5c4.4,1.5,9.5,3.1,8.9,8.7c-0.4,4.6-5.1,5.7-9.1,5.8c-11.3,0-18.1,5.9-16.4,16.9
				c1.6,11,12.2,7.8,19.3,7.8c17.3,0.4,33.4-5.2,49.5-10.8c8.4-2.9,12.3-6.7,4.9-15.3c-87.1-102.3-153-220-234.7-326.1
				c-15.2-19.6-30.4-39.2-44.7-59.6c-7.6-10.8-12.1-10.5-19.6,0.3c-31.4,45.9-63.1,91.5-95.3,136.8c-6.9,9.8-13.9,26-27,21.2
				c-9.5-3.5-12.9-19.8-13-32c0-10.3-7.5-26.6,5.5-29.7C6045.3,2474.1,6035.1,2495.4,6045.9,2501.3z M6153.2,2009.7
				c-16.9-8.1-31.7-20-43.2-34.8c-3.9-5-7-8.5-14.4-5.6c-15.7,6.2-31.9,11.3-47.8,17.1c-11.4,4.2-13.3,10.9-5.1,20.6
				c12.2,14.4,25.7,27.7,35.3,44.1c1.6,1.9,3.5,3.5,5.5,4.8c13.2-17.4,15.7,4.6,25.2,7.8c6.1-24.2,21.6-40.3,44.3-54H6153.2z
				 M5980,1947c24.2-0.9,47.8-8.2,68.3-21.1c3.1-2,7.8-3.7,6.8-8.4c-1-4.7-5.4-5.3-9.1-5.6c-24.1-2.3-48.3-4.2-71.4,4.8
				c-11.2,4.3-29.5,7.8-27.2,20.4s20.7,8.1,32.5,9.8H5980z"/>
			<path class="st0" d="M6698.2,2409.1c22.4-31.4,42.9-61.6,65.3-90.2c9.7-12.3,12.9-28.9,27-38.1c2.9-1.4,4.1-4.8,2.7-7.6
				c-0.8-1.6-2.2-2.7-3.9-3.1c-12-4.9-23.9-14.2-36.5-12.4c-12.6,1.8-17.1-3.6-22.8-12.5c-17.2-27-24.1-58.6-40.3-86
				c-6.6-11-9.6-23.9-20.8-32.2c-7.2-5.4-10.4-15.7,0.6-18c25.3-5.8,30.6-28.2,41.9-45.6c8.9-13.8,10.8-30.5,17.8-45.4
				c8.7-19,22.8-35.1,40.5-46.1c12.2-7.8,26.2-14.5,26.8-32.6c0.1-5.6,4.8-10,10.4-9.9c0,0,0,0,0,0c5.8,0.3,6.8,5.3,7.3,10
				c-0.1,5.5,4.2,10.1,9.7,10.4c36.4,5.2,71.8,17.7,109.9,7.8c15.1-3.9,31.9-1.9,47.8-5.6c6.1-1.4,16.3,0.9,20,5.5
				c16.3,19.8,36.1,11.5,55.2,8.9c25.4-3.5,32.5,3.9,27.8,28.9c-3.2,15.4-8.6,30.2-16.2,43.9c-13.6,25-16.6,54.3-8.4,81.6
				c4.2,15.1,7,30.5,8.4,46.1c2.2,22.6,7,43,22.6,61c12,13.9,6,31.1-11.1,40.6c-8.8,4.3-18.5,6.8-28.3,7.3
				c-29.2,3-54.3,15-77.5,32.8c-11.8,9-27.5,2.7-41.2,3.3c-34.6,2-69.3-3-102-14.6c-12.3-4.6-20.6-1.6-28.2,9.5
				c-19.9,29.1-41.9,56.8-60.9,86.3C6731.1,2409.4,6719.6,2415.9,6698.2,2409.1z M6773.5,2227.1c7-0.6,13.1-5.2,15.7-11.8
				c1.2-0.3,3.9,0.4,1.3-2.2c-0.3,0.8-0.6,1.6-1,2.5C6779.6,2213.1,6776.2,2219.5,6773.5,2227.1l-3.2,0.7c0.5,0.7,0.9,1.4,1.4,2.1
				L6773.5,2227.1z M7014.1,2243.7c5.4-1.7,11.3-4.2,11.5-10.2c0.1-5.9-5.6-1.4-8.5-2.4c0.9-12.3,10.8-15.7,19.6-19.9
				c2.4,8.6-11.3,10.3-8.8,19.9c11,1,16.5-13.1,29.4-9.5c-18.3,19.9-41.9,31.4-60.4,49.2c5.5,3.9,9.1,1.2,12.8,1.1
				c18.7-0.6,29.1-18.9,46.7-21.4c0,4.6-7.2,5.5-5.8,11.3c7.8,1.4,11.5-3.9,14.6-9.7l3.9-3.9c13.4-4.6,18-11.2,6.2-23.1
				c-4.6-4.5-8.2-9.8-10.6-15.7c-3.9-9.6-9.8-8.1-16.8-5.3c-0.6-5.3-3.1-7.8-8.8-7.3c-10.3,1.5-20.7,2.2-31.1,2.1
				c-15.7-0.9-15.7,11.1-10.6,16.8c7.2,7.8,3.6,13.9,0.5,21.1c8.2-0.5,11.3-10,19-5.6l-6.1,10.2c-0.8,1.3-2.7,3.5-2.4,3.9
				C7011.1,2247.4,7012.7,2245.6,7014.1,2243.7L7014.1,2243.7z M7018,1999.3c1.2,9.9-18.7,11.8-8.7,26c7.8-8.4,18.2-13.6,22.5-26.5
				l-14.1,0.9c3.9-4.5,10.2-13.5,13.7-7.4c6.7,11.8,10.7,2.7,14.2,0c5.2-4.2,12.5-7.2,14-16.3l-38.8,4.6c-1.9,0.2-3.9,0.7-5.7,0.9
				c-10.9,0.9-9.5,8.7-8.5,15.7C7008.3,2006.9,7014.1,1998.6,7018,1999.3L7018,1999.3z M6732,2079.5c16.2-11.8,32.4-23.6,48.7-35.3
				c5.5-3.8,8.3-10.5,6.9-17.1c-0.7-4.4-3.7-8.1-7.8-4.2c-17.8,17.1-42.5,27.8-50.4,54.1l-1.5,4.4L6732,2079.5z M7065.1,2018.8
				c-20.6,7.4-31.7,27.5-50.3,37.6c-7.8,4.2-14.2,10.6-11.8,21.7c1.2,6.1,4.4,7.8,9.2,6.9c11.3-2.4,28.1,4.3,32.5-9.9
				c5.9-19.2,15.3-36.9,20.8-56.1c1.8-0.2,3.1-1.8,2.9-3.6c0-0.2-0.1-0.5-0.2-0.7c0-0.4-1.1-0.6-1.6-0.9
				C7066.1,2015.5,7065.6,2017.2,7065.1,2018.8L7065.1,2018.8z M6850,1977.5l-2.4-2.2c-4.3-3.9-10-1.9-14.5-3.3
				c-5.4-1.8-15.3,22.1-15.9-2.6c-2.4,0.5-5.3,0.3-6.9,1.6c-2.2,1.9-7.8,5-1.1,7.8c5.6,2.4,5.5,4.8,1.4,7.8c-2.8,2.1-7.8,5.8-9.2,0
				c-1.8-8.2-5-5.6-8.9-2.7c-10.2,7.8-20.4,15.7-30.6,23.5l1.6,4.5c42.6-18,94.2-2.6,131.9-39.7
				C6880.5,1978.9,6865,1976,6850,1977.5z M6939.7,2103c-4.8-0.7-7.1-1.3-9.5-1.4c-7-0.3-16,1.5-18-7.5c-1.7-7.7,4.7-12.9,11.1-16.9
				c8.3-5.2,16.5-10.6,25-15.4c7.1-3.9,14.9-12.3,22.9-6.2c6.7,5.1,1.5,14.7,1.7,22.3c0.4,13-4.3,21-18.2,22.2
				c-4.4,0.4-10,0.7-12.2,5.3c-15.1,31.2-41.2,54.9-56.7,86c-1.4,2.7-3.9,7.3,0.6,7.6c18.1,1.1,11.4,14.8,11.8,23.5
				c0.5,14.3-1.7,28.6-2.4,43c-0.3,5.4-2.8,12.6,6.7,13.1c21.5,1.1,43.2,2.8,64.5,2.9c11.5,0,17.5-6.7,16.2-19.3
				c-1.1-11-0.9-22.1-1.1-33.2c-0.7-39.2-0.6-39.2,39.2-40.8c1.3-0.1,2.6-0.1,3.9,0c10.8,1,13.8-3.6,11.8-14
				c-3.9-18-3.2-36.4-2.8-54.7c0.6-27.5,0.4-28.4-25.9-24.6c-13.6,2-15.3-2.6-15-14.3c0.5-20.2-1.5-40.5-0.5-60.6
				c0.6-12.6-3.9-14.5-14.6-12.9c-23.2,3.6-46.6,6.3-69.8,10c-39.2,6.2-39.2,6.4-39.2,45.8c-0.4,40.6-0.3,41.2-39.2,49.8
				c-9.8,2.2-12.9,5.2-12.5,15.1c0.9,20.2,0.5,40.5,0.7,60.7c0,4.5-1.2,10.2,5.6,10.2c15.7,0,31.4,5.2,44.5-11.5
				C6889.4,2158.6,6914.1,2132.4,6939.7,2103L6939.7,2103z M6747.3,2162.8c0.5,8.4,0.5,16.9,0,25.3c-1.3,11.8,2.6,15.7,15,15.4
				c44.4-1.7,44.4-1.3,44.5-45.8c0-9.1-0.5-18.3,0.3-27.5c1.1-11.3-3.3-14.2-14.4-13.9C6747.4,2117.8,6747.4,2117.4,6747.3,2162.8
				L6747.3,2162.8z M6861.1,2098.1c-6.4-14.2-5.2-26-5.2-37.6c0-39.9,0-39.6-40.3-41.4c-11.5-0.5-16.6,1.5-15.3,14.6
				c1.6,17.5,2.2,35.1,1.7,52.7c0,9.9,3.7,12.2,12.6,11.8C6828.8,2097.6,6843.2,2098,6861.1,2098.1L6861.1,2098.1z M6884.6,2220.6
				c1.2-4.2,5.9-9.5,0.4-12.5c-4.2-2.2-9.4-0.6-11.8,3.6c-13.4,18.4-27.2,36.7-39.6,55.8c-3.9,6.4-6.9,15.7,8.4,12.8
				c9.7-1.6,19.5-2.1,29.2-1.4c10,0.4,14.1-3,13.7-13.3C6884.2,2250.5,6884.6,2235.5,6884.6,2220.6L6884.6,2220.6z M6773,2241.2
				c12.8,5.8,25.3,16.8,35.3,14.8c16-3.4,6.8-22,10-33.7s-4.4-13-11.8-7.8C6794.8,2222.2,6784.4,2231.8,6773,2241.2L6773,2241.2z
				 M6712.9,2108.1c29.2,0.5,73.9-36.1,71.7-56.6L6712.9,2108.1z M7074.7,1977.5c-23.5,20.4-42.5,39.9-65,55.6
				c-5.1,3.6-5.6,9.4-2.4,15.2C7053,2013.4,7072.6,1993.9,7074.7,1977.5z M6728.6,2166.4c3.4-52.5-1.4-57.7-34.1-44.1
				C6711.6,2131.4,6724.1,2147.4,6728.6,2166.4z M6880.5,2295.9c29.6,1.7,59.9,13,91.9-4.7c-33.1-3.7-62.4,2.8-92,4.6L6880.5,2295.9
				z M7003,1974.1c-26.6-16.6-39.9-14.5-51.6,5.7c16.5,1.6,31.8-3.6,51.5-5.7L7003,1974.1z M7049.4,2124.6c0,21,0,37.1,0,53.2
				c0,3.9-0.6,8.6,4.7,8.8c5.4,0.3,6.5-3.9,5.5-8c-4-16.1,0.2-33.5-10.4-54L7049.4,2124.6z M6784.2,2079.9l-26.2,22.3
				c11.2-3.6,36.2,8.9,26.1-22.4L6784.2,2079.9z M6844.7,2209.7c-19.6,0-20.4,1.3-12.4,19.1c5.3-5.6,11.7-10.5,12.3-19.1
				L6844.7,2209.7z M6761.4,2239l4.8-5.3c-1.3-0.8-3-2.6-3.9-2.2c-2,1.2-3.9,2.7-5.6,4.4L6761.4,2239z M7005.8,2249.1
				c-0.9-0.5-2.1-1.5-2.4-1.3c-0.8,0.7-1.4,1.6-1.6,2.7c0,0.4,1.4,1,2.1,1.5L7005.8,2249.1z"/>
			<path class="st0" d="M3988.7,1677.5c-104.4,4.9-213.1,0.9-321.7-4.2c-17.6-0.9-30.3,0.5-27.1,19.2c1.2-15.4-7.8-21.3-26.3-21.8
				c-86.3-1.8-172.5-4.4-258.7-7.8c-19.3-0.8-31.4,2.6-32.8,24.2c-0.3,4.7-0.5,10.7-6.3,13.7c-6.9-1.5-6.3-7.5-6.8-12.2
				c-2-19.1-7.4-36.3-5.4-57.7c6-64.8,2-130.5,2.6-195.9c0.6-78.5,1.9-157.3,2.9-236c0-3.3,0.5-6.6,0.4-9.8
				c-1.2-24.1-1.3-23.8,23.9-17.9c139.8,33.2,279.8,65.1,419.2,99.8c56.9,14.2,114.8,24.1,171.4,39.2c9.5,2.5,19,7.3,29.6-0.4
				c6.3-4.6,10.6,1.6,10.7,8.6c0.2,8.5-0.2,16.9,0,25.4c0.4,100.4,0.8,200.9,1.2,301.4C3965.2,1674.1,3965.2,1674.1,3988.7,1677.5z
				 M3330.7,1535h-1.9c0,31.4,0.8,62.8-0.4,94.2c-0.5,15.1,3.2,19.6,19.1,20c91.4,1.8,182.8,2.8,274,9.1c11.8,0.8,14.9-3,14-14.1
				c-4.6-56.7-5.7-113.5-4.9-170.3c0-9.5-2.7-13.9-12.8-15.2c-88.7-11.8-177.3-23.5-265.9-36.1c-18.4-2.7-22.3,3.5-21.7,20.5
				C3331.4,1473.6,3330.7,1504.3,3330.7,1535z M3428,1398.8c-1.5-15-0.5-18.5,15-29.3c6.5-4.5,6.9-6,2.6-12.9
				c-14.9-23.8-9.7-63.7,9.3-83.8c4.3-4.5,8.4-8.6,15-6.3c17.9,6.2,33.6,15.7,41.1,33.7c7.1,17,0,32-10.4,45.4
				c-3.8,4.5-8.1,8.4-12.8,11.8c-5.3,3.9-6.7,6.5-1.1,11.8c14.1,13.9,22.7,32.5,24.3,52.2c0.8,8.1,3.6,11.4,11.5,12.4
				c30.4,3.9,60.9,7.6,91.2,12.2c12.9,2,17.5-1.8,16.7-15.2c-2.7-52.2-2.5-104.5,0.5-156.7c0.7-12.9-3.6-17.9-16.4-20.9
				c-84.5-19.6-168.7-40.3-253.2-60.9c-35.5-8.7-34.8-9-33.9,27.5c1.3,56.2,2,112.4,2,168.7c0,14.9,2.5,22.1,19.6,22.9
				c26,1.3,51.8,6.4,77.6,9.7c24.7,3.2,49.4,6.1,75.5,9.3c-21.7-63.4-29.6-66.5-74.4-31.6L3428,1398.8z M3643.4,1558.5h-1
				c0,26.1,1.1,52.3-0.4,78.5c-1,16.6,4.5,20.4,20.5,21.1c91.4,3.7,182.7,8.3,274,13.9c13.1,0.8,13.9-4.2,13.7-14.2
				c-0.6-47.7-1.2-95.4-0.9-143.1c0-12.2-3.5-17.6-16.1-18.7c-91.7-8.3-182.9-20.7-274-33.2c-15.1-2.1-16.1,3.9-15.7,15.7
				c0.2,26.6-0.2,53.4-0.2,80.2L3643.4,1558.5z M3949.1,1405.5h0.4c0-22.2-0.7-44.4,0.3-66.7c0.5-12.9-3.9-18.6-16.6-20.8
				c-92.6-16-184.4-35.7-276.1-56.6c-14.3-3.3-16.6,1.3-16.2,14.2c1.3,51.6,2.3,103.2,1.9,154.7c0,14.9,6,19.1,18.9,20.7
				c90.9,11.8,181.8,23.8,272.7,36c11,1.5,15.4-1.3,15-13.1c-0.9-22.6-0.4-45.5-0.4-68.4L3949.1,1405.5z M3502.1,1315.2
				c0.3-14.4-20.6-38.8-34.8-37.3c-15.7,1.6-14.8,17.2-17.9,28.6c-1.8,5.6-2.7,11.5-2.6,17.3c0.6,11.2-3,26.1,10.8,30.6
				c13.8,4.5,25.2-3.9,34.1-14.4c6.1-6.9,9.7-15.6,10.3-24.8L3502.1,1315.2z"/>
			<path class="st0" d="M4899.7,2372.2c-12.1,15.7-3.3,25.2,8.9,35.7c29,25,56.9,51.3,87.9,76.4c-18.4-37.5-32.9-74.5-3.6-113.8
				c8.4,8.2,2.9,14.4,1.7,20c-6.1,25.2-0.4,51.8,15.7,72.2c38.7,51.6,125.1,90.2,194.3,29c10.7-9.5,15.5-18.2,13.3-33.4
				c-5.8-42.2-12-84.1-30.6-123c-10-20.9-23.1-39.2-43.5-51.6c-10-6.4-22.2-8.7-33.9-6.3c-18.4,3.6-20.6,10.1-8.6,24.4
				c16.4,19.6,16.2,40.7,5.3,62.2c-10.6,20.7-26.6,33.5-51.4,32.3c-13.9-0.6-26.8-7.6-35.1-18.8c-14.7-18.5-13.7-47.8,1.8-71.8
				c12.3-19,29.2-25.4,54.3-19.6c7.1,1.6,8.8,0,13.9-6.5c12-16,26.3-31.7,48.3-35.3c52.2-8.6,103.9-19.6,155.3-32.4
				c2.5-0.6,5.1-1,7.8-1.6c47.4-12.4,62.8-6.8,87.9,35.5c7.8,12.9,14.9,18.6,31.4,17.9c70.2-3,70.2-2.1,124.3,43.6
				c4.8,3.6,8.1,8.7,9.5,14.4c4.7,26.3,9.1,52.7,13,79.1c0.9,6.2-3.1,11.4-7.5,15.4c-7.8,7.1-15,15.3-24,20
				c-38,20-43.2,51.3-33.6,89c1.3,4.8,2.6,8.2,7.5,10.1c22.8,9,39.9,27,61,38.5c15.4,8.5,13.1,20.8,13.2,33.5c0,4.9-1.6,9.5-7.3,9.9
				c-4.1,0.4-7.8-2.6-8.2-6.8c-0.1-0.7,0-1.5,0.1-2.2c2.1-17.9-10.4-23.5-23.1-29.3c-18.1-8.4-30.8-25.6-51-30.7
				c-4.9-1.2-5.8-8.6-6.5-13.6c-2.6-20.7-6.3-41.4-5.6-62.4c0.2-5.8,2.1-11.4,5.7-16c6.9-9.5,15-18.1,24.2-25.5
				c12.5-10.4,34.7-16.4,36.3-30.6c2.7-23.3-4.6-47.7-7.8-71.6c-1.2-4.5-4.2-8.3-8.3-10.5c-5.3-3.9-11.8-6.8-15.7-11.8
				c-26.5-33-63.3-27-98.7-27.2c-9.8,0-8.8,5.2-6.6,11.3c10.4,27.4,17.8,55.8,21.8,84.8c9.8,76.5,18.3,153,24.7,229.8
				c1.1,13.3,3.9,27.5-5.4,41c-11.8-11.8-10.7-27-12.2-40.3c-10-89.5-17-179.5-29.4-268.7c-6-43.5-31.8-80.1-61.8-112.3
				c-5.1-6.4-13.6-9.1-21.5-6.7c-60.1,22.2-122.8,33.2-185.8,42.7c-1.6,0.2-2.9,1.9-6.6,4.5c74.5,36.1,88.8,105.2,99.3,175.8
				c7.1,50.5,9.9,101.4,8.4,152.4c-0.3,14.2-1.3,28.3-14.5,45.3c-1.7-18.9-3.4-32.6-3.9-46.4c-1.3-26.8-1.8-53.6-2.9-80.3
				c-0.4-11.3-4.6-12.2-12.6-4.7c-66.7,62.5-147.7,34.7-195.8-10c-3-2.9-9-26-18.3-2c-1.6,4.2-10.8-1.2-15.7-3.9
				c-28.8-14.8-53-35.9-76.9-57.2c-72.1-64.5-140.2-133.2-209.9-200.1c-4.3-4.2-12.7-9.2-7.8-15.7s11.8,0.4,16.7,3.9
				c12.8,9,25.1,18.8,36.6,29.5c13.7,13.4,27.3,23,46.5,11.2l0,0c-4.4,36.6,19.6,60.7,51,51c4.5,3.9,5.6,10.5,2.7,15.7
				c-1.2,2.8-3.4,7.5-2.3,8.7c11,12.4,22.8,24.1,35.3,35.1c7.7,6.4,10.9-6.6,17.7-7.3l9.5-1.1l-0.4-0.3L4899.7,2372.2z
				 M5058.8,2300.4c-18.9-0.7-31.8,16.1-32.8,42.5c-0.8,21,12.5,36.6,31.8,37.2c19.9,0.5,39.2-20.6,39.8-43.4
				C5098,2317.5,5080.6,2301.3,5058.8,2300.4z"/>
			<path class="st0" d="M6038.9,992.7c-79-12-152.3-23.9-225.8-34.1c-89.4-12.4-179.5-17.6-269.5-22.2
				c-162.7-8.3-325.7-8.2-488.3-3.6c-228.7,6.4-457.1,18.5-682.7,58.9c-202.2,36.1-399.1,89.6-588.3,169.9
				c-19.6,8.3-39.7,14.9-57.5,26.8c-5.1,3.4-12.1,10.5-16.4,4.5s4.4-10.5,9.7-14c31.1-20.5,65-35.6,99.3-49.5
				c167.7-68,341-116.6,518.8-149.7c168.7-31.4,338.5-49.6,509.6-59.5c201.8-11.7,403.6-17.5,605.5-10.7
				c139.2,4.7,278.3,12.3,415.2,39.2C5924.2,959.4,5981,968.5,6038.9,992.7z"/>
			<path class="st0" d="M2093.6,2167c-26.2-43.8-43.4-89-64.4-132.4c-47.1-97.1-103.8-187.7-181.9-263.2
				c-54.3-52.5-115.5-94.2-190.9-110.6c-97.6-21.2-188.8,19.2-238.6,105.7c-23.8,41.3-37.5,86.1-46.2,132.5c-0.7,3.9-1,7.8-1.9,11.8
				c-0.9,3.9-1.4,8.7-6.1,8.8c-6.4,0-6.7-6.1-6.4-10.2c1-15.6,2.9-31.2,5.7-46.6c7.9-41.2,23.3-80.5,45.5-116.1
				c56-89.1,159.8-128.8,264.6-101.5c70.3,18.3,129.8,55.7,181.1,105.3c114.1,110.1,187.3,245.1,234.8,395.1
				C2090.9,2151.6,2091.6,2158,2093.6,2167z"/>
			<path class="st0" d="M4504.1,1611.7c41.6,15.3,87.7-7.8,133.8,0.8c9.3,1.8,14.1,4.6,16.7,12.8c10.5,33.5,17.9,68.2,36.1,99
				c6,10.1-5.2,12.9-9.7,18.4c-8.2,10.1-27.5,11.1-28.6,23.9c-1.1,11.8,9.3,23.9,12.4,36.5c2,11,10.1,19.9,20.8,23
				c3.9,1.5,8.8,5,7.1,10.3c-1.7,5.3-7.3,5-11.8,4.4c-12.9-1.6-25.4-5.8-38.6-5.7c-30.4,0.4-43.8,11.5-49,41.6
				c-0.9,5.1,0,11.8-7.3,11.8c-7.3,0-7.4-6.5-8.1-11.8c-2.2-16,2.4-31,14.4-40.8c17.5-14.3,2-26.6-1.6-38c-3.1-10-13.3-0.5-19.6,1.3
				c-24.8,7.1-33.4,3.6-41.5-21c-15.7-47.7-31-95.5-46.1-143.5C4477.8,1617.1,4482.6,1611.2,4504.1,1611.7z M4675.1,1735.2
				c-19.2-32.3-32.6-67.7-39.7-104.6c-1.7-8.1-4.6-8.9-11.8-7c-12.2,3.2-22,6.3-11.2,21.5c3.4,5.6,6,11.6,7.8,17.9
				c2,5.1,2.9,10.8-3.2,13.6c-6.1,2.8-9.9-2.1-12.3-6.7c-4.8-9.3-8.6-19-13.3-28.3c-6.4-12.7-17.4-6.9-25.8-4.5
				c-11.1,3.2-2.3,10.6-0.6,15.7c3.5,10.5,8.1,20.6,12.1,31c2.2,5.6,4.8,12.2-2.8,15c-6.2,2.3-9.3-3.9-11.5-8.3
				c-6.3-12.9-11.8-26.1-16.7-39.6c-6.2-18.8-20.6-10.6-31.1-9c-13.9,2-4.4,12.7-2.8,18.4c10.9,38.3,22.9,76.2,34.4,114.3
				c2.5,8.3,3.9,13.2,15.7,7.8C4598.6,1765.4,4634.8,1747.2,4675.1,1735.2L4675.1,1735.2z M4632.5,1817.6c3.9-4.3,19,5.8,15-7.8
				c-3.9-12.6-1.3-31.8-18.4-35.7c-5-1.1-21.9,1.8-21.9,16.5C4607.1,1806.6,4618,1818.4,4632.5,1817.6L4632.5,1817.6z"/>
			<path class="st0" d="M5636.5,2643.6c-13.8-41.7-13.1-81.2-15.9-120c-5.6-77.5-10.5-154.9-20.2-232c-1.2-9.6-5.6-9.9-12.7-9.8
				c-15,0-30.1,0-45.1-0.4c-5,0-11.8,0-12-7c-0.2-7,5.7-7.8,11.1-8.2c3.9-0.6,7.8-0.9,11.8-0.8c30.7,2.9,57,0.2,73.6-32.7
				c8.9-17.5,27.8-18.8,46.1-7.1c38.6,24.5,78.5,46.4,118.8,68.3c36.3,19.8,50.4,54.7,54.9,93.7c6.5,57.8,8,116.1,4.4,174.1
				c-0.6,10-2,20.3-12.7,30c-3.9-15.8-5.8-32.1-5.8-48.3c-0.9-47.1-0.9-94.2-3.1-141c-1.5-31.4-14.6-58.4-24.6-86.8
				c-1.9-5.4-8.8-4.5-13.7-5.7c-47.3-11.2-90.6-35.2-125-69.4c-9.1-9.1-15.7-6.4-23.5,0c-20.8,16.9-32.7,57.3-25.6,83.5
				c10.9,39.9,13.3,81.1,16.6,122.1c4.3,54,6.7,108.2,9.6,162.3C5644,2618.9,5644.4,2630.1,5636.5,2643.6z"/>
			<path class="st0" d="M6309.2,1252.1c0.4,27.5,1.6,54.9-5.7,81.8c-1.4,5.3-1.6,13-8.8,13.8c-6.1,0.7-5.4-6.3-7.1-10.2
				c-2.4-5.5-7.3-4.9-11.8-5.3c-15.2-1.2-29.6-7.1-41.2-16.8c-14.7-12.8-29.4-13.2-46.8-9.1c-41.9,9.6-85.4,10.5-126.6,24.6
				c-22,7.5-35.1-3.6-36.1-26.7c-0.9-20.9-1.8-41.8-2.4-62.8c-0.7-22.2,19.1-41.8,45.4-45.7c67.2-9.9,132.8-28.7,200.1-37.7
				c3.2-0.5,6.3-1.7,8.9-3.5c14.9-10,21.9-2.1,25.2,11.8C6309.1,1194.5,6308.7,1223.4,6309.2,1252.1z M6288.2,1323.5
				c-0.9-51,0.5-96.7-3.9-142.3c-0.9-9.8-4.2-11.8-13.6-9.5c-27.8,7.1-55.7,14-83.8,19.6c-43.9,8.9-86.7,23.1-131.8,26
				c-10.8,0.7-16.6,9.8-16,21.2c1.1,21.5,2.2,43.2,3.9,64.5c0.9,12.1,7.6,16.6,18.5,10c6.6-4.1,14.1-6.8,21.8-7.8
				c46.5-6.4,93.1-13.2,139.6-19.6c6.3-0.9,14.2-3.9,18.4,2.4C6252.2,1304.1,6271.3,1307.7,6288.2,1323.5z"/>
			<path class="st0" d="M6708.1,2436.2c26.8,1.4,53.5,2.7,80.3,4.2c5.7,0.4,14.9,1.3,7,9.5c-30.6,31.4-52.9,69.6-80.5,103.4
				c-15.7,19.6-34.1,28.7-58.1,20.4c-33.3-11.5-67.9-12.6-102.4-14.7c-30.2-1.9-36.4-13.5-19-38.5c15.1-21.3,31.3-41.8,48.5-61.4
				c13.7-16.3,34.3-25.1,55.5-23.9c22.8,0.7,45.7,0,68.6,0V2436.2z M6749.5,2477.7c-10.2,0.7-16.8,9.1-25.8,12.4
				c-19.6,7.2-18.9,19.2-7.8,35.3c13.2-15.4,25.8-29.7,34-47.3c1.6-0.6,4.3-0.9,1.3-3.3L6749.5,2477.7z M6768.3,2455.3
				c-45.4-5.7-87.8-2.4-130-5c-3.9-0.2-8.9-0.8-9.7,3.9c-2.4,14.9,2.8,28.8,9.9,41c6.2,10.8,17.5,6.7,26.5,3.1
				C6698.6,2484.8,6732,2470.6,6768.3,2455.3L6768.3,2455.3z M6559.8,2535.9c41.3,2.3,77.4,3.9,113,10.8c8,1.5,18.1,9.2,23.5,3.1
				c6.6-7.1-6.6-13.6-7.1-21.9c-1.3-17.3-9.2-17.8-23.9-11.8c-17.2,6.9-36.6,14.1-50.3-7.8c-2.1-3.3-5.5-2.7-8.6-0.9L6559.8,2535.9z
				 M6617.6,2448.4c-16,0.9-51.7,46.5-54.3,69.4c3.9-1.8,7.4-3.2,10.8-5.1c18.7-10.8,44.9-16,35.1-48c-1.9-6.7,7.9-9.6,8.6-16.3
				L6617.6,2448.4z"/>
			<path class="st0" d="M2774,2211.3c45.5-58.1,97.6-110.1,149.4-162.4c96.1-96.9,192.9-193.2,293-286c6.8-6.3,16.7-19.6,23.5-12.6
				c8.9,9.3-5.9,17.6-12.2,24.4c-125.2,133.4-256.5,260.7-386,389.7c-18.3,18.3-41.2,31.4-58.3,51
				C2779.3,2216.1,2775.6,2216.2,2774,2211.3z"/>
			<path class="st0" d="M6148.4,1387.9c-3.6,13.2-15.7,12.5-25.2,13.7c-47.9,6.2-96,12.3-144.2,16c-15.7,1.2-21.5,7.5-21.7,20.7
				c-0.5,37,0,74,1.4,112.9c24.1-36.3,62.1-30.3,96-33.2c44.2-3.9,88.8-3.9,133.4-5.5c19.6-0.7,26.7-6.6,25.1-26.1
				c-2-23.5-3.1-47.1-3.5-70.6c-0.3-18.1-12-25.3-35.3-23.3c-7.8,0.7-15.7,4.4-20.5-5.4c15.4-17,34.3-13.7,52.4-7.3
				c18.1,6.4,23.5,21.4,22.8,39.2c-0.9,26.1-1.8,52.1-2.9,78.2c-0.7,18.1-11.5,29.5-30.9,31.4c-58.5,5.7-117.2,9.8-176,9.8
				c-15.7,0-28.3,3.1-37.1,16.4c-8.1,12.2-24.8,16.5-28.3,33.5c-1.5,7.3-11.8,5.4-16.7,3.3c-5.5-2.3-1.1-8.7,1.3-11.8
				c8.7-10.9,7-23.1,6.9-35.3c-0.4-37.9-0.7-75.8,0-113.8c0.4-24.8,6.8-28,31.7-29.5c31.4-2,62.2-7.8,93.3-11
				C6096.4,1387.9,6122.2,1382.9,6148.4,1387.9z"/>
			<path class="st0" d="M5935.4,1225.3c-4.9-3.9-4.6-9.3-4.6-14.3c0.3-39.2,1.6-78.5,1.1-117.5c-0.4-21.2,14.1-31.4,28.9-36.5
				c86.3-29.7,174.1-55.4,262.9-77.7c10.2-2.6,14.8,0.7,14.7,11.3c0,26.6,0.5,53.3,0.2,80c0,22.4-11.6,36.2-33.9,41.4
				c-71.2,16.6-142.3,33.6-213.8,49.3c-10.8,2.4-14.9,9-19.9,16.6C5960.2,1194.3,5954.6,1214.9,5935.4,1225.3z M6216.3,995.2
				c-46.2,13.4-91.2,26.4-136.2,39.2c-32,9.1-64.3,17.5-96,27.2c-16.9,5.2-37,12-38.8,31.6c-3.1,31.8-0.8,64.1-0.8,96.2l4.3,2.9
				c12.5-40.6,46.5-46,79.7-53.7c57.2-13.2,114.2-27.5,171.2-41.2c8.2-2,18.1-3.7,17-15.2C6213.9,1053.8,6217,1025.2,6216.3,995.2z"
				/>
			<path class="st0" d="M6337.6,1435.3c11.4,9.3,10.7,20.2,11.4,30.1c3.9,54.9-8.6,106.6-32.4,155.5
				c-43.9,90.2-103.9,167.4-188.1,223.6c-20.6,14.8-45,23.1-70.4,23.9C6215.2,1762.2,6329,1633.2,6337.6,1435.3z"/>
			<path class="st0" d="M1787.9,1563.9c5.4-5.4,12.4-1.4,17.7-2.7c21.5-5.3,37.2-6.4,37.3,23.2c0,4.9,10.7,11.3,19.2,3
				c4.6-4.5,10.7-8.7,17.5-4.4c6.8,4.3,4.6,11.5,1.6,17.5c-5.4,10.9,3.9,13.4,9.7,17.9c20.7,16.2,21.2,20.9,4.4,40.7
				c-3.9,4.5-7.8,8.9-11.4,13.5c-33.9,41.3-46.4,42.9-86.8,6.9c-14-12.8-28.8-24.6-44.3-35.3c-11.8-7.8-15.3-16.9-6.4-29.7
				c10-14.4,19.3-29.5,28.7-44.3c2.8-4.5,7.9-7.1,13.2-6.6c-8.9,22,3.2,33.4,20.3,44.5c19.1,12.4,36.6,27.5,54.6,41.5
				c5,3.9,9.6,8.3,14.5,1.3c3.9-5.5,17.1-9,8.6-17.9c-5.8-6-12.4-17.8-26.1-8.1c-11.8,8.3-18.1,3.1-17-11.4c1.2-15.7-5.4-20-20-12.9
				c-11.8,5.8-19.6,1.4-17.7-10.4C1807.9,1574.5,1797.8,1569.9,1787.9,1563.9z M1837.7,1650.8c-6.6,4.4-11.8,11.4-11.5,17.1
				c0.5,10,10.9,15.1,19,16.5c7,1.2,13.7-8.6,13.4-14.1C1858,1659.7,1844.8,1658.8,1837.7,1650.8z M1819.2,1642.2
				c-2-7.7-8.4-13.5-16.3-14.8c-8.3-0.9-11,9.1-11.4,15c-0.5,8.9,9,13.3,15.7,14.3C1815.7,1658.2,1815.1,1647.4,1819.2,1642.2z
				 M1787.2,1616.5c-1.6-6.4-6.6-12.6-10-11.8c-8.8,2.3-11.8,11.8-13.6,19.6c-1.1,5.5,5.9,9.9,10.5,9
				C1782.5,1631.4,1783.7,1622.3,1787.2,1616.5z"/>
			<path class="st0" d="M5985.4,2425.3c-9.2,16.2-15.4,35.5-34.9,32.3c-16.1-2.6-21.1-21.1-28-34.4c-8.1-15.9-10.6-34.1-7.3-51.6
				c2.3-12.8-1.1-20.5-11.8-27.8c-14.3-9.8-29-17.5-46.5-19c-3.7-0.3-9.1,0.4-9.4-4.6c-0.4-6,5.3-6.7,9.8-7.1
				c23.9-1.8,43.6,7.8,59.5,24.6c7.8,8.2,14.8,12.6,26.6,11.5c13.6-1.2,31.4,17.7,37.2,37.2c2.9,9.8,5.8,17.5,16,24.5
				c17.2,11.8,17.4,32.7,15.2,51.9c-5.6,49.7-66.9,102.5-117.2,101.5c-2.6,0.1-5.3,0-7.8-0.5c-7.2-1.7-18.5-0.6-18-10.7
				c0.5-8.9,11.1-6.8,17.9-7.1c46.3-2.2,78-26.6,99-66.2C5995.5,2462.9,5995.4,2442,5985.4,2425.3z M5967.9,2407.2
				c-2.6-18.5-5.3-36.8-22.8-47.6c-8.2-5.1-15.7-5.1-14.2,7.8c1.6,15.7,2.3,31.4,9.1,45.9c3.9,8.4,7.1,22.2,18.2,19.4
				C5967.9,2430.4,5966,2416.4,5967.9,2407.2L5967.9,2407.2z"/>
			<path class="st0" d="M6181.1,2085.7c-8.7-19.3,7.6-44.3,30.5-46.8c55.2-6,102.8,42.3,96,97c-4.6,37.1-20,72-44.3,100.4
				c-5.2,5.8-11.1,10.9-17.5,15.3c-7.4,5.5-13.9-1.5-19.9-3.7c-7.1-2.5-1.5-8.7,0.4-13.1c15.7-37.2,8.6-69.6-21.5-99.2
				c-6.2-6.1-21.3-12-0.4-20.5c6.4-2.6,3.9-13.1,1.1-19.6c-4.9-10.5-14-12.4-24.6-10.1L6181.1,2085.7z M6255.6,2215.2
				c15.4-15.3,21.3-35.3,26.6-55.4c15.1-56.3-8.4-91.3-66.3-100.5c-4.6-0.7-9.5-2.2-11.8,3.3c-2.3,5.5,2.4,6.6,5.5,8.7
				c13.9,9.6,15.7,22.6,12.2,38.1c-1.8,7.8-5.4,16.7,2,24.1c22.5,22.7,28.8,51.8,32.1,82c-2.6-0.6-2.9,1.1-2.9,3
				c0,0.5,0.7,0.9,1,1.4c0.2-1.7,0.7-3.1,1.3-4.8L6255.6,2215.2z"/>
			<path class="st0" d="M4453.9,1706.8c-103.7-28.6-204.3-65.5-305.1-102c-35.7-12.9-71.1-26.4-106.4-40.1
				c-6.8-2.6-17.5-4.9-13.5-15.3c3.6-9.2,12.5-3.9,19-1.9c129,40.7,258.1,81.7,379.1,143.6C4436.2,1695.9,4445,1701.7,4453.9,1706.8
				z"/>
			<path class="st0" d="M4210.7,1445c26.8,9.4,63.5,13,82.8,37c12.8,15.7,19.1,21.6,38,19.2c10.4-1.3,10.4,11,7.1,17.9
				c-10,21.2-20.8,42.1-32.5,62.3c-6.8,11.8-17.1,9.8-23.5-0.2c-7.8-12.7-15.7-16.8-31.2-11.4c-16.6,5.8-72.2-21.5-80.7-36.8
				c-3.5-6.3-2.5-12.6-0.9-19c5.8-23,21.1-41.9,27.8-64.5C4199,1445.2,4202.8,1443.9,4210.7,1445z M4314.2,1525.9
				c-5.9-3.4-11-0.7-16.1-0.4c-22.2,1.1-26.1-3.3-18-23.9c3.3-8.4,0.3-10.3-6.4-12.1c-7.5-2-15-4.4-22.4-6.9
				c-43.6-14.3-43.6-14.4-60.9,28.3c-0.3,0.6-0.6,1.2-0.9,1.8c-4.4,7.3-2.4,11.6,5.7,14.6c15.7,6.4,30.6,14.8,44.3,24.8
				c6.3,4.4,9.8,6.2,15.1-2.3c9-14.8,17.3-14.5,28-1.3c3.9,4.9,5.5,11.8,13.4,14.8C4301.7,1550.6,4311.6,1540,4314.2,1525.9z"/>
			<path class="st0" d="M1590.3,1509c21.2,4.1,43,4.3,64.3,0.6c16.1-2.6,23.5,4.9,24.8,19.6c2,23.5-1.8,46.8-4.5,70
				c-0.6,8.1-7,14.6-15.1,15.3c-36.8,7-73.8,5.7-110.9,3.9c-11,0.3-20.4-7.8-21.8-18.7c-5-25.2-3.6-50.6-2.8-76
				c0.4-10.9,8.5-15.1,19.2-14.9C1559.1,1509.2,1574.7,1509,1590.3,1509z M1536.8,1524.4c1.4,20.5,2.6,40.1,3.9,59.6
				c0.8,10.4,4.9,16.3,17.3,15.7c29.4-1.1,58.9-0.9,88.2-1.1c5.4,0,10.5,0.4,10.9-7.4c0.8-15.4,2-30.7,3.2-47.4
				c-24.2,6.8-41.4,28.3-66.7,24.8C1567.5,1564.9,1555.8,1540.8,1536.8,1524.4L1536.8,1524.4z M1558.9,1527.1
				c32.4,35.9,38.1,35.7,92.2,0H1558.9z"/>
			<path class="st0" d="M2965.8,1823.3c5.1-7.8,4.6-15.7,6.1-23.5c2.7-14.1,11.1-18.4,21.8-8.9c17.9,16.2,33.7,34.5,47.4,54.4
				c8.1,11.5,0.6,19.9-10.2,21.2c-16.6,2-19.8,11-21.1,25.6c-1.5,17.4-48.1,59.5-64.6,60.7c-9.2,0.7-16.2-4.7-22.3-10.6
				c-14.9-14.6-29.1-29.7-43.9-44.3c-6-5.9-3-10.6,0.6-15.3c17.5-21.9,36.6-42.4,57.1-61.5
				C2946.9,1811.5,2956.6,1816.3,2965.8,1823.3z M2990.7,1811.8c-3,11.3-4.4,18.9-7.1,25.9c-4.8,12.6-14.2,17.7-23.2,5.8
				c-10.2-13.2-14.8-6.9-21,2.3c-3.3,4.8-7.1,9.3-10.9,13.9c-28.9,34.3-29,34.3,3,66c1,0.9,1.9,1.8,2.7,2.8c5.3,6.9,9.7,6.3,15.4,0
				c11-12.1,23.7-22.6,37.7-31.2c7.8-4.9,12-8.7,3.5-17.6c-10.7-11.1-3.3-19,7.5-24.1c6.3-3,14.2-1.8,21.6-7.8L2990.7,1811.8z"/>
			<path class="st0" d="M4987.4,2233.2c-19.6,1.2-34.4-6.9-49.1-13.3c-66.5-29.5-130-64-185.8-111.3c-5-5.2-12.8-6.6-19.3-3.4
				c-30.6,11.8-46.3,34.6-50,66.7c-0.7,5.6,1.5,13.3-7.2,13.3c-8.7,0.1-10.1-7.1-11.2-13.8c-6.4-39.2,37.5-88.8,77.5-87.8
				c4.6-0.2,9,1.2,12.7,3.9c60.1,47.9,130.3,79.4,195.7,118.6C4962.9,2213.3,4976.2,2219,4987.4,2233.2z"/>
			<path class="st0" d="M4705,1843.8c11.8,7.3,15.3,17.9,19,28c20.5,57,40.7,114.3,61.3,171.3c2.2,6.2,2.6,11.8-1.7,16.4
				c-5.2,5.5-9.1-1.2-13.7-2.4c-25.7-6.8-51.2-8.6-75.8,4.8c-4.6,2.5-9.8,9.7-14.8,1.8c-3.7-5.9,0.9-11.2,5.5-15.1
				c15.7-13.8,35.3-17.1,54.9-15.9c19.6,1.2,18.3-5.3,12.4-19.6c-18.8-45.8-34-93-45.3-141.2
				C4704.9,1863.7,4701.7,1855.4,4705,1843.8z"/>
			<path class="st0" d="M4784.3,2262.5c7.1-10.8-4.4-13.7-8.5-19.6c-6.4-9.2-22.5-19.9-13.7-28.4s17,9.3,24.5,16
				c54.9,49.1,109.6,98.6,163.9,148.5c7.8,7.1,23.5,16,16.8,24.6c-6.7,8.6-19.6-3.9-28.5-9.5c-10.4-6.6-20-14.6-30-21.9
				c-2-4.5-6.2-7.5-11.1-8l0.4,0.3c-18.6-22.4-40.9-40.9-62.8-59.7c-13-13.4-25.7-27-39.2-40c-2.9-2.9-6.6-9-12.1-2.5L4784.3,2262.5
				z"/>
			<path class="st0" d="M4713.2,2001c10.1,6.1,27.5,1.6,25.1,13.5c-2.6,13-17.5,3.9-27,4.2c-19.6,0.9-26.5-10.6-31.2-27.5
				c-6.8-25-9.1-51-17.6-75.6c-3.9-11.2,6.6-14.9,15.1-15.1c11,0,24.7-2.3,26.8,14.8c2.3,22.6,9.7,44.5,21.4,64
				C4735.4,1994.1,4722.9,1996.1,4713.2,2001z M4704,2001.3c1.3-0.7,3.9-1.1,4.3-2.4c1.6-3.6-2.2-3.9-3.9-4.3
				c-1.7-0.3-3.4,0.3-4.6,1.5C4698.1,1999.6,4701.5,1999.9,4704,2001.3z"/>
			<path class="st0" d="M4646.3,2147.6c1.1,7.3,1.6,11-2.4,12.2s-6.2-1.9-7.6-4.7c-3.1-5.8-5.7-11.8-7.8-17.9
				c-23.8-73.4-41.7-148.3-58-223.6c-1.4-6.2-6.2-16.5,3.1-18.5c7.8-1.7,10.4,8.7,12,15.5c14.7,58.2,29,116.6,43.7,174.8
				C4634.8,2107.5,4641.2,2129.5,4646.3,2147.6z"/>
			<path class="st0" d="M6180.8,2085.5c11.2,20.8,7.3,36-11.8,45.7c-9.5,4.8-19.3,5.2-26.8-3.1c-10.5-11.8-5.3-24.3,0.8-36
				c4.7-9,10.8-13.8,21.9-7.4c3.9,2.4,10.6,5.2,16.3,1.1L6180.8,2085.5z"/>
			<path class="st0" d="M5497,2387.1c-19.3-0.7-30-14.8-24.8-30.7c3.4-10.5,9.7-15.7,20.7-9.1c3.3,1.9,5.6,5.3,10,5.4
				c11.5,0,17.1,6.7,15.3,17.7C5516.2,2382.8,5506.5,2386.4,5497,2387.1z M5495.6,2372c3.9-0.6,7.8-1.8,5.8-7.1
				c-1.5-4.1-3.5-8.5-9.1-8c-3.6,0.2-6.3,3.2-6.2,6.8c0,0.4,0.1,0.7,0.1,1.1C5486.8,2370.4,5490.7,2371.9,5495.6,2372L5495.6,2372z"
				/>
			<path class="st0" d="M5804.4,2956.9l-2.9-1.7c2.2-1.6,3.3-1.2,3.1,1.6L5804.4,2956.9z"/>
			<path class="st0" d="M6790.8,1997.1c2-1,4.2-2,6.1-3.2c0,0-0.4-2.5-1-2.7c-3.6-1-5.7,0.9-7.1,3.9c-1.8,0.5-3.5,1.3-2.1,3.5
				C6788.1,1998.3,6789.5,1997.8,6790.8,1997.1z M6858.4,1987.1l1.4-1.3c-0.8-0.5-1.7-0.9-2.6-1.1c-0.3,0-0.9,0.7-1.3,1.1
				L6858.4,1987.1z"/>
			<path class="st0" d="M6094.4,1442c12.5,1.3,28.7-2.6,29.3,10.7c0.5,10.1-15.7,7.5-25,8.4c-30.4,2.9-60.8,5.1-91.3,7.2
				c-6.7,0.5-16.7,3.4-17.9-6c-1.3-10.2,9.6-8.7,15.7-9.6C6035.8,1448.7,6066.1,1445.4,6094.4,1442z"/>
			<path class="st0" d="M5250.9,3085.2c2.1-11.2-1.9-28.5,11.8-32.1c14.5-3.9,26.3,8.3,34.7,20.7c3,3.5,5,7.7,6,12.2
				c2.7,36.8,30.2,59.4,49.4,86.7c6.4,9.1,13.3,17.8,19.6,26.9c6.3,9.1,12.6,17.7,26.5,19.6c17.4,2.6,39.2,34.1,39.2,52.2
				c0.5,13.5-7.6,25.9-20.2,30.8c-12.2,5.3-21.3-1.1-29.4-9.6c-1.5-1.2-2.8-2.8-3.6-4.6c-11.3-38.8-41.8-24.1-66.9-24.1
				c-9.1,0-12.2,4.5-11.1,13.9c0.6,6.5-0.3,13-2.4,19.2c-4.2,12.3-12.7,16-24.6,9.8c-20.7-10.5-36.5-44.7-31-67.2
				c3.9-16.1,12.4-20.9,24.5-10.3c28.8,25.4,61.1,5.3,91.5,8.5c8.7,0.9,11.8-11,5.1-19.6c-19.9-25.9-40-51.6-60.1-77.4
				c-2.6-3.3-4.4-8.8-10.3-3.5c-14.9,13.5-25.1,3.1-34.3-7.8C5254.3,3117.2,5251,3102,5250.9,3085.2z M5294.1,3104.4
				c-0.6-3.1-1.1-6.2-2-9.4c-3.2-11.8-11-21.9-23-20c-12,1.9-4.9,15-6.5,23c-0.5,3.9,0.1,7.9,1.8,11.5c3.7,8.1,6.6,19.3,18,17.5
				S5291.7,3113.1,5294.1,3104.4L5294.1,3104.4z M5385.8,3257.5c-0.4,12.9,9.3,26.4,18,25.7c8.9-0.2,16.1-7.4,16.3-16.3
				c1-9.3-17.1-30.3-25.5-28.4C5384,3241,5391.6,3253.3,5385.8,3257.5L5385.8,3257.5z M5259.6,3256.6c0.4,14.4,14,34.1,22.9,33
				c8.9-1.1,8.7-8.6,8.9-14.8c0.4-12.2-15.4-31.4-25.3-31C5257.2,3244.2,5260.7,3252,5259.6,3256.6z"/>
			<path class="st0" d="M5798.7,3338.1c-0.7,8.7,6.1,23.5-2.2,27.9c-10.4,5.6-17.3-10.8-27.1-14.6c-26.5-10.3-36.7-33.3-48.6-56.4
				c-28.9-56.3-56.5-113.3-81.4-171.5c-4.2-9.8-14.8-20.3,2.3-29.7c19.9-10.9,35.1-11.1,45.9,2.3c4,5.2,7.5,10.7,10.4,16.5
				c32.9,63,65.7,126.1,98.3,189.2C5802.1,3313,5797.8,3325.1,5798.7,3338.1z M5697.2,3141.9c-9.9,4.4-21.6,7-29.5,13.9
				c-5.2,4.6,3,12.8,6,19c19.4,39.9,39.2,79.5,58.9,119.4c13.9,28.8,13.4,28.6,42.9,16.3c8.6-3.6,11.1-5.9,6.2-15.1
				c-25.5-47.7-50.3-95.9-75.5-143.8c-2-4-2.7-9.2-8.8-9.9L5697.2,3141.9z"/>
			<path class="st0" d="M6788.8,1995.2c1.4-3.1,3.5-5,7.1-3.9c0.5,0,1.2,2.6,1,2.7c-1.9,1.2-3.9,2.2-6.1,3.2L6788.8,1995.2z"/>
			<path class="st0" d="M6827.9,1987.2c1.3-2.8,4-4.7,7.1-4.8l3.4,3.9c-1.7,2.7-4.7,4.1-7.8,3.6
				C6829.8,1989,6828.9,1988.1,6827.9,1987.2z"/>
			<path class="st0" d="M6835,1982.4l7.7-3.9l2.8,2.9l-7.1,4.9L6835,1982.4z"/>
			<path class="st0" d="M6826.3,1993.5l-4.8,2.8l-2.2-2.2l4.4-3.4L6826.3,1993.5z"/>
			<path class="st0" d="M6823.6,1990.7l4.3-3.5c0.9,0.8,1.8,1.7,2.7,2.6l-4.4,3.7L6823.6,1990.7z"/>
			<path class="st0" d="M6858.4,1987.1l-2.5-1.3c0.4-0.4,1-1.2,1.3-1.1c0.9,0.3,1.8,0.7,2.6,1.1L6858.4,1987.1z"/>
			<path class="st0" d="M6842.7,1978.5l4.8-3.1l2.4,2.2l-4.4,3.9L6842.7,1978.5z"/>
			<path class="st0" d="M6821.4,1996.4c-1.2,1-3.2,3.1-3.5,2.8c-3.2-2.4-0.3-3.6,1.3-5.1L6821.4,1996.4z"/>
			<path class="st0" d="M6790.8,1997.1c-1.3,0.7-2.6,1.2-3.9,1.6c-1.4-2.2,0.4-2.9,2.1-3.5L6790.8,1997.1z"/>
			<path class="st0" d="M7067.3,2246.3l-4.3,3.4l-7.2,1.1c-1-6.5,3.7-9,8.5-10C7067.3,2240.1,7066.9,2244,7067.3,2246.3z"/>
			<path class="st0" d="M7036.2,2211.5c0.8-3.2,4-5.3,7.3-4.5c0.3,0.1,0.7,0.2,1,0.3C7042.9,2211.1,7040.4,2212.9,7036.2,2211.5z"/>
			<path class="st0" d="M7044.1,2207.6c-0.3-3.1,1.3-4.4,4.2-4.3C7048.3,2205.6,7046.4,2207.5,7044.1,2207.6z"/>
			<path class="st0" d="M7011.1,2078.7c7.1-12.6,19.1-21.7,33.1-25.1C7035.9,2067,7026.5,2072.9,7011.1,2078.7z"/>
			<path class="st0" d="M7016.9,2211.5c-1.1,2.2-2.6,3.9-5.4,3.3c-0.3,0-0.7-1.3-0.5-1.6c1.3-2.1,4.1-2.7,6.2-1.5L7016.9,2211.5z"/>
			<path class="st0" d="M7017.3,2211.7c0.3-0.7,0.5-1.5,0.7-2.2c0,0.3,0,0.7,0,0.9c-0.3,0.4-0.7,0.7-1.1,1.1L7017.3,2211.7z"/>
			<path class="st0" d="M3478.6,1593.8c23.8,7.3,42.3,20,49.4,47.1c-12.1,0-16-7.8-21.3-12.9c-22.2-21.6-39.2-24.1-66.7-8.6
				c-5.1,2.9-9.8,6.5-15.1,9.1c-2.2,1-4.8,1-7.1,0c-3.7-2.4-1.4-5.7,0.4-8.4c6.7-10.1,18.5-14.1,27.5-21.5
				c-25.5-25.1-30.5-57.4-13.2-83.8c13-19.9,31.4-21.1,46.5-3C3500.9,1537.8,3500.8,1556.7,3478.6,1593.8z M3484.6,1556.6
				c0.4-19.1-15.7-45.1-27.7-45.3c-13-0.2-24,21-23,44.4c0,1.3,0,2.6,0.3,3.9c2.4,14.5,7.8,26.8,25,27.5
				C3470.7,1587.7,3484.3,1570.5,3484.6,1556.6z"/>
			<path class="st0" d="M3772,1530.5c-12,10.2-18.4,25.5-17,41.2c0.1,10.8,7.2,20.3,17.5,23.5c8.8,3.6,18.9,1.3,25.2-5.7
				c8.2-8.7,7.5-18.9,3.9-29.3c-4.6-12.5-17.6-18.6-24.4-30.4c19.5,1.9,35,17,37.5,36.4c1.8,17.5-1.6,33-22.5,37.2
				c-10.5,2.2-7.8,6.9-2,11.4c8.7,6.5,18.3,12,21.7,31.7c-31.4-31.4-56.8-27.5-78.8,5.5c-1.5-22.4,8.6-33.2,36.8-42.1
				c-9-8.2-20.8-13.1-25-25.5c-3.9-11.2-3.5-23.5,1.2-34.5C3750.3,1539.8,3753.7,1526.9,3772,1530.5z"/>
			<path class="st0" d="M3747,1376.9c-0.2-24,13.5-47.8,28-48.4c19.6-0.8,40.2,21.3,40.3,43.2c0.1,21.9-15.9,39.2-35.3,39.2
				C3760.6,1410.9,3747.2,1396.8,3747,1376.9z M3801.4,1374.1c0-15.3-17.1-37.2-27.7-33.8c-17,5.4-14.9,22.7-16.2,36.1
				c-1.3,13.3,6.3,22.7,20.7,22.6c16.4-0.2,21.3-12,23.3-24.8H3801.4z"/>
			<path class="st0" d="M3738.8,1454.6c4.9-20,18.6-30,36.2-30c24.8,0,40.4,16.4,52.1,38.1
				C3798.7,1446.9,3772.4,1415.9,3738.8,1454.6z"/>
			<path class="st0" d="M6232.2,1214.9c-12.1,9.2-26.5,12.5-40.7,15.7c-28.7,6.3-57.6,12-86.3,17.7c-4.5,0.9-9.7,1.3-12.2-3.6
				c-2.4-5,1.6-7.8,5.2-8.8C6142.3,1225.5,6185.8,1211.7,6232.2,1214.9z"/>
			<path class="st0" d="M6122.1,1082.1l-135.3,36.1c-3.1,0.8-7.5,1.7-8.2-2.3c-1.3-6.8,4.9-8.6,9.5-10.2
				c28.9-10.4,58.5-18.6,88.6-24.8C6091.4,1078.1,6106.3,1076.2,6122.1,1082.1z"/>
		</g>
	</g>
</g>
<g>
	<g id="Layer_2_2_">
		<g id="Layer_1-2_1_">
			<path class="st0" d="M882.9,2707c-11.3-30.4-1.1-63.4-10.6-93.5c-92,37.3-188.3,44.3-286.2,39.9c-9.1-0.4-24,0.9-23.8-10.8
				c0.2-11.6,15.5-9.8,24.2-10.3c52.2-2.9,104.5-4.6,156.2-13.1c38.1-5.9,75.8-14.6,112.6-26.1c12.8-4.2,16.7-10.6,15.9-24.2
				c-14.1-250.4-44-498.6-103.3-742.7c-5.2-22.9-12.1-45.5-20.6-67.4c-3.5-8.6-6.9-10.8-15.4-4.4c-48.1,36.3-112.8,4.5-136.7-39.7
				c-2.7-5-7.4-11.8-1.2-15.7s10.3,3.4,14,7.4c12.5,13.6,25.9,25.9,42.9,33.6c28.4,12.9,54.5,10.1,78.5-10.7
				c4.3-3.9,7.6-9,14.4-10.4c46.3,71.3,59.9,153.7,78.1,234.2c31.9,141.2,50.7,284.3,63.5,428.3c0.9,9.5,2.3,18.9,3.9,31.4
				c35.7-32.5,68.8-62.8,102-93c47.8-43.6,98.9-83.6,143.7-130.5c6.1-6.4,12.9-14.2,21.1,0c3.9,6.7,13.3,2.2,20.1,1.2
				c49.9-7.5,88.6-33.3,117.9-73.9c1.4-2.2,3.1-4.2,4.9-6.1c6.4-6.1,10.4-21.7,21.4-13.4c11,8.4,2.7,20.5-4.4,29.3
				c-43.6,54.1-96.2,90.2-169.7,83c-4.6-0.6-9.1,1.4-11.8,5.1c-63.1,71.2-137.6,130.3-207.3,194.4c-28.8,26.4-38.3,51.9-34.2,89.7
				c6.3,58.6,6.5,117.6,0.9,176.2C892.7,2686.6,883.9,2695.3,882.9,2707z"/>
			<path class="st0" d="M372.7,2809c-36.7-76.6-58.4-153.6-71.3-232.9c-29.3-179-48-358.8-39.1-540.6c3.6-73.8,9.1-147.4,27.5-219.4
				c11.1-44.1,27.9-85.9,60.7-119c28.2-28.5,61.7-47.5,102.5-46.6c66.7,1.5,105-35.1,130.5-91.1c2.2-4.7,3.4-9.9,5.6-14.6
				c3.9-8.7,2.7-25.9,16.5-21.4c11.4,3.6,4.3,18.3,2.3,27.9c-16,77.4-70.3,123.6-147.8,125.6c-54.9,1.3-91.8,30.3-117.6,75.8
				c-26.6,47.1-35.3,99.4-42.1,152c-21,164.6-13.1,328.6,5.1,492.8c12.1,109.2,26.4,217.8,53,324.6c3.9,16.4,6,33.2,12.7,49.1
				C376.5,2783.1,377,2796.7,372.7,2809z"/>
			<path class="st0" d="M1008.3,1400.2c-4.3,91.3-32.2,171.3-115,220.8c-37.8,22.6-78.7,39.2-125.6,29.9
				c-48.8-9.6-84.2-37.4-108.8-78.9c-42.1-70.6-47.1-145.2-17.5-222.1c25.6-66.7,68.8-118.1,133-150.2
				c38.3-19.1,78.7-16.8,115.5,1.8c74.9,37.9,112.9,101.3,117.2,184.9C1007.4,1391.1,1007.9,1395.7,1008.3,1400.2z M988.7,1419.6
				c0.9-36.7-6.4-73.2-21.3-106.8c-17.4-39.3-44.2-69.4-87.4-81.3c-58.1-16.2-151.5,15.5-188,63.4c-57.7,76-65.4,186.1-15.8,267.7
				c39.9,65.7,82.6,80.1,146.3,73.9c35.3-3.4,65.7-25.4,93.1-47.8C968.6,1545.2,987.3,1485.9,988.7,1419.6z"/>
			<path class="st0" d="M441.9,2465.3c-2.6-21.1,2.7-38.6,7.4-55.9c31.3-113.3,55.7-228.4,73.3-344.6c4.2-28.4,8.4-56.8,12.9-85.2
				c1-6.3,1.6-14.9,10-14.4c10.1,0.6,6.2,10,5.9,15.7c-7.8,147.5-34.2,293.4-78.5,434.4C465.1,2439.6,457.2,2450.9,441.9,2465.3z"/>
			<path class="st0" d="M1298.7,2011.1c-14.8,22.4-37.4,31.6-60.3,36.8c-27.2,6.3-47.1,20.5-69,37.7
				c-69.8,54.9-145.8,100.9-230.4,130.8c-13.6,4.8-27.5,8.4-42.1,6.7c-5.3-0.6-10.9-1.8-10.8-8.7c0-5.7,5-6.7,9.6-7.8
				c103.1-29.2,190.6-88,274.1-151.5C1209.9,2024.6,1255.6,2025.1,1298.7,2011.1z"/>
			<path class="st0" d="M544.3,3002.1c-13-1.9-28.2-2.5-41.9-9.7c-6.8-3.6-11.8-9.3-9.3-17.5c2.4-8.2,9.4-5.8,15-5.5
				c9.8,0.4,19.5,1.3,29.2,2.8c16,2.6,21-2.6,17.3-19c-8.2-35.8-20.3-70.3-31.9-105c-5.4-16-6.3-39.2-17.5-46.3
				c-11.8-7.6-31,7.8-47.1,12.3c-6.4,1.7-15.4,7.4-18.3-2.8c-2.3-7.8,7.1-9.8,12.8-12.1c18-7.6,36.3-14.7,54.5-21.9
				c9.8-3.9,17.1-0.5,20,9.3c17.4,57.5,42.6,112.6,54.9,171.7C587.9,2988.4,575.5,3003.1,544.3,3002.1z"/>
			<path class="st0" d="M853.8,3144.6c11.8-65.2,20.7-130.8,28.6-196.6c7.6-63.5,13.8-127.1,18.6-190.8c0.4-5.5-1.6-12,5.3-15.7
				c6.9,5.3,4.8,13.1,5.1,19.6c4.2,83.9-8.4,166.5-20.6,249.1c-6.5,43.8-16.1,87.1-28.8,129.5c-0.5,1.6,0.8,3.9,1.3,5.7
				L853.8,3144.6z"/>
			<path class="st0" d="M1439.5,1985.4c-0.7,7.8-6.2,12.8-12.2,16.8c-39.6,27.8-81.2,52.7-124.4,74.5c-7.4,3.6-16.6,9.4-22.3-1.2
				c-5.5-9.9,3.3-15.7,10.2-20.4c40.5-26.4,81.1-52.8,122-78.5C1426.5,1968,1439.7,1973.1,1439.5,1985.4z"/>
			<path class="st0" d="M443.9,3004.4c17.1,36.8,77.1,294.5,76.5,321.1C483.7,3221.1,454.6,3114.7,443.9,3004.4z"/>
		</g>
	</g>
</g>
<g id="Layer_2_3_">
	<g id="Layer_1-2">
		<path class="st0" d="M1161.9,1139.1c16.7-13.9,38.1-15.3,57.7-19.9c122.5-28.4,247.2-41.6,372.4-50.5
			c150.7-10.8,301.6-15.6,452.7-14.4c236.2,1.5,471.7,15.7,706.5,40.5c110.5,11.8,221,23.5,329.6,47.9c12.8,2.9,25.4,6,37.9,10
			c5.3,1.7,15.9,0.4,13.1,10.1c-1.8,6.5-10.4,3.5-15.7,2.7c-24.5-3.9-48.8-8.7-73.2-12.6c-177.7-28-356.5-45.8-535.8-59.2
			c-227.8-17.1-455.8-22.8-684-17.4c-160.9,3.9-321.3,11.8-480.8,34.4c-56.1,8-111.8,18.1-167.1,30.3c-4.6,1-8.7,2.8-12.6-1.3
			L1161.9,1139.1z"/>
		<path class="st0" d="M1241,1055.3c4.9-39.2,14.7-77.8,37.3-111.8c16.4-24.6,36-23,48,4.2c11.7,27.1,20,55.5,24.8,84.6
			c1.9,11.5,6.6,22.5,9.9,33.8c1.5,4.9,4.4,10.8-1.8,13.9c-6.9,3.4-10.8-2.5-13.9-7.4c-7.4-13.2-12.2-27.6-14.3-42.5
			c-2.2-11.5-7.6-15.7-18.9-12.6c-4.5,1.1-9,1.8-13.5,2.3c-35.3,4.4-35.1,4.4-41.7,37.7c-1.2,6.1-0.5,15.9-8.3,15.7
			C1238.2,1072.8,1242.6,1062.3,1241,1055.3z M1280.5,1005c40.9,1,48.1-10,30.7-47.1c-0.5-1.2-1.1-2.4-1.7-3.5
			c-5.3-10.5-10.8-9.7-16.8-0.5c-8.1,12.6-14.6,26.2-19.4,40.4C1271.2,1000.9,1271.3,1006.3,1280.5,1005z"/>
		<path class="st0" d="M2625.3,1018.6c-1.2,7.8-2.2,17.7-3.9,27.5c-1,5.1-3,10.9-9.8,9.8s-7.2-7.2-6.9-12.4
			c0.8-10.4,2.8-20.7,3.3-31.2c0.4-6.7,2.3-16.7-7.2-17.6c-9.5-0.9-15.1,6.7-16.9,15.7c-1.8,8.9-2.9,19.3-4.7,28.9
			c-0.3,4.7-4.3,8.2-9,7.9c-0.2,0-0.4,0-0.6-0.1c-6.1-0.9-6.6-6.2-6.1-10.8c1.1-12.4,2.9-24.6,3.9-37c0.4-5.1,0.4-11.8-5.2-13.7
			c-5.6-1.9-9.3,3.6-13.1,6.9c-7.8,6.7-8.2,15.7-8.6,25.1c0.1,3.9-0.2,7.9-0.9,11.8c-1.8,6.9,0.4,18.8-10.7,17.3
			c-10.4-1.4-7.3-12.3-6.4-19.6c1.7-15.7,3.9-31,6.7-46.5c1.1-6.4,2.7-14.7,11.8-5.7c5.3,5.2,7.8-0.9,11.5-2.7
			c10.3-5.1,18.8-3.9,25.5,5.9c2.3,3.4,2.6,7.8,9.8,5.8C2613.4,976.6,2626.5,988.5,2625.3,1018.6z"/>
		<path class="st0" d="M2657,1014.5c1.7,9.4-5.9,27.2,6,29.7c10.5,2.2,10.5-16.6,14.4-26.4c2.3-5.9,2.5-14.9,10.5-14.4
			c9.5,0.6,8.4,10,9.1,17c0.2,2.6,0,5.3,0.2,7.8c0.9,8.8-1,21.9,10.2,22.3c11.2,0.4,15.3-12.2,16.9-22.8c0.9-5.8,0-11.8,0.5-17.6
			c0.3-4.8,2-9.3,7.8-8.9c4.1,0.1,7.5,3.3,7.8,7.5c0.7,18,4.3,36.7-13.1,50.1c-12,9.3-23.3,15-34.6-0.7c-4.5-6.2-8.2-7.1-15.3-1.1
			c-14.6,12.2-29,7.2-33.7-11.2c-3.5-16-3.3-32.6,0.6-48.6c1-4.9,2.4-12,8.9-11.1c7.1,1,4.2,8.3,4.4,13.1
			C2657.8,1003.9,2657.3,1008.2,2657,1014.5z"/>
		<path class="st0" d="M1546.7,968.8c-21.2,4.5-45.9,4.3-50.5,33.4c-1.5,7.3,2.4,14.7,9.3,17.6c14.4,6.9,28.9,9,47.9-1.8
			c-12.7-1-20.4-1.3-28-2.4c-4.7-0.7-8.9-3.3-8.6-8.9c0.3-4.7,4.3-6.2,8.3-6.7c11.6-1.7,23.5-0.6,34.6,3.3
			c9.5,3.2,9.6,11.5,6.2,19.6c-7.6,18.6-39.2,25-64.4,13.1c-22.4-10.7-27.5-30.3-14-53.8c13.5-23.5,36.9-31.4,57-18
			C1545.6,964.7,1545.7,966.5,1546.7,968.8z"/>
		<path class="st0" d="M2113.2,977.9c9.4-2.9,19.5-2.8,28.8,0.4c8.6,2.6,15.7,7.8,16.2,17.3c0.3,8.1-4.5,15.6-12,18.8
			c-15.4,7.3-31.4,9.7-46.1-1.5c-13.1-9.9-16.8-29.1-8.9-48.2c6.9-16.5,18.2-28.4,37.3-30.1c6-0.5,13.1,0.8,14,7.6
			c1.5,10.4-7.6,5.3-12.2,6.5c-14.8,3.9-22.8,13.9-25,28.8c-1.2,23,10.1,33.5,29.6,27.5c3.9-1.1,7.8-2.3,7.5-7.3
			c-0.3-3.9-4.3-4.4-7.4-4.9c-5.1-0.8-10.4-1.3-15.7-2C2111,989.6,2107.3,986.1,2113.2,977.9z"/>
		<path class="st0" d="M1610.4,954c8.7-7.4,18.5-5.8,24.4,1.6c8.9,11.4,13.1,5.6,20.4-1.3c15.7-14.6,30.6-10.8,37.7,9.2
			c5.3,15.5,7.5,31.9,6.5,48.3c-0.2,5.1-0.8,11.8-7.4,12.2c-7.2,0.6-7.5-6.2-8.1-11.1c-1.3-9.1-1.4-18.2-2.6-27.3
			c-1.3-9,1.6-23.9-11.1-22.4c-11.8,1.4-20.5,13-19.1,27.7c0.8,8.4,1.7,16.9,2.2,25.3c0.3,4.6,0,10.3-5.3,11.3
			c-6.7,1.2-8.8-4.5-9.7-9.8c-2.4-14.1-4.2-28.4-6.9-42.4c-2.5-12.4-9.2-16.9-20.8-8.8C1610.5,962.2,1610.4,958.1,1610.4,954z"/>
		<path class="st0" d="M1805.5,977.3c0-8.4-0.2-12.6,0-21.1c0-4.4-0.3-10,4.4-12.2c6.3-3.1,7.1,3,9.1,6.8c3,5.5,6.2,1.4,9.5,0
			c22.6-9.1,37.4-2.6,45.4,20.6c4,11.7,5.8,24.1,5.2,36.5c-0.2,5.3-1.7,11.4-8,11.8c-6.3,0.4-8.2-5.6-9-10.9
			c-1.4-9.7-2.3-19.4-3.6-29.1c-1.3-9.7-3.2-19.9-15.3-18.7c-11.8,0.5-20.9,10.4-20.4,22.1c0,0,0,0.1,0,0.1
			c-0.2,9.1,1.1,18.2,1.1,27.5c0,5.8,0,13.3-7.8,13.3c-7,0-9.1-6.8-9.3-12.9c-0.4-9.7,0-19.6,0-29.3
			C1806.2,981.6,1805.8,977.3,1805.5,977.3z"/>
		<path class="st0" d="M2318.1,918.4c-18.8-6.4-38.6-4.4-57.8-7.4c-5-0.8-12.4,0.4-12.8-6c-0.6-7.8,7.4-7.8,12.9-8.6
			c17.7-2.3,35,2.1,52.5,3.2c31.2,2,62.3,4.8,93.5,7.3c5.7,0.5,13.6-0.5,13.9,7.2c0.4,9.5-8.4,8.4-14.6,8.2c-26-1.1-52-2.5-78-3.9
			L2318.1,918.4z"/>
		<path class="st0" d="M1998.5,978.2c0.8-7.3,1.5-17.8,3.2-28.1c1.4-8.8,3.9-16.8,13.2-4.6c5,6.4,7.3-1,10.2-3
			c20.3-14.3,33.2-10.1,41.1,13.7c4.7,14,3.9,28.4,3.1,42.8c-0.4,5.5,0,13.3-8.2,12.8c-6.1-0.5-6.9-7.2-7.1-12.4
			c0.1-13.1-1-26.1-3.2-39c-2.7-12.8-8.6-12.9-17.7-6.2c-11.9,8.5-18.8,22.4-18.4,37.1c0,7.5,3.3,20.3-9.3,19.6
			c-10.3-0.6-6.1-12.4-6.8-19.6C1998.5,987.8,1998.5,984.5,1998.5,978.2z"/>
		<path class="st0" d="M2928.4,1043.4c1.6,0.1,3.3,0.1,4.9,0c8.6-2,18-14.8,23.7-8.2c7.8,8.9-8,11.3-12.1,17.7
			c-5.5,8.6,3.6,11,6.3,16c4.3,7.8,19.6,16,12,22.9c-7.6,6.9-17.8-5.7-24.4-13.2c-10.1-11.8-17.5-16-20.9,4.2
			c-0.7,4.3-3.1,9.3-9,8.2c-4.7-0.9-7.8-5.4-6.9-10.1c0-0.2,0.1-0.4,0.1-0.5c2.9-21.2,6.4-42.4,9.9-63.5c0.7-3.9,2.7-7.8,7.8-6.9
			c5.1,0.9,6,4.9,6.5,8.7C2927.2,1026.8,2927.6,1035.1,2928.4,1043.4z"/>
		<path class="st0" d="M2820.1,1040c0,22.2-19.6,43.2-40.1,42.7c-16.1,0.4-29.4-12.4-29.8-28.5c0-0.4,0-0.8,0-1.2
			c0-21.8,22.2-46.8,42-47.6C2806,1004.8,2820.1,1022.2,2820.1,1040z M2805.5,1039.4c-2.6-7.8-3.3-19.1-16.2-19.6
			c-9.5-0.4-24.8,20.2-24.6,32.1c0,10.2,5.8,15.5,15.7,16C2793.2,1068.5,2805.7,1054.7,2805.5,1039.4z"/>
		<path class="st0" d="M2867.8,1053.7c3.9,9.9,21.7,16.7,11.8,26c-8.4,7.8-16.6-7.2-24.2-13.1c-2.5-1.9-4.7-4.2-6.8-6.2
			c-5.1,2.4-4.9,6.6-5.7,10.2c-1.1,4.8-3,9.1-8.8,8.2c-6.7-1.1-7.8-6.7-6.8-12c2.4-13.4,3.9-27.2,8.7-39.8s15.7-17.8,29.2-18.8
			c11.8-0.9,15.3,7.8,18.9,15.7C2891.6,1040.2,2879.1,1046.4,2867.8,1053.7z M2864.5,1020.8c-5.9,0.8-13.1,1.5-12.9,8.9
			c0,6.3,6.9,6.2,12.1,6.7c6.2,0.6,10.2-1.5,9.9-8.4C2873.4,1021.9,2869.5,1020.5,2864.5,1020.8z"/>
		<path class="st0" d="M2375.1,1013.5c11.5,15.7,29.7,9.3,51,14.4c-18.4,10.8-32.5,14.4-48.6,8.7c-16.9-5.1-27.5-21.8-25-39.2
			c1.5-16.3,9-28.7,25.7-32.9c12.4-3.1,23.5,0,30.3,11.8c6.2,10.6-1.4,16.4-9.3,21.6c-8.7,1.8-36.6,15-7.1-7.1
			c3-4.6,4.4-8.2-0.9-11.2c-4.1-2.4-9.3-1.8-12.7,1.5C2367.3,990.4,2368.9,1001.8,2375.1,1013.5z"/>
		<path class="st0" d="M2496.3,1022c-1.2,7.3,1.1,17.1-8.1,18.2c-9.1,1.1-7.8-8.6-8.5-14.5c-0.7-7.5-4.1-10.6-11.3-9.6
			c-8.2,1.1-19.2-4.6-22.2,9.3c-0.9,3.9-0.7,10.6-7.1,9.2c-5.6-1.2-4.7-7.4-4.2-11.8c2.1-18.4,6.9-36,20.8-49.4
			c11.8-11.5,24.1-9.5,31.7,5.2C2494.6,992.4,2494.5,1007.7,2496.3,1022z M2477.2,993c-1.2-3.9-1.3-10.9-7.8-10.3
			c-6.7,1.1-11.6,6.7-11.8,13.5c-0.7,7.3,6.1,4.6,9.9,5.1C2472.9,1001.8,2478.4,1001.8,2477.2,993z"/>
		<path class="st0" d="M1745.3,997.1c6.8,8.5,18.3,11.5,28.3,7.4c3.9-1.4,9.1-4.8,11.8,1.6c2,5-2,8.5-5.3,11.8
			c-17.2,16.2-52.2,2.3-59.2-23.5c-5.7-18.6,4.7-38.4,23.4-44.1c4.8-1.5,9.8-1.9,14.8-1.3c8.2,0.9,15.5,3.3,18.7,11.8
			c3.2,8.5-3.1,12.9-8.6,17.6c-3,2.5-5.6,5.4-8.4,8.2l-9.2-2.4c4.9-6.2,14.4-10.1,13-19.3c-0.7-4.6-7.6-3.7-11.8-2.4
			c-9.8,3.1-17,9-16.4,20.6c0,2.2,2.1,4.4,3.3,6.5C1740,993.3,1740.7,996.6,1745.3,997.1z"/>
		<path class="st0" d="M1375.4,992.4c5.7,6.8,2.9,14.1,3.7,20.6c1.6,14,7.2,26.3,22.7,26.7c19.6,0.5,34.5-12.7,35.8-27.8
			c0.8-9.3-7.3-24.8,8.2-25.3c13.1-0.5,10.7,15.2,11.3,25.1c0.7,8.5,4,16.6,9.5,23.1c3,3.9,8.5,7.8,3.2,13.3
			c-3.4,3.8-9.3,4.1-13,0.6c-0.4-0.3-0.7-0.7-1.1-1.1c-11-14-20.2-9.1-32.5-1c-12.6,9.2-29.9,8.5-41.7-1.7
			C1369.1,1034.8,1366.8,1015.3,1375.4,992.4z"/>
		<path class="st0" d="M1946.8,948.4c-26.1,5.4-24.2,20.7-23,35.7c0.4,4.6,0.4,9.2,0.1,13.8c-0.5,6,1.9,14.9-7.8,14.9
			c-7.8,0-7.3-7.8-7.8-13.5c-0.5-5.6-0.6-10.4-0.9-15.7c-0.3-4.6,1.2-10.8-1.2-13.4c-17.1-17.9,0.8-33.9,1.8-50.7
			c0.2-3.6-0.6-8.7,4.6-9.5s6.9,3.9,6.9,7.5C1919.5,932.7,1925.9,942.9,1946.8,948.4z"/>
		<path class="st0" d="M2318.1,918.4h9.7c7,32.6,0.5,64.6-4.4,96.6c-0.8,5.5-2.3,13.1-9.6,12.7c-8.6-0.5-8.9-8.7-8.1-15.1
			C2309.6,981.3,2314,949.9,2318.1,918.4z"/>
		<path class="st0" d="M1610.4,954c0,3.9,0,8.2,0,12.4c-8.6,9.6-9.3,20.3-7,32.8c1.8,9.6,10.5,26-3.9,28.1
			c-13.7,1.8-10.4-16.3-12.6-26.4c-1.8-9-2.8-18.1-3.3-27.2c-0.8-14.6-0.5-14.5,13.8-12.3C1603.6,962.3,1604.9,954.7,1610.4,954z"/>
		<path class="st0" d="M1972.1,980.9c-1,7.8-1.9,17.7-3.6,27.5c-0.3,4-3.7,7-7.7,6.8c-0.1,0-0.3,0-0.4,0c-4.1-0.5-7.1-4.1-6.8-8.2
			c1-17.5,1.3-35.1,5.6-52.2c0.8-3.4,2.7-7,6.2-6c2.8,1.5,4.7,4.2,5.2,7.4C1971.6,963.5,1971.6,971.4,1972.1,980.9z"/>
		<path class="st0" d="M1966.3,906.9c7.5,0.4,13.1,3.2,13.1,11.4c0,6.5-4.4,8.9-10.4,8.9c-7.2-0.2-13-3.1-13.1-11.3
			C1955.8,909.3,1960.6,907.1,1966.3,906.9z"/>
		<path class="st0" d="M1751.8,984.2l9.2,2.4l-15.7,10.5c-4.6-0.5-5.2-3.9-5.5-7.5L1751.8,984.2z"/>
		<path class="st0" d="M1161.9,1139.1l0.7,0.7l-3.7,2.9L1161.9,1139.1z"/>
	</g>
</g>
</svg>
