<svg xmlns="http://www.w3.org/2000/svg" viewBox="0 0 384 512">
    <!-- Font Awesome Free 5.15.4 by @fontawesome - https://fontawesome.com License - https://fontawesome.com/license/free (Icons: CC BY 4.0, Fonts: SIL OFL 1.1, Code: MIT License) -->
    <g>
<path fill-rule="evenodd" clip-rule="evenodd" d="M224 136V0H24C10.7 0 0 10.7 0 24V488C0 501.3 10.7 512 24 512H360C373.3 512 384 501.3 384 488V160H248C234.8 160 224 149.2 224 136ZM288 244V236C288 229.4 282.6 224 276 224H253C246.4 224 241 229.4 241 236V244C241 250.6 246.4 256 253 256H276C282.6 256 288 250.6 288 244ZM288 308C288 314.6 282.6 320 276 320H253C246.4 320 241 314.6 241 308V300C241 293.4 246.4 288 253 288H276C282.6 288 288 293.4 288 300V308ZM288 372C288 378.6 282.6 384 276 384H108C101.4 384 96 378.6 96 372V364C96 357.4 101.4 352 108 352H276C282.6 352 288 357.4 288 364V372ZM149.5 200C112.221 200 82 230.22 82 267.5C82 304.78 112.221 335 149.5 335C186.779 335 217 304.78 217 267.5H149.5V200Z" />
<path d="M384 121.9V128H256V0H262.1C268.5 0 274.6 2.5 279.1 7L377 105C381.5 109.5 384 115.6 384 121.9Z" />

    </g>
</svg>
