<svg xmlns="http://www.w3.org/2000/svg" viewBox="0 0 384 512">
    <!-- Font Awesome Free 5.15.4 by @fontawesome - https://fontawesome.com License - https://fontawesome.com/license/free (Icons: CC BY 4.0, Fonts: SIL OFL 1.1, Code: MIT License) -->
    <g>
<path d="M224 136V0H24C10.7 0 0 10.7 0 24V488C0 501.3 10.7 512 24 512H360C373.3 512 384 501.3 384 488V160H248C234.8 160 224 149.2 224 136ZM237 372C237 378.6 231.6 384 225 384H108C101.4 384 96 378.6 96 372V364C96 357.4 101.4 352 108 352H225C231.6 352 237 357.4 237 364V372ZM288 308C288 314.6 282.6 320 276 320H108C101.4 320 96 314.6 96 308V300C96 293.4 101.4 288 108 288H276C282.6 288 288 293.4 288 300V308ZM288 236V244C288 250.6 282.6 256 276 256H108C101.4 256 96 250.6 96 244V236C96 229.4 101.4 224 108 224H276C282.6 224 288 229.4 288 236ZM384 121.9V128H256V0H262.1C268.5 0 274.6 2.5 279.1 7L377 105C381.5 109.5 384 115.6 384 121.9Z" />

    </g>
</svg>
