<svg width="512" height="483" viewBox="0 0 512 483" fill="none" xmlns="http://www.w3.org/2000/svg">
<g clip-path="url(#clip0_0_10)">
<path d="M446.923 365.789C446.587 365.481 446.176 365.267 445.731 365.166C445.287 365.066 444.823 365.082 444.387 365.215C424.338 335.613 398.834 307.542 374.143 280.427L370.076 275.98C370.076 275.453 369.836 274.975 369.501 274.545C369.097 274.035 368.517 273.694 367.874 273.588L367.061 272.728L366.487 272.297C365.769 270.767 363.951 269.619 361.941 270.623C354.381 274.497 347.586 280.044 340.887 285.161C331.939 292 323.182 299.125 314.952 306.777C311.602 309.885 308.301 313.137 305.525 316.772C304.185 318.541 305.19 320.215 306.817 320.932C300.979 326.671 295.094 332.648 289.208 338.817C288.682 339.391 288.395 340.156 288.443 340.921C288.49 341.687 288.873 342.404 289.495 342.882L299.831 350.773C299.831 350.773 299.879 350.916 299.975 350.964C314.76 365.55 340.695 385.778 368.161 407.203C372.229 410.407 376.344 413.611 380.459 416.815C382.325 419.062 384.096 421.31 385.818 423.51C386.727 424.705 388.45 424.944 389.646 424.036C390.268 424.514 390.89 425.04 391.513 425.518C391.795 425.738 392.119 425.9 392.464 425.995C392.809 426.09 393.17 426.116 393.526 426.072C393.881 426.027 394.224 425.913 394.536 425.736C394.847 425.559 395.121 425.323 395.341 425.04C395.675 424.61 395.819 424.084 395.867 423.558C396.058 423.558 396.202 423.701 396.345 423.701C397.063 423.701 397.829 423.414 398.355 422.84L447.067 369.662C447.309 369.401 447.497 369.093 447.619 368.757C447.741 368.422 447.795 368.066 447.777 367.709C447.759 367.353 447.67 367.004 447.515 366.682C447.361 366.36 447.143 366.073 446.875 365.837L446.923 365.789ZM307.056 347.377C307.391 347.808 307.726 348.19 308.061 348.573C313.612 353.26 319.545 358.329 325.575 363.493L301.075 344.795C301.075 344.795 299.544 343.743 298.587 343.073C298.061 342.691 297.582 342.308 297.104 341.926L295.285 340.395C295.285 340.395 295.62 340.061 295.764 339.869L297.438 338.196C305.669 329.875 319.785 316.006 327.058 309.216C319.354 316.963 303.755 339.678 307.104 347.377H307.056ZM390.938 413.419L370.745 398.021C362.85 389.843 354.333 381.761 345.672 373.966C356.582 382.383 365.913 389.508 367.3 390.752C377.875 400.173 377.397 398.451 384.67 404.668L393.427 411.028C392.565 411.793 391.704 412.606 390.89 413.372L390.938 413.419ZM396.01 417.293L395.628 417.006C396.393 416.384 397.207 415.81 397.972 415.189L396.058 417.293H396.01ZM75.7473 105.017C76.4172 108.46 77.0392 111.855 77.6613 115.107C80.963 132.801 84.0254 148.726 89.8632 160.825L92.16 170.006C93.0691 173.497 94.3611 177.849 95.5574 178.758C109.195 190.809 130.105 208.79 152.452 225.719C153.456 226.484 154.844 226.436 155.801 225.671C155.849 225.767 155.945 225.814 155.993 225.862C156.519 226.341 157.141 226.58 157.811 226.58C158.576 226.58 159.294 226.293 159.821 225.671C188.435 193.87 209.729 167.711 224.897 145.809C225.854 144.613 226.333 143.226 226.285 141.792C227.242 140.644 228.247 139.496 229.156 138.54C229.433 138.256 229.643 137.913 229.771 137.538C229.899 137.163 229.941 136.764 229.895 136.37C229.85 135.976 229.716 135.597 229.506 135.261C229.295 134.925 229.012 134.64 228.677 134.427C228.619 133.775 228.331 133.165 227.864 132.705C221.213 126.297 216.284 121.659 211.308 117.02C202.503 108.795 193.412 100.282 174.128 81.1058C174.032 81.0101 173.889 80.9145 173.793 80.8188C173.5 80.5153 173.139 80.2858 172.74 80.1493C167.429 78.2843 156.519 76.4192 142.786 74.0281C122.593 70.585 94.9353 65.8028 70.0531 58.3904H69.8617V58.3426C69.8617 58.3426 69.766 58.3426 69.7181 58.4382H69.6703L69.8617 58.3426C69.8617 58.3426 68.3783 58.3904 68.0912 58.5339C67.7084 58.7252 67.4213 58.9643 67.1821 59.2512C66.9428 59.5381 66.7514 59.8251 64.9331 60.2076C63.1148 60.5902 65.3159 60.2076 65.4594 60.2076H64.9331V60.3511C65.268 61.977 65.1723 63.1248 65.6987 64.9898C65.603 65.468 66.7036 69.8676 66.8471 70.298L75.6037 105.017H75.7473ZM223.844 136.292C223.844 136.292 223.701 136.483 223.653 136.531L220.591 133.136C221.643 134.14 222.696 135.144 223.844 136.292ZM189.918 181.197C189.918 181.197 189.584 181.579 189.44 181.771L189.344 181.675C189.536 181.532 189.727 181.34 189.966 181.197H189.918ZM170.539 85.075C172.214 86.7487 178.865 92.9656 180.396 94.4959C173.458 91.3396 156.184 83.3055 148.145 80.7232C156.04 82.11 166.95 83.8794 170.539 85.075ZM78.7619 71.8283C82.7813 78.7147 85.9394 102.865 89.0976 126.345C87.3271 118.789 85.7959 111.425 84.3604 104.347C81.8721 92.1048 79.5753 81.1536 76.3693 71.4458C77.0392 71.4936 77.8527 71.5892 78.714 71.6849C78.714 71.7327 78.714 71.7805 78.8097 71.8283H78.7619ZM77.3742 66.0419C76.2736 65.9462 75.2688 65.8506 74.4075 65.8028C74.3118 65.6115 74.2639 65.4202 74.2161 65.2289L77.3742 66.0897V66.0419ZM442.569 62.5509C442.76 61.451 437.305 56.621 439.028 56.5254C443.095 56.3341 443.143 50.0694 439.028 50.2607C433.621 50.5476 428.166 51.791 422.902 52.7952C413.428 54.5647 404.001 56.5254 394.575 58.5817C373.569 63.0769 352.61 67.8113 331.891 73.4543C325.383 75.2237 318.206 76.8018 312.224 79.958C310.215 81.0101 310.31 83.1621 311.411 84.5011C310.98 84.7402 310.55 84.8837 310.071 84.9315C308.301 85.2662 306.53 85.5532 304.76 85.8401C304.318 85.9107 303.9 86.0896 303.544 86.361C303.188 86.6323 302.905 86.9876 302.72 87.3951C302.535 87.8025 302.454 88.2494 302.485 88.6957C302.515 89.1421 302.655 89.574 302.893 89.9528C291.792 104.778 279.16 120.75 265.474 137.535C252.028 152.886 238.056 169.241 223.749 186.027C178.721 238.918 127.665 298.886 71.1058 351.681C70.0052 352.686 69.9574 354.407 70.9622 355.507C71.2015 355.794 71.5364 355.985 71.8714 356.129C71.1058 356.846 70.3402 357.564 69.5746 358.233C69.0961 358.663 68.9047 359.189 68.809 359.763C68.4262 360.146 68.0434 360.576 67.7084 360.959C66.7036 362.059 66.7514 363.78 67.852 364.785C68.9525 365.789 70.6751 365.741 71.68 364.641C71.8714 364.45 72.0628 364.211 72.2542 364.019C72.6298 363.623 73.0824 363.307 73.5842 363.091C74.0861 362.875 74.6267 362.764 75.1731 362.764C75.7194 362.764 76.2601 362.875 76.7619 363.091C77.2638 363.307 77.7163 363.623 78.092 364.019C81.3936 367.558 84.5039 370.906 87.4228 374.014L80.8194 368.515C80.2663 368.054 79.5535 367.831 78.8364 367.894C78.1193 367.957 77.4562 368.3 76.9914 368.849C76.0344 369.997 76.1779 371.719 77.3263 372.675L148.241 432.118C148.767 432.548 149.389 432.739 150.011 432.739C150.729 432.739 151.399 432.452 151.925 431.926L153.648 430.205C154.149 430.429 154.706 430.494 155.245 430.392C155.785 430.289 156.279 430.024 156.662 429.631C252.794 333.127 330.216 260.198 418.883 195.017C419.696 194.443 420.079 193.487 419.984 192.578C420.505 192.521 421 192.315 421.407 191.984C421.814 191.653 422.118 191.212 422.28 190.713C438.645 140.692 441.803 96.4087 442.76 74.6498C442.76 74.5063 442.808 74.4107 442.856 74.3151C442.952 74.0759 443 73.8368 443.047 73.6455C443.191 73.1195 443.287 72.7369 443.287 72.7369C444.531 69.0068 444.1 65.4202 442.569 62.4553V62.5509ZM270.69 140.835C274.997 135.91 279.255 131.08 283.466 126.393C255.904 162.642 210.255 218.498 145.609 284.874C189.631 236.192 233.989 185.74 270.69 140.835ZM114.937 393.382L114.793 393.239C115.32 393.334 115.702 393.43 115.75 393.43C115.481 393.38 115.206 393.38 114.937 393.43V393.382ZM147.954 424.084L147.714 423.892L147.858 423.749C147.954 423.749 148.001 423.845 148.049 423.845C148.049 423.94 147.954 423.988 147.906 424.084H147.954ZM187.957 389.604L194.56 382.718C194.608 382.766 194.656 382.861 194.704 382.957C192.455 385.157 190.206 387.404 187.909 389.604H187.957ZM198.675 379.035C199.919 377.601 201.355 375.927 202.838 374.158C202.886 374.11 202.934 374.014 203.03 373.966C218.772 357.755 234.994 341.352 251.741 324.949C251.837 324.853 251.981 324.758 252.076 324.662C256.191 321.506 260.785 318.015 265.092 314.715C243.463 335.374 221.5 356.703 198.675 379.083V379.035ZM302.271 111.807C293.371 123.38 283.61 138.396 275.332 150.4C249.205 188.227 165.084 280.857 163.218 282.627C150.25 295.156 111.157 332.648 86.2265 356.129C85.5566 356.751 85.0303 357.277 84.5996 357.803C84.2509 357.44 83.9778 357.012 83.796 356.543C83.6143 356.074 83.5275 355.573 83.5409 355.071C83.5543 354.568 83.6674 354.073 83.8738 353.614C84.0802 353.155 84.3757 352.742 84.7432 352.399C203.508 240.496 275.571 147.291 304.855 106.69C304.233 108.269 303.707 109.99 302.224 111.903L302.271 111.807ZM381.272 145.761L381.225 145.856C381.225 145.761 381.129 145.522 381.272 145.761ZM348.734 166.42C337.92 160.155 332.848 150.782 335.767 141.313L336.676 138.157C337.059 137.249 337.489 136.34 338.016 135.431C340.839 130.745 345.145 126.584 350.074 124.145C350.313 124.05 350.553 124.002 350.792 123.954C350.539 123.299 350.473 122.588 350.6 121.898C350.84 120.415 351.797 119.124 353.758 119.124C356.964 119.124 366.917 122.089 370.698 125.341C371.846 126.25 372.947 127.254 373.951 128.354C375.387 130.027 377.492 132.753 378.545 134.714C379.167 135.001 379.646 137.679 380.363 139.066C381.033 141.266 381.32 143.513 381.225 145.761C381.225 145.856 381.225 145.856 381.272 145.904C381.129 146.239 381.273 147.674 381.081 147.817C380.603 151.26 379.358 154.656 377.492 157.621C377.301 157.86 377.157 158.147 376.966 158.386C376.966 158.434 376.87 158.481 376.822 158.577C375.387 160.633 373.712 162.546 371.655 163.981C365.625 168.237 358.591 169.528 351.557 167.759C350.629 167.405 349.719 167.006 348.83 166.563L348.734 166.42ZM426.587 158.625C424.242 168.428 421.371 178.662 417.974 189.135C417.83 189.518 417.83 189.9 417.83 190.235C417.352 190.283 416.921 190.474 416.538 190.761C395.293 206.351 374.765 222.419 354.428 239.109C371.99 223.232 389.79 207.451 408.164 191.526C413.488 186.902 417.053 180.586 418.261 173.641L420.941 157.525L421.084 157.047C422.28 153.651 427.496 155.134 426.683 158.625H426.587Z" fill="#6965DB"/>
</g>
<defs>
<clipPath id="clip0_0_10">
<rect width="512" height="483" fill="white"/>
</clipPath>
</defs>
</svg>
