<svg width="384" height="512" viewBox="0 0 384 512" fill="none" xmlns="http://www.w3.org/2000/svg">
<!-- Font Awesome Free 5.15.4 by @fontawesome - https://fontawesome.com License - https://fontawesome.com/license/free (Icons: CC BY 4.0, Fonts: SIL OFL 1.1, Code: MIT License) -->
<g clip-path="url(#clip0_2_4)">
<path d="M224 0V136C224 149.2 234.8 160 248 160H384V488C384 501.3 373.3 512 360 512H24C10.7 512 0 501.3 0 488V24C0 10.7 10.7 0 24 0H224ZM169 315C162.65 315 157.5 320.15 157.5 326.5V372.5C157.5 378.85 162.65 384 169 384H215C221.35 384 226.5 378.85 226.5 372.5V326.5C226.5 320.15 221.35 315 215 315H169ZM88.5 200C82.1498 200 77 205.15 77 211.5V257.5C77 263.85 82.1498 269 88.5 269H122.899L149.191 315.015C153.18 308.165 160.519 303.5 169 303.5H169.101L146 263.074V246H226.5V223H146V211.5C146 205.15 140.85 200 134.5 200H88.5ZM249.5 200C243.15 200 238 205.15 238 211.5V257.5C238 263.85 243.15 269 249.5 269H295.5C301.85 269 307 263.85 307 257.5V211.5C307 205.15 301.85 200 295.5 200H249.5ZM262.1 0C268.5 0 274.6 2.50012 279.1 7L377 105C381.5 109.5 384 115.6 384 121.9V128H256V0H262.1Z" />
</g>
<defs>
<clipPath id="clip0_2_4">
<rect width="384" height="512" />
</clipPath>
</defs>
</svg>
