<svg xmlns="http://www.w3.org/2000/svg" viewBox="0 0 384 512">
    <!-- Font Awesome Free 5.15.4 by @fontawesome - https://fontawesome.com License - https://fontawesome.com/license/free (Icons: CC BY 4.0, Fonts: SIL OFL 1.1, Code: MIT License) -->
    <g>
<path fill-rule="evenodd" clip-rule="evenodd" d="M224 0V136C224 149.2 234.8 160 248 160H384V488C384 501.3 373.3 512 360 512H24C10.7 512 0 501.3 0 488V24C0 10.7 10.7 0 24 0H224ZM174.568 230.465L117.288 286.825C115.405 288.693 112.361 288.653 110.478 286.785L77.3921 253.677C75.5095 251.809 75.5495 248.788 77.4322 246.92L88.8081 235.712C90.6907 233.844 93.7349 233.884 95.6176 235.752L114.043 254.194L156.503 212.381C158.385 210.513 161.429 210.553 163.312 212.421L174.608 223.709C176.491 225.617 176.45 228.597 174.568 230.465ZM174.568 322.465L117.288 378.825C115.405 380.693 112.361 380.653 110.478 378.785L77.3921 345.677C75.5095 343.809 75.5495 340.788 77.4322 338.92L88.8081 327.712C90.6907 325.844 93.7349 325.884 95.6176 327.752L114.043 346.194L156.503 304.381C158.385 302.513 161.429 302.553 163.312 304.421L174.608 315.709C176.491 317.617 176.45 320.597 174.568 322.465ZM299 260V252C299 245.4 293.6 240 287 240H214C207.4 240 202 245.4 202 252V260C202 266.6 207.4 272 214 272H287C293.6 272 299 266.6 299 260ZM299 344V352C299 358.6 293.6 364 287 364H214C207.4 364 202 358.6 202 352V344C202 337.4 207.4 332 214 332H287C293.6 332 299 337.4 299 344Z" />
<path d="M384 128V121.9C384 115.6 381.5 109.5 377 105L279.1 7C274.6 2.5 268.5 0 262.1 0H256V128H384Z" />
    </g>
</svg>

