<?xml version="1.0" encoding="UTF-8"?>
<svg id="Ebene_1" data-name="Ebene 1" xmlns="http://www.w3.org/2000/svg" viewBox="0 0 384 512">
<!-- Copyright: Bayerisches Staatsministerium für Unterricht und Kultus. Created by: Almato AG
This icon is licensed under the GNU Affero General Public License, Version 3.
See https://www.gnu.org/licenses/agpl-3.0.html for more information. -->
  <defs>
    <style>
      .cls-1 {
        fill: #917115;
      }

      .cls-1, .cls-2 {
        stroke-width: 0px;
      }

      .cls-2 {
        fill: #e52521;
      }
    </style>
  </defs>
  <path class="cls-2" d="M270.59,49.61c0-1.49,0-2.99-.64-4.48-.64-1.49-1.71-2.99-2.99-4.48l-9.59-9.6-11.51,11.52,9.81,9.81c1.49,1.49,2.99,2.35,4.48,2.99s2.99.64,4.48.43,2.77-1.07,4.05-2.35c1.07-1.07,1.71-2.56,1.92-3.84Z"/>
  <path class="cls-2" d="M347.98,126.63s10.45-21.97,10.66-22.4c-.43,0-22.6,10.45-22.6,10.45l11.94,11.95Z"/>
  <path class="cls-2" d="M274,39.16c1.28.43,2.56.43,4.05,0s2.35-.85,3.41-1.92c1.71-1.71,2.35-3.41,2.13-5.33,0-1.92-1.07-4.05-2.99-5.97l-8.96-8.96-10.66,10.67,9.38,9.39c1.07,1.07,2.35,1.92,3.62,2.35v-.21Z"/>
  <path class="cls-2" d="M383.38,23.59c0-13.01-10.45-23.25-23.45-23.25h-211.08l234.75,234.88V23.8l-.21-.21ZM262.7,61.35c-1.71,0-3.41-.64-5.33-1.49-1.71-.85-3.41-2.13-5.12-3.63l-13.86-13.87,32.84-32.85,13.43,13.44c1.92,1.92,3.2,3.84,4.05,5.97s.85,4.05.43,6.19c-.43,1.92-1.49,3.84-3.2,5.55-1.71,1.71-3.84,2.77-6.18,3.2-1.71,0-3.41,0-5.12-.85.64,1.28,1.28,2.56,1.49,4.05.43,1.92,0,3.84-.21,5.55-.21,1.71-1.49,3.41-2.99,4.91-1.49,1.49-2.98,2.56-4.69,3.2s-3.41.85-5.33.85l-.21-.21ZM292.55,89.29l-3.62,3.63-19.83-19.84,32.84-32.85,19.83,19.84-3.62,3.63-16.2-16.21-10.66,10.67,13.65,13.65-3.62,3.63-13.65-13.65-11.51,11.52,16.2,16.21.21-.21ZM305.77,109.77l-3.62-3.63,29.42-29.44-9.38-9.39,3.62-3.63,22.81,22.83-3.62,3.63-9.81-9.81-29.42,29.44ZM344.15,148.17l-4.05-4.05,5.54-12.59-14.71-14.72-12.58,5.55-3.84-3.84,45.41-20.27,4.26,4.27-20.47,45.44.43.21Z"/>
  <path class="cls-1" d="M103.49.33H23.06C10.26.33-.41,11-.41,23.8v465.07c0,13.01,10.67,23.47,23.47,23.47h337.07c13.01,0,23.47-10.67,23.47-23.47v-208.43L103.49.33ZM222.29,206.32c-5.66-1-11.06,2.78-12.06,8.44-1,5.66,2.78,11.06,8.44,12.06s11.06-2.78,12.06-8.44c1-5.66-2.78-11.06-8.44-12.06ZM197.41,212.5c2.25-12.74,14.4-21.25,27.14-19.01,12.75,2.25,21.26,14.4,19.01,27.15-2.16,12.26-13.49,20.6-25.7,19.22l-18.25,38.21c-1.55,3.25-5.44,4.62-8.68,3.07-3.25-1.55-4.62-5.44-3.07-8.68l17.96-37.6c-6.45-5.18-9.95-13.63-8.41-22.35ZM120.36,260.06c-6.23,0-11.28,5.05-11.28,11.28v143.49c0,6.23,5.05,11.28,11.28,11.28h95.34l-.17-35.27c-.06-13.47,10.84-24.42,24.31-24.42h35.3v-95.08c0-6.23-5.05-11.28-11.28-11.28h-34.44c-3.6,0-6.51-2.92-6.51-6.51s2.92-6.51,6.51-6.51h34.44c13.42,0,24.31,10.88,24.31,24.31v104.28l-63.21,63.52h-104.59c-13.42,0-24.31-10.88-24.31-24.31v-143.49c0-13.42,10.88-24.31,24.31-24.31h56.82c3.6,0,6.51,2.92,6.51,6.51s-2.92,6.51-6.51,6.51h-56.82ZM265.98,379.45h-26.14c-6.25,0-11.31,5.08-11.28,11.34l.13,26.14,37.3-37.48ZM140.82,320.71c0-3.6,2.92-6.51,6.51-6.51h89.54c3.6,0,6.51,2.92,6.51,6.51s-2.92,6.51-6.51,6.51h-89.54c-3.6,0-6.51-2.92-6.51-6.51ZM140.82,358.01c0-3.6,2.92-6.51,6.51-6.51h58.76c3.6,0,6.51,2.92,6.51,6.51s-2.92,6.51-6.51,6.51h-58.76c-3.6,0-6.51-2.92-6.51-6.51Z"/>
</svg>
