<svg xmlns="http://www.w3.org/2000/svg" viewBox="0 0 384 512" x="10">
    <!-- Font Awesome Free 5.15.4 by @fontawesome - https://fontawesome.com License - https://fontawesome.com/license/free (Icons: CC BY 4.0, Fonts: SIL OFL 1.1, Code: MIT License) -->
    <g style="fill-opacity:1" transform="matrix(0.31636789,0.01658005,-0.01658005,0.31636789,161.06184,341.60014)">
      <path
        style="stroke-width:0.037259;fill-opacity:1"
        transform="matrix(75.430928,-3.9531448,3.9531448,75.430928,-876.74306,-1143.4884)"
        d="m 13.823872,16.911022 c -0.06895,-0.02384 -0.181781,-0.07954 -0.250727,-0.12378 -0.148462,-0.09527 -0.332674,-0.287678 -0.321715,-0.336033 0.0043,-0.01879 0.390363,-0.380307 0.858007,-0.803366 0.98511,-0.891189 1.661572,-1.518619 1.918277,-1.779235 l 0.180782,-0.183537 -0.188188,-0.226106 c -0.27351,-0.328619 -0.867163,-1.000827 -1.391902,-1.576087 -0.251546,-0.275763 -0.502408,-0.551975 -0.557472,-0.613804 -0.08385,-0.09415 -0.110266,-0.109869 -0.1626,-0.09673 -0.03437,0.0086 -0.186793,0.124026 -0.338727,0.256447 -0.151934,0.132421 -0.315661,0.274036 -0.363838,0.314701 l -0.0876,0.07394 -0.160774,-0.172517 c -0.08843,-0.09488 -0.27642,-0.303642 -0.417764,-0.463906 -0.222385,-0.252153 -0.252636,-0.296667 -0.224663,-0.330593 0.0917,-0.111221 0.869886,-0.790291 1.025444,-0.894842 0.221563,-0.1489124 0.37394,-0.1960252 0.634008,-0.1960252 0.428866,0 0.588909,0.1435835 2.390799,2.1449172 1.226268,1.361999 1.258332,1.410322 1.240057,1.868872 -0.01288,0.323254 -0.08927,0.46 -0.457433,0.818923 -0.604319,0.589143 -2.225732,2.035742 -2.460514,2.19523 -0.230289,0.156437 -0.610806,0.210879 -0.863462,0.123539 z m -1.196254,-1.040826 c -0.208396,-0.231193 -0.382505,-0.436459 -0.38691,-0.456148 -0.01558,-0.06966 0.701573,-0.754155 1.317748,-1.257735 0.324583,-0.265272 0.460962,-0.338034 0.690704,-0.36851 0.286377,-0.03799 0.662496,0.109287 0.903491,0.353777 l 0.14366,0.145744 -0.907665,0.812992 c -1.281212,1.147577 -1.329857,1.190231 -1.357416,1.190231 -0.01359,0 -0.195216,-0.189158 -0.403612,-0.420351 z m 0.701363,5.008048 c -0.174603,-0.06034 -0.227659,-0.105093 -0.738361,-0.622836 -0.538889,-0.546319 -0.913223,-0.949437 -1.421378,-1.530674 -0.692712,-0.792336 -0.744334,-0.880854 -0.744057,-1.275858 1.71e-4,-0.243017 0.0052,-0.269041 0.0824,-0.427356 0.04866,-0.09977 0.144783,-0.234619 0.2355,-0.330373 l 0.153284,-0.161793 0.333221,0.367341 c 0.183272,0.202038 0.669759,0.738869 1.081081,1.192959 0.411323,0.45409 0.885673,0.972569 1.054111,1.152176 l 0.306252,0.326558 0.08981,-0.07185 c 0.339923,-0.271921 2.443441,-2.214001 2.443441,-2.255915 0,-0.03033 -0.23754,-0.320692 -0.512345,-0.626284 l -0.154988,-0.172352 0.457744,-0.414595 c 0.251759,-0.228027 0.466955,-0.417792 0.478214,-0.421701 0.025,-0.0087 0.668765,0.710236 0.863955,0.964805 0.07756,0.101154 0.165715,0.24133 0.195902,0.311501 0.117536,0.27322 0.08626,0.634186 -0.07865,0.907672 -0.114747,0.190298 -0.738337,0.78122 -2.100289,1.990265 -0.888629,0.788862 -1.199437,1.043426 -1.336639,1.09476 -0.172407,0.06451 -0.506824,0.06623 -0.68821,0.0035 z m -1.228136,-3.372923 c -0.542197,-0.604116 -0.989168,-1.11229 -0.993268,-1.129277 -0.0062,-0.02572 0.848727,-0.822705 0.905448,-0.844078 0.0233,-0.0088 1.245659,1.337508 1.393616,1.534908 0.148634,0.198302 0.185544,0.320254 0.190822,0.630473 0.0039,0.228904 -0.0025,0.271463 -0.05864,0.392307 -0.08164,0.175643 -0.267386,0.419523 -0.361326,0.474422 -0.04059,0.02372 -0.07764,0.04234 -0.08232,0.04138 -0.0047,-9.61e-4 -0.452135,-0.496023 -0.994332,-1.100138 z M 9.4725424,16.882738 C 9.3259134,16.838418 9.0854797,16.689017 8.9496095,16.557798 8.87013,16.481039 8.8091329,16.40795 8.8140603,16.395378 c 0.015408,-0.03931 1.3164527,-1.205238 2.0414327,-1.82942 l 0.208721,-0.179701 0.215363,0.224781 c 0.237749,0.248147 0.587137,0.672366 0.587137,0.712888 0,0.06579 -1.490786,1.37271 -1.68082,1.473516 -0.166358,0.08825 -0.5513084,0.134275 -0.7133516,0.0853 z M 9.92408,20.899092 C 9.6108284,20.832747 9.4627631,20.701474 8.3793262,19.52954 7.0996538,18.145342 6.6975697,17.672272 6.5491156,17.376218 6.4610973,17.200688 6.45707,17.181818 6.45707,16.944925 c 0,-0.228796 0.00565,-0.258059 0.073936,-0.382866 0.1315339,-0.24041 0.9176194,-1.003926 2.0891305,-2.029148 0.8368993,-0.732395 0.9123591,-0.78158 1.2277574,-0.800264 0.3275191,-0.0194 0.6030021,0.09171 0.8510491,0.343247 l 0.144991,0.147034 -0.09891,0.09113 c -0.0544,0.05012 -0.66437,0.602511 -1.3554912,1.227537 -1.7603279,1.591979 -1.5830994,1.419898 -1.5352202,1.490629 0.050329,0.07435 0.8196826,0.931679 1.6399835,1.827513 0.5478319,0.598277 0.6320229,0.680685 0.6730069,0.658751 0.02576,-0.01379 0.115369,-0.08306 0.199124,-0.153946 0.08375,-0.07088 0.247547,-0.208858 0.363984,-0.306612 l 0.211704,-0.177734 0.08281,0.07915 c 0.04554,0.04353 0.238642,0.249102 0.429109,0.456818 l 0.346303,0.377664 -0.05923,0.05655 c -0.19042,0.181797 -0.824789,0.731577 -0.972105,0.842481 -0.09543,0.07185 -0.215237,0.148061 -0.26623,0.169368 -0.113047,0.04723 -0.433388,0.06764 -0.5786889,0.03687 z m 1.837627,-6.056457 c -0.580017,-0.592417 -1.130073,-1.238382 -1.220466,-1.433269 -0.116638,-0.251473 -0.09908,-0.595606 0.04512,-0.884167 0.06746,-0.135005 0.324447,-0.448999 0.367477,-0.448999 0.01073,0 0.385282,0.407571 0.832341,0.905714 1.018982,1.135421 1.193986,1.336607 1.184694,1.361944 -0.0076,0.02084 -0.431845,0.417714 -0.700242,0.655136 -0.08283,0.07327 -0.167434,0.133223 -0.188003,0.133223 -0.02057,0 -0.164983,-0.130312 -0.320919,-0.289582 z M 7.2580424,14.709108 c -0.4334086,-0.48547 -0.5980249,-0.692493 -0.682601,-0.858446 -0.064309,-0.126187 -0.069081,-0.155977 -0.069081,-0.431293 0,-0.282052 0.00342,-0.302019 0.073936,-0.431293 C 6.6839578,12.79803 7.1497207,12.338598 8.2315318,11.359285 9.3789325,10.320597 9.7622621,9.9840323 9.9072669,9.8879851 10.020669,9.8128711 10.289353,9.7348955 10.434777,9.7348955 c 0.29016,0 0.563761,0.1359505 0.837068,0.4159325 0.630021,0.645408 2.066227,2.282945 2.276993,2.596187 0.09339,0.138796 0.127384,0.270382 0.125948,0.487514 -8.53e-4,0.129022 -0.01752,0.226858 -0.05519,0.323983 -0.07411,0.191053 -0.226181,0.419716 -0.33365,0.501687 -0.08817,0.06725 -0.09021,0.06756 -0.141813,0.02177 -0.0288,-0.02556 -0.496849,-0.534441 -1.040114,-1.130857 -0.543265,-0.596417 -1.145381,-1.245204 -1.338035,-1.44175 -0.346474,-0.353474 -0.350949,-0.356956 -0.411855,-0.320389 -0.234716,0.140917 -2.4799501,2.196249 -2.4799501,2.270195 0,0.02451 0.097041,0.147963 0.2156464,0.274334 0.1186056,0.126372 0.2702136,0.293787 0.3369067,0.372034 l 0.1212603,0.142267 -0.059647,0.05724 c -0.2729667,0.261937 -0.8632394,0.778753 -0.887803,0.77732 -0.00538,-3.14e-4 -0.1595046,-0.168275 -0.342496,-0.373248 z m 6.1711086,-7.5756724 0,-5.6833695 -8.3578964,2e-7 c -0.5558001,0 -1.0029476,0.4471475 -1.0029476,1.0029476 l 4e-7,19.3903191 c 0,0.5558 0.4471475,1.002948 1.0029476,1.002948 l 14.041266,-1e-6 c 0.5558,0 1.002947,-0.447147 1.002947,-1.002947 l 0,-13.70695 -5.68337,10e-8 c -0.551621,0 -1.002947,-0.4513264 -1.002947,-1.0029475 z m 6.686317,-0.5892319 0,0.2549159 -5.349054,1e-7 0,-5.3490536 0.254916,0 c 0.267453,0 0.522368,0.1044737 0.710421,0.2925264 l 4.09119,4.095369 c 0.188053,0.1880527 0.292527,0.4429685 0.292527,0.7062422 z" />
    </g>
</svg>
