<svg xmlns="http://www.w3.org/2000/svg" viewBox="0 0 384 512">
   <!-- MIT License: https://opensource.org/licenses/MIT -->
   <!-- author: https://github.com/elizavetaRa -->
   <!-- author: https://github.com/javfg -->
   <g>
      <path
         d="m 37.423886,409.76833 c 8.814712,-6.95646 120.222434,-71.85964 120.222434,-71.85964 l 27.07357,54.07055 25.81395,-157.15224 155.26367,5.7784 -143.93042,5.28848 L 193.22,444.46886 150.0905,358.7781 Z M 224,136 V 0 H 24 C 10.7,0 0,10.7 0,24 v 464 c 0,13.3 10.7,24 24,24 h 336 c 13.3,0 24,-10.7 24,-24 V 160 H 248 c -13.2,0 -24,-10.8 -24,-24 z M 384,121.9 V 128 H 256 V 0 h 6.1 c 6.4,0 12.5,2.5 17,7 l 97.9,98 c 4.5,4.5 7,10.6 7,16.9 z" />
   </g>
</svg>
