<svg xmlns="http://www.w3.org/2000/svg" viewBox="0 0 384 512" x="10">
    <!-- Font Awesome Free 5.15.4 by @fontawesome - https://fontawesome.com License - https://fontawesome.com/license/free (Icons: CC BY 4.0, Fonts: SIL OFL 1.1, Code: MIT License) -->
    <path d="m27.998 2.1797c-13.255 0-24 10.745-24 24v464c0 13.255 10.745 24 24 24h336c13.255 0 24-10.745 24-24v-328h-136c-13.2 0-24-10.8-24-24v-136zm232 0v128h128v-6.0586c0-6.3652-2.529-12.471-7.0293-16.973l-97.939-97.939c-4.501-4.5-10.606-7.0293-16.971-7.0293zm-25.041 197.16h114.08c2.7478 0 4.9609 2.2131 4.9609 4.9609v114.08c0 2.7478-2.2131 4.959-4.9609 4.959h-114.08c-2.7478 0-4.959-2.2111-4.959-4.959v-114.08c0-2.7478 2.2111-4.9609 4.959-4.9609zm-122.96 22.656a74 74 0 0 1 74 74 74 74 0 0 1-74 74 74 74 0 0 1-74-74 74 74 0 0 1 74-74zm97.887 140c1.4024-0.0182 2.7178 0.68385 3.4902 1.8633l67.936 103.7c1.805 2.7569-0.15544 6.4306-3.4336 6.4336h-131.76c-3.2276-7.2e-4 -5.1997-3.5727-3.498-6.3359l63.818-103.7c0.74042-1.202 2.0393-1.9413 3.4434-1.9609z"/>
</svg>
