<svg xmlns="http://www.w3.org/2000/svg" viewBox="0 0 384 512" x="10" >
    <!-- Font Awesome Free 5.15.4 by @fontawesome - https://fontawesome.com License - https://fontawesome.com/license/free (Icons: CC BY 4.0, Fonts: SIL OFL 1.1, Code: MIT License) -->
    <g>
      <path fill="none" d="M0 0h24v24H0z"/>  
      <path style="stroke-width:2.08799;fill-opacity:1" d="m 48.423406,421.27533 v -33.14671 h 12.430019 12.4303 v -25.55084 -25.55085 h 55.244735 55.24502 v -18.64517 -18.64518 h -42.8147 -42.815005 v -42.12419 -42.1242 h 92.535375 92.53507 v 42.1242 42.12419 H 240.3593 197.50439 l 0.38475,18.30007 0.38473,18.29978 55.59042,0.36159 55.59012,0.3616 v 25.53522 25.53493 h 12.43002 12.43002 v 33.147 33.14702 h -32.45621 -32.4565 v -33.14702 -33.147 h 12.43002 12.43031 V 369.4846 350.83942 h -48.37956 -48.37928 l 0.38474,18.30006 0.38475,18.29978 12.77542,0.39632 12.77542,0.3963 v 33.09523 33.09495 h -32.45652 -32.4565 v -33.14673 -33.14701 h 12.43031 12.43003 V 369.48314 350.83797 H 135.43181 87.092455 v 18.64517 18.64518 h 13.120825 13.12052 v 33.14701 33.14673 H 80.877585 48.42109 Z M 224,136 V 0 H 24 C 10.7,0 0,10.7 0,24 v 464 c 0,13.3 10.7,24 24,24 h 336 c 13.3,0 24,-10.7 24,-24 V 160 H 248 c -13.2,0 -24,-10.8 -24,-24 z M 384,121.9 V 128 H 256 V 0 h 6.1 c 6.4,0 12.5,2.5 17,7 l 97.9,98 c 4.5,4.5 7,10.6 7,16.9 z" />
    </g>
</svg>
