<svg width="18" height="24" viewBox="0 0 18 24" fill="none" xmlns="http://www.w3.org/2000/svg">
<!-- Copyright: Bayerisches Staatsministerium für Unterricht und Kultus. Created by: Almato AG
This icon is licensed under the GNU Affero General Public License, Version 3.
See https://www.gnu.org/licenses/agpl-3.0.html for more information. -->
<g clip-path="url(#clip0_2734_6465)">
<path fill-rule="evenodd" clip-rule="evenodd" d="M11.6 7.5C11 7.5 10.5 7 10.5 6.4V0H1.1C0.5 0 0 0.5 0 1.1V22.9C0 23.5 0.5 24 1.1 24H16.9C17.5 24 18 23.5 18 22.9V7.5H11.6ZM13.6 14.9C13.5 14.9 13.5 14.9 13.4 14.9C13.3 15.9 12.9 16.9 12.4 17.6C11.8 18.5 11.2 18.9 10.5 19C9.5 19 8.5 18 8.4 17C8.3 16.1 9 15.3 10.3 14.5C11 14 11.8 13.9 12.4 13.8C12.3 13.5 12.2 13.2 12.1 12.9C11.9 12.4 11.4 11.8 11 11.8C10.9 11.8 10.6 12.1 10.2 12.7C10 13 9.7 13.3 9.4 13.6C8.4 14.7 8 15.1 7.8 15.2L7.7 15.3C7.2 15.7 5.6 17 4.4 16.4C3.7 16 3.6 15.2 3.6 15C3.6 14.5 3.8 13.8 5.3 12.1C5.6 11.8 5.8 11.6 6 11.4C6.5 10.8 6.7 10.7 6.7 10.4C6.7 10.1 6.5 9.9 6.4 9.8C6 9.6 5.4 9.7 5 10.2C4.8 10.4 4.5 10.4 4.3 10.3C4.1 10.1 4 9.8 4.2 9.6C4.9 8.7 6.2 8.4 7 9C7.5 9.3 7.7 9.9 7.7 10.4C7.7 11.1 7.3 11.5 6.7 12.1C6.5 12.3 6.3 12.5 6 12.8C5.4 13.5 4.5 14.5 4.6 15C4.6 15.3 4.7 15.5 4.9 15.6C5.2 15.8 6.2 15.2 6.9 14.6L7 14.5C7.2 14.3 7.6 14 8.5 13C8.8 12.6 9.1 12.3 9.3 12.1C10 11.2 10.4 10.9 10.9 10.9C12.1 10.9 12.8 12.3 12.9 12.6C13.1 13 13.2 13.4 13.2 13.9C13.4 13.9 13.5 14 13.6 14C13.9 14.1 14.1 14.4 14 14.6C14.2 14.8 13.8 15 13.6 14.9ZM9.4 17C9.5 17.6 10.1 18.1 10.5 18C10.8 18 11.2 17.7 11.6 17.1C12 16.5 12.2 15.8 12.3 15C11.8 15.1 11.2 15.2 10.7 15.5C9.6 16.1 9.3 16.6 9.4 17Z" fill="#975FA8"/>
<path d="M18 6V5.7C18 5.4 17.9 5.1 17.7 4.9L13.1 0.3C12.9 0.1 12.6 0 12.3 0H12V6H18Z" fill="#975FA8"/>
</g>
<defs>
<clipPath id="clip0_2734_6465">
<rect width="18" height="24" fill="white"/>
</clipPath>
</defs>
</svg>
