<svg xmlns="http://www.w3.org/2000/svg" viewBox="0 0 384 512" x="10">
    <!-- Font Awesome Free 5.15.4 by @fontawesome - https://fontawesome.com License - https://fontawesome.com/license/free (Icons: CC BY 4.0, Fonts: SIL OFL 1.1, Code: MIT License) -->
    <g transform="translate(45.367932,-89.73293)">
      <path d="M 24.810547 0.6171875 C 11.510547 0.6171875 0.81054686 11.317188 0.81054688 24.617188 L 0.81054688 488.61719 C 0.81054688 501.91719 11.510547 512.61719 24.810547 512.61719 L 360.81055 512.61719 C 374.11055 512.61719 384.81055 501.91719 384.81055 488.61719 L 384.81055 160.61719 L 248.81055 160.61719 C 235.61055 160.61719 224.81055 149.81719 224.81055 136.61719 L 224.81055 0.6171875 L 24.810547 0.6171875 z M 256.81055 0.6171875 L 256.81055 128.61719 L 384.81055 128.61719 L 384.81055 122.51562 C 384.81055 116.21563 382.31055 110.11719 377.81055 105.61719 L 279.91016 7.6171875 C 275.41016 3.1171875 269.31016 0.6171875 262.91016 0.6171875 L 256.81055 0.6171875 z M 285.14062 193.11133 C 286.78276 193.18329 288.40934 193.49971 289.96484 194.04688 C 292.03885 194.77868 293.94834 195.91277 295.58203 197.38477 C 297.21628 198.85677 298.54304 200.63828 299.48633 202.625 C 300.43018 204.61173 300.97154 206.76385 301.08008 208.96094 L 301.07812 208.96094 C 301.28513 212.30721 300.48682 215.63872 298.79102 218.53125 C 297.09579 221.42321 294.57868 223.74483 291.55859 225.20117 C 288.53906 226.65694 285.15283 227.18147 281.83398 226.70703 C 278.51513 226.23147 275.41325 224.7812 272.92188 222.53711 C 270.43106 220.29303 268.66507 217.35857 267.84766 214.10742 C 267.03082 210.8557 267.19935 207.43422 268.33398 204.2793 C 269.46805 201.12438 271.51618 198.37987 274.2168 196.39258 C 276.91687 194.40586 280.14703 193.26599 283.49609 193.12109 C 284.04523 193.09032 284.59325 193.08734 285.14062 193.11133 z M 205.90234 217.66797 C 228.07559 217.66797 249.71588 224.4598 267.91211 237.13086 C 286.10774 249.80193 299.98441 267.74259 307.67578 288.53906 C 287.85399 265.42187 249.51993 254.59766 205.90234 254.59766 C 162.09138 254.59766 123.94845 265.37368 104.12695 288.53906 C 111.81742 267.74259 125.69695 249.80193 143.89258 237.13086 C 162.08821 224.4598 183.72941 217.66797 205.90234 217.66797 z M 103.49023 219.64062 C 104.68326 219.71406 105.86509 219.9632 106.99805 220.38281 C 109.26395 221.2226 111.23181 222.71314 112.65234 224.66797 C 114.07286 226.62281 114.8834 228.95441 114.98242 231.36914 C 115.07752 234.63372 113.87937 237.8041 111.65039 240.19141 C 109.42141 242.57928 106.34159 243.98934 103.07812 244.11914 L 103.07812 244.11719 C 100.66285 244.18429 98.280129 243.53485 96.232422 242.25195 C 94.184716 240.96906 92.562001 239.10893 91.568359 236.90625 C 90.575278 234.70356 90.256515 232.25701 90.650391 229.87305 C 91.042029 227.48909 92.134408 225.27409 93.783203 223.50781 C 95.432558 221.74152 97.566463 220.50143 99.917969 219.94531 C 101.09372 219.66837 102.29721 219.56719 103.49023 219.64062 z M 307.64453 362.21875 C 300.32683 383.14929 286.77105 401.33596 268.80469 414.33008 C 250.83834 427.32418 229.32173 434.50231 207.15234 434.89844 C 184.98263 435.29457 163.22439 428.88888 144.80469 416.54492 C 126.38559 404.20095 112.19059 386.51121 104.12891 365.85547 C 124.36053 388.61485 162.88156 398.75191 206.49219 397.97266 C 250.29616 397.18996 288.24005 385.73456 307.64453 362.21875 z M 120.77734 430.33984 C 122.84365 430.43331 124.88821 430.82969 126.8457 431.51953 C 129.45568 432.441 131.85768 433.86659 133.91602 435.7168 C 135.97491 437.56701 137.64843 439.8052 138.8418 442.30273 C 140.03518 444.80026 140.7245 447.50764 140.87109 450.27148 C 141.13404 454.48606 140.13693 458.68393 138.00586 462.33008 C 135.87423 465.97567 132.70599 468.90568 128.9043 470.74414 C 125.10206 472.5826 120.83977 473.24679 116.6582 472.6543 C 112.47718 472.06124 108.56672 470.23721 105.42578 467.41406 C 102.28484 464.59091 100.05541 460.89703 99.021484 456.80273 C 97.98812 452.70788 98.196651 448.39755 99.621094 444.42188 C 101.04554 440.44619 103.62123 436.985 107.01953 434.47852 C 110.41838 431.97204 114.48658 430.53397 118.70508 430.34766 C 119.39604 430.31129 120.08858 430.30869 120.77734 430.33984 z " transform="translate(-45.367932,89.73293)"/>
  
      <path
         fill="none"
         d="m 205.98235,394.67457 c -43.61728,0 -82.03308,-10.23461 -101.85458,-33.3518 7.69047,20.79647 21.56844,38.73789 39.76407,51.40896 18.19563,12.67167 39.83697,19.46397 62.0099,19.46397 22.17325,0 43.81398,-6.7923 62.01021,-19.46397 18.19563,-12.67107 32.073,-30.61249 39.76437,-51.40896 -19.7733,23.11719 -57.88271,33.3518 -101.69397,33.3518 z"
         style="mix-blend-mode:normal;stroke-width:5.44357"/>
   </g>
</svg>
